index.glyphspackage
{
glyphname = numbersign;
layers = (
{
layerId = master01;
shapes = (
{
closed = 1;
nodes = (
(456,0,l),
(803,1966,l),
(741,1966,l),
(622,1293,l),
(161,1293,l),
(161,1239,l),
(614,1239,l),
(524,727,l),
(62,727,l),
(62,673,l),
(513,673,l),
(394,0,l,{
name = hr00;
})
);
},
{
closed = 1;
nodes = (
(949,0,l),
(1067,673,l),
(1529,673,l),
(1529,727,l),
(1076,727,l),
(1166,1239,l),
(1628,1239,l),
(1628,1293,l),
(1177,1293,l),
(1295,1966,l),
(1233,1966,l),
(887,0,l)
);
}
);
width = 1690;
},
{
layerId = "D7CFBB37-D300-46E8-A355-ECFF19545BAA";
shapes = (
{
closed = 1;
nodes = (
(563,0,l),
(910,1966,l),
(580,1966,l),
(484,1419,l),
(132,1419,l),
(132,1110,l),
(428,1110,l),
(386,856,l),
(25,856,l),
(25,546,l),
(329,546,l),
(234,0,l,{
name = hr00;
})
);
},
{
closed = 1;
nodes = (
(1110,0,l),
(1205,546,l),
(1557,546,l),
(1557,856,l),
(1262,856,l),
(1304,1110,l),
(1664,1110,l),
(1664,1419,l),
(1360,1419,l),
(1456,1966,l),
(1126,1966,l),
(780,0,l)
);
}
);
width = 1690;
},
{
layerId = "661A777E-9960-44AA-8623-3AD7C626B4F3";
shapes = (
{
closed = 1;
nodes = (
(515,0,l),
(862,1966,l),
(656,1966,l),
(549,1357,l),
(146,1357,l),
(146,1171,l),
(515,1171,l),
(451,794,l),
(45,794,l),
(45,608,l),
(417,608,l),
(310,0,l,{
name = hr00;
})
);
},
{
closed = 1;
nodes = (
(1033,0,l),
(1140,608,l),
(1543,608,l),
(1543,794,l),
(1174,794,l),
(1239,1171,l),
(1645,1171,l),
(1645,1357,l),
(1273,1357,l),
(1380,1966,l),
(1174,1966,l),
(828,0,l)
);
}
);
width = 1690;
}
);
unicode = 35;
}
{
glyphname = dollar;
layers = (
{
layerId = master01;
shapes = (
{
closed = 1;
nodes = (
(890,-318,l),
(890,-34,l),
(1253,-23,o),
(1484,155,o),
(1484,498,cs),
(1484,729,o),
(1388,949,o),
(974,1019,cs),
(890,1033,l),
(890,1943,l),
(1140,1932,o),
(1295,1844,o),
(1405,1687,c),
(1453,1726,l),
(1349,1878,o),
(1180,1988,o),
(890,1999,c),
(890,2284,l),
(834,2284,l),
(834,1999,l),
(467,1997,o),
(231,1836,o),
(231,1507,cs),
(231,1276,o),
(335,1064,o),
(732,997,cs),
(834,980,l),
(834,23,l),
(527,28,o),
(372,146,o),
(237,324,c),
(186,287,l),
(324,104,o),
(501,-28,o),
(834,-34,c),
(834,-318,l,{
name = hr00;
})
);
},
{
closed = 1;
nodes = (
(293,1797,o),
(496,1940,o),
(834,1943,c),
(834,1042,l),
(501,1095,o),
(293,1200,o),
(293,1507,cs)
);
},
{
closed = 1;
nodes = (
(1422,194,o),
(1225,31,o),
(890,23,c),
(890,972,l),
(1202,921,o),
(1422,822,o),
(1422,496,cs)
);
}
);
width = 1690;
},
{
layerId = "D7CFBB37-D300-46E8-A355-ECFF19545BAA";
shapes = (
{
closed = 1;
nodes = (
(1033,-318,l),
(1033,-14,l),
(1397,51,o),
(1599,287,o),
(1599,597,cs),
(1599,881,o),
(1428,1084,o),
(1070,1152,cs),
(1005,1163,l),
(1005,1633,l),
(1124,1608,o),
(1225,1552,o),
(1304,1464,c),
(1546,1735,l),
(1433,1864,o),
(1267,1960,o),
(1033,1991,c),
(1033,2284,l),
(712,2284,l),
(712,1988,l),
(349,1940,o),
(146,1729,o),
(146,1414,cs),
(146,1126,o),
(315,912,o),
(676,848,cs),
(741,836,l),
(741,318,l),
(589,341,o),
(448,411,o),
(329,538,c),
(84,270,l),
(217,104,o),
(434,-6,o),
(712,-28,c),
(712,-318,l,{
name = hr00;
})
);
},
{
closed = 1;
nodes = (
(543,1546,o),
(603,1619,o),
(741,1642,c),
(741,1217,l),
(603,1253,o),
(543,1309,o),
(543,1428,cs)
);
},
{
closed = 1;
nodes = (
(1205,439,o),
(1140,352,o),
(1005,321,c),
(1005,786,l),
(1143,752,o),
(1205,696,o),
(1205,569,cs)
);
}
);
width = 1690;
},
{
layerId = "661A777E-9960-44AA-8623-3AD7C626B4F3";
shapes = (
{
closed = 1;
nodes = (
(960,-318,l),
(960,-31,l),
(1340,0,o),
(1554,211,o),
(1554,538,cs),
(1554,803,o),
(1428,1022,o),
(1042,1087,cs),
(957,1101,l),
(957,1791,l),
(1143,1771,o),
(1267,1687,o),
(1369,1552,c),
(1546,1678,l),
(1405,1870,o),
(1219,1977,o),
(960,1997,c),
(960,2284,l),
(786,2284,l),
(786,1997,l),
(431,1971,o),
(211,1780,o),
(211,1464,cs),
(211,1208,o),
(335,983,o),
(724,918,cs),
(788,907,l),
(788,172,l),
(591,191,o),
(448,284,o),
(313,453,c),
(141,313,l),
(276,124,o),
(473,-11,o),
(786,-31,c),
(786,-318,l,{
name = hr00;
})
);
},
{
closed = 1;
nodes = (
(439,1659,o),
(566,1771,o),
(788,1794,c),
(788,1129,l),
(538,1180,o),
(439,1281,o),
(439,1464,cs)
);
},
{
closed = 1;
nodes = (
(1326,329,o),
(1194,200,o),
(957,175,c),
(957,879,l),
(1219,834,o),
(1326,735,o),
(1326,535,cs)
);
}
);
width = 1690;
}
);
unicode = 36;
}
{
glyphname = ampersand;
layers = (
{
layerId = master01;
shapes = (
{
closed = 1;
nodes = (
(895,-34,o),
(1081,99,o),
(1183,304,c),
(1191,304,l),
(1453,0,l,{
name = hr01;
}),
(1526,0,l),
(1211,369,l),
(1262,496,o),
(1284,662,o),
(1301,952,c),
(1532,952,l),
(1532,1008,l),
(1245,1008,l),
(1228,698,o),
(1211,538,o),
(1169,420,c),
(1160,420,l),
(938,679,l),
(566,1115,ls),
(459,1239,o),
(377,1385,o),
(377,1526,cs),
(377,1566,ls),
(377,1799,o),
(518,1943,o),
(746,1943,cs),
(938,1943,o),
(1056,1833,o),
(1124,1701,c),
(1177,1726,l),
(1110,1875,o),
(966,1999,o),
(746,1999,cs),
(484,1999,o),
(313,1819,o),
(313,1554,cs),
(313,1369,o),
(403,1214,o),
(510,1090,c),
(206,938,o),
(118,718,o),
(118,490,cs),
(118,180,o),
(313,-34,o),
(645,-34,cs)
);
},
{
closed = 1;
nodes = (
(352,23,o),
(183,217,o),
(183,456,cs),
(183,521,ls),
(183,707,o),
(259,904,o),
(543,1048,c),
(1143,352,l),
(1053,152,o),
(879,23,o),
(648,23,cs)
);
}
);
width = 1690;
},
{
layerId = "D7CFBB37-D300-46E8-A355-ECFF19545BAA";
shapes = (
{
closed = 1;
nodes = (
(814,-34,o),
(972,82,o),
(997,273,c),
(1017,273,l),
(1242,0,l,{
name = hr01;
}),
(1687,0,l),
(1321,445,l),
(1380,577,o),
(1416,704,o),
(1436,822,c),
(1633,822,l),
(1633,1132,l),
(1132,1132,l),
(1132,1008,o),
(1124,811,o),
(1101,684,c),
(1084,684,l),
(949,893,l),
(788,1095,ls),
(611,1321,o),
(555,1385,o),
(555,1492,cs),
(555,1507,ls),
(555,1614,o),
(631,1690,o),
(743,1690,cs),
(856,1690,o),
(949,1616,o),
(988,1495,c),
(1276,1650,l),
(1217,1830,o),
(1019,1999,o),
(738,1999,cs),
(422,1999,o),
(189,1785,o),
(189,1504,cs),
(189,1360,o),
(251,1239,o),
(372,1073,c),
(155,946,o),
(39,772,o),
(39,535,cs,{
name = hr02;
}),
(39,231,o),
(231,-34,o),
(583,-34,cs)
);
},
{
closed = 1;
nodes = (
(527,284,o),
(422,380,o),
(422,558,c),
(422,563,ls),
(422,670,o),
(445,766,o),
(541,859,c),
(904,397,l),
(853,313,o),
(772,284,o),
(687,284,cs)
);
}
);
width = 1690;
},
{
layerId = "661A777E-9960-44AA-8623-3AD7C626B4F3";
shapes = (
{
closed = 1;
nodes = (
(865,-34,o),
(1031,96,o),
(1084,290,c),
(1098,290,l),
(1343,0,l,{
name = hr01;
}),
(1611,0,l),
(1267,406,l),
(1332,580,o),
(1343,704,o),
(1369,884,c),
(1580,884,l),
(1580,1073,l),
(1183,1073,l),
(1174,893,o),
(1171,693,o),
(1146,546,c),
(1132,546,l),
(926,800,l),
(673,1112,ls),
(529,1293,o),
(473,1391,o),
(473,1509,cs),
(473,1532,ls),
(473,1692,o),
(580,1808,o),
(749,1808,cs),
(895,1808,o),
(994,1721,o),
(1042,1605,c),
(1228,1701,l),
(1174,1844,o),
(1011,1999,o),
(760,1999,cs),
(482,1999,o),
(251,1808,o),
(251,1523,cs),
(251,1357,o),
(329,1217,o),
(434,1081,c),
(152,938,o),
(70,707,o),
(70,510,cs,{
name = hr02;
}),
(70,208,o),
(268,-34,o),
(611,-34,cs)
);
},
{
closed = 1;
nodes = (
(453,166,o),
(304,296,o),
(304,498,cs),
(304,541,ls),
(304,701,o),
(369,842,o),
(541,949,c),
(1031,358,l),
(960,237,o),
(831,166,o),
(670,166,cs)
);
}
);
width = 1690;
}
);
unicode = 38;
}
{
glyphname = quotesingle;
layers = (
{
layerId = master01;
shapes = (
{
closed = 1;
nodes = (
(879,2084,l),
(811,2084,l),
(811,1380,l),
(879,1380,l,{
name = hr00;
})
);
}
);
width = 1690;
},
{
layerId = "D7CFBB37-D300-46E8-A355-ECFF19545BAA";
shapes = (
{
closed = 1;
nodes = (
(1031,2084,l),
(659,2084,l),
(659,1166,l),
(1031,1166,l,{
name = hr00;
})
);
}
);
width = 1690;
},
{
layerId = "661A777E-9960-44AA-8623-3AD7C626B4F3";
shapes = (
{
closed = 1;
nodes = (
(952,2084,l),
(738,2084,l),
(738,1304,l),
(952,1304,l,{
name = hr00;
})
);
}
);
width = 1690;
}
);
unicode = 39;
}
{
glyphname = parenleft;
layers = (
{
layerId = master01;
shapes = (
{
closed = 1;
nodes = (
(670,301,o),
(921,-135,o),
(1236,-389,c),
(1309,-389,l),
(977,-130,o),
(729,313,o),
(729,828,cs),
(729,924,ls),
(729,1439,o),
(977,1881,o),
(1309,2140,c),
(1236,2140,l),
(921,1887,o),
(670,1450,o),
(670,876,cs,{
name = hr00;
})
);
}
);
width = 1690;
},
{
layerId = "D7CFBB37-D300-46E8-A355-ECFF19545BAA";
shapes = (
{
closed = 1;
nodes = (
(490,327,o),
(758,-152,o),
(1076,-389,c),
(1492,-389,l),
(1143,-149,o),
(839,262,o),
(839,732,cs),
(839,1019,ls),
(839,1490,o),
(1143,1901,o),
(1492,2140,c),
(1076,2140,l),
(758,1904,o),
(490,1425,o),
(490,876,cs,{
name = hr00;
})
);
}
);
width = 1690;
},
{
layerId = "661A777E-9960-44AA-8623-3AD7C626B4F3";
shapes = (
{
closed = 1;
nodes = (
(577,327,o),
(845,-152,o),
(1163,-389,c),
(1391,-389,l),
(1064,-144,o),
(788,273,o),
(788,755,cs),
(788,997,ls),
(788,1478,o),
(1064,1895,o),
(1391,2140,c),
(1163,2140,l),
(845,1904,o),
(577,1425,o),
(577,876,cs,{
name = hr00;
})
);
}
);
width = 1690;
}
);
unicode = 40;
}
{
glyphname = parenright;
layers = (
{
layerId = master01;
shapes = (
{
closed = 1;
nodes = (
(1019,1450,o),
(769,1887,o),
(453,2140,c),
(380,2140,l),
(712,1881,o),
(960,1439,o),
(960,924,cs),
(960,828,ls),
(960,313,o),
(712,-130,o),
(380,-389,c),
(453,-389,l),
(769,-135,o),
(1019,301,o),
(1019,876,cs,{
name = hr00;
})
);
}
);
width = 1690;
},
{
layerId = "D7CFBB37-D300-46E8-A355-ECFF19545BAA";
shapes = (
{
closed = 1;
nodes = (
(1200,1425,o),
(932,1904,o),
(614,2140,c),
(197,2140,l),
(546,1901,o),
(850,1490,o),
(850,1019,cs),
(850,732,ls),
(850,262,o),
(546,-149,o),
(197,-389,c),
(614,-389,l),
(932,-152,o),
(1200,327,o),
(1200,876,cs,{
name = hr00;
})
);
}
);
width = 1690;
},
{
layerId = "661A777E-9960-44AA-8623-3AD7C626B4F3";
shapes = (
{
closed = 1;
nodes = (
(1112,1425,o),
(845,1904,o),
(527,2140,c),
(298,2140,l),
(625,1895,o),
(901,1478,o),
(901,997,cs),
(901,755,ls),
(901,273,o),
(625,-144,o),
(298,-389,c),
(527,-389,l),
(845,-152,o),
(1112,327,o),
(1112,876,cs,{
name = hr00;
})
);
}
);
width = 1690;
}
);
unicode = 41;
}
{
glyphname = asterisk;
layers = (
{
layerId = master01;
shapes = (
{
closed = 1;
nodes = (
(1293,144,l),
(1340,177,l),
(895,786,l),
(1557,994,l),
(1540,1048,l),
(876,839,l),
(876,1546,l),
(817,1546,l),
(817,839,l),
(152,1048,l),
(135,994,l),
(797,786,l),
(352,177,l),
(400,144,l),
(845,758,l,{
name = hr00;
})
);
}
);
width = 1690;
},
{
layerId = "D7CFBB37-D300-46E8-A355-ECFF19545BAA";
shapes = (
{
closed = 1;
nodes = (
(1152,113,l),
(1445,307,l),
(1124,729,l),
(1605,893,l),
(1495,1217,l),
(1025,1045,l),
(1025,1543,l),
(665,1543,l),
(665,1045,l),
(194,1217,l),
(84,893,l),
(566,729,l),
(245,307,l),
(538,113,l),
(845,532,l,{
name = hr00;
})
);
}
);
width = 1690;
},
{
layerId = "661A777E-9960-44AA-8623-3AD7C626B4F3";
shapes = (
{
closed = 1;
nodes = (
(1197,146,l),
(1357,265,l),
(1008,743,l),
(1569,929,l),
(1509,1115,l),
(949,935,l),
(949,1543,l),
(741,1543,l),
(741,935,l),
(180,1115,l),
(121,929,l),
(681,743,l),
(332,265,l),
(493,146,l),
(845,631,l,{
name = hr00;
})
);
}
);
width = 1690;
}
);
unicode = 42;
}
{
glyphname = hyphen;
layers = (
{
layerId = master01;
shapes = (
{
closed = 1;
nodes = (
(1217,887,l),
(473,887,l),
(473,831,l),
(1217,831,l,{
name = hr00;
})
);
}
);
width = 1690;
},
{
layerId = "D7CFBB37-D300-46E8-A355-ECFF19545BAA";
shapes = (
{
closed = 1;
nodes = (
(1295,1059,l),
(394,1059,l),
(394,659,l),
(1295,659,l,{
name = hr00;
})
);
}
);
width = 1690;
},
{
layerId = "661A777E-9960-44AA-8623-3AD7C626B4F3";
shapes = (
{
closed = 1;
nodes = (
(1253,974,l),
(436,974,l),
(436,738,l),
(1253,738,l,{
name = hr00;
})
);
}
);
width = 1690;
}
);
unicode = 45;
}
{
glyphname = period;
layers = (
{
layerId = master01;
shapes = (
{
closed = 1;
nodes = (
(907,-14,o),
(941,14,o),
(941,62,cs),
(941,84,ls),
(941,132,o),
(907,161,o),
(845,161,cs),
(783,161,o),
(749,132,o),
(749,84,cs),
(749,62,ls),
(749,14,o),
(783,-14,o),
(845,-14,cs,{
name = hr00;
})
);
}
);
width = 1690;
},
{
layerId = "D7CFBB37-D300-46E8-A355-ECFF19545BAA";
shapes = (
{
closed = 1;
nodes = (
(1056,-34,o),
(1140,73,o),
(1140,200,cs),
(1140,298,l),
(1140,425,o),
(1056,532,o),
(845,532,cs),
(634,532,o),
(549,425,o),
(549,298,cs),
(549,200,ls),
(549,73,o),
(634,-34,o),
(845,-34,cs,{
name = hr00;
})
);
}
);
width = 1690;
},
{
layerId = "661A777E-9960-44AA-8623-3AD7C626B4F3";
shapes = (
{
closed = 1;
nodes = (
(997,-25,o),
(1053,48,o),
(1053,144,cs),
(1053,194,ls),
(1053,290,o),
(997,363,o),
(845,363,cs),
(693,363,o),
(636,290,o),
(636,194,cs),
(636,144,ls),
(636,48,o),
(693,-25,o),
(845,-25,cs,{
name = hr00;
})
);
}
);
width = 1690;
}
);
unicode = 46;
}
{
glyphname = slash;
layers = (
{
layerId = master01;
shapes = (
{
closed = 1;
nodes = (
(1394,2140,l),
(1340,2140,l),
(296,-389,l),
(349,-389,l,{
name = hr00;
})
);
}
);
width = 1690;
},
{
layerId = "D7CFBB37-D300-46E8-A355-ECFF19545BAA";
shapes = (
{
closed = 1;
nodes = (
(1484,2140,l),
(1110,2140,l),
(206,-389,l),
(580,-389,l,{
name = hr00;
})
);
}
);
width = 1690;
},
{
layerId = "661A777E-9960-44AA-8623-3AD7C626B4F3";
shapes = (
{
closed = 1;
nodes = (
(1436,2140,l),
(1233,2140,l),
(253,-389,l),
(456,-389,l,{
name = hr00;
})
);
}
);
width = 1690;
}
);
unicode = 47;
}
{
glyphname = zero;
layers = (
{
layerId = master01;
shapes = (
{
closed = 1;
nodes = (
(1256,-34,o),
(1490,262,o),
(1490,983,cs),
(1490,1704,o),
(1256,1999,o),
(845,1999,cs),
(434,1999,o),
(200,1704,o),
(200,983,cs),
(200,262,o),
(434,-34,o),
(845,-34,cs,{
name = hr00;
})
);
},
{
closed = 1;
nodes = (
(470,23,o),
(268,315,o),
(268,893,cs),
(268,1073,ls),
(268,1650,o),
(470,1943,o),
(845,1943,cs),
(1219,1943,o),
(1422,1650,o),
(1422,1073,cs),
(1422,893,ls),
(1422,315,o),
(1219,23,o),
(845,23,cs)
);
},
{
closed = 1;
nodes = (
(895,912,o),
(915,938,o),
(915,972,cs),
(915,994,ls),
(915,1028,o),
(895,1053,o),
(845,1053,cs),
(794,1053,o),
(774,1028,o),
(774,994,cs),
(774,972,ls),
(774,938,o),
(794,912,o),
(845,912,cs)
);
}
);
width = 1690;
},
{
layerId = "D7CFBB37-D300-46E8-A355-ECFF19545BAA";
shapes = (
{
closed = 1;
nodes = (
(1371,-34,o),
(1614,341,o),
(1614,983,cs),
(1614,1625,o),
(1371,1999,o),
(845,1999,cs),
(318,1999,o),
(76,1625,o),
(76,983,cs),
(76,341,o),
(318,-34,o),
(845,-34,cs,{
name = hr00;
})
);
},
{
closed = 1;
nodes = (
(594,298,o),
(507,487,o),
(507,800,cs),
(507,1166,ls),
(507,1478,o),
(594,1667,o),
(845,1667,cs),
(1095,1667,o),
(1183,1478,o),
(1183,1166,cs),
(1183,800,l),
(1183,487,o),
(1095,298,o),
(845,298,cs)
);
},
{
closed = 1;
nodes = (
(974,817,o),
(1019,876,o),
(1019,952,cs),
(1019,1014,ls),
(1019,1090,o),
(974,1149,o),
(845,1149,cs),
(715,1149,o),
(670,1090,o),
(670,1014,cs),
(670,952,l),
(670,876,o),
(715,817,o),
(845,817,cs)
);
}
);
width = 1690;
},
{
layerId = "661A777E-9960-44AA-8623-3AD7C626B4F3";
shapes = (
{
closed = 1;
nodes = (
(1324,-34,o),
(1532,341,o),
(1532,983,cs),
(1532,1625,o),
(1324,1999,o),
(845,1999,cs),
(366,1999,o),
(158,1625,o),
(158,983,cs),
(158,341,o),
(366,-34,o),
(845,-34,cs,{
name = hr00;
})
);
},
{
closed = 1;
nodes = (
(529,172,o),
(403,428,o),
(403,822,cs),
(403,1143,ls),
(403,1538,o),
(529,1794,o),
(845,1794,cs),
(1160,1794,o),
(1287,1538,o),
(1287,1143,cs),
(1287,822,l),
(1287,428,o),
(1160,172,o),
(845,172,cs)
);
},
{
closed = 1;
nodes = (
(974,817,o),
(1019,876,o),
(1019,952,cs),
(1019,1014,ls),
(1019,1090,o),
(974,1149,o),
(845,1149,cs),
(715,1149,o),
(670,1090,o),
(670,1014,cs),
(670,952,ls),
(670,876,o),
(715,817,o),
(845,817,cs)
);
}
);
width = 1690;
}
);
unicode = 48;
}
{
glyphname = two;
layers = (
{
layerId = master01;
shapes = (
{
closed = 1;
nodes = (
(315,56,l),
(1042,786,ls),
(1253,997,o),
(1369,1202,o),
(1369,1453,cs),
(1369,1791,o),
(1180,1999,o),
(828,1999,cs),
(504,1999,o),
(315,1819,o),
(245,1563,c),
(301,1552,l),
(377,1791,o),
(535,1943,o),
(828,1943,cs),
(1140,1943,o),
(1301,1752,o),
(1301,1498,cs),
(1301,1414,ls),
(1301,1205,o),
(1191,1017,o),
(1002,828,cs),
(245,62,l),
(245,0,l),
(1467,0,l),
(1467,56,l,{
name = hr00;
})
);
}
);
width = 1690;
},
{
layerId = "D7CFBB37-D300-46E8-A355-ECFF19545BAA";
shapes = (
{
closed = 1;
nodes = (
(617,355,l),
(991,645,ls),
(1287,870,o),
(1521,1081,o),
(1521,1408,cs),
(1521,1749,o),
(1273,1999,o),
(842,1999,cs),
(425,1999,o),
(194,1768,o),
(107,1498,c),
(476,1357,l),
(518,1507,o),
(611,1633,o),
(800,1633,cs),
(963,1633,o),
(1070,1546,o),
(1070,1383,cs),
(1070,1354,ls),
(1070,1205,o),
(983,1084,o),
(769,901,cs),
(149,386,l),
(149,0,l),
(1563,0,l),
(1563,355,l,{
name = hr00;
})
);
}
);
width = 1690;
},
{
layerId = "661A777E-9960-44AA-8623-3AD7C626B4F3";
shapes = (
{
closed = 1;
nodes = (
(445,206,l),
(994,684,ls),
(1256,912,o),
(1433,1132,o),
(1433,1431,cs),
(1433,1763,o),
(1214,1999,o),
(822,1999,cs),
(436,1999,o),
(259,1768,o),
(183,1538,c),
(394,1459,l),
(456,1661,o),
(577,1794,o),
(817,1794,cs),
(1059,1794,o),
(1186,1659,o),
(1186,1422,cs),
(1186,1388,ls),
(1186,1188,o),
(1048,1005,o),
(856,834,cs),
(200,242,l),
(200,0,l),
(1512,0,l),
(1512,206,l,{
name = hr00;
})
);
}
);
width = 1690;
}
);
unicode = 50;
}
{
glyphname = four;
layers = (
{
layerId = master01;
shapes = (
{
closed = 1;
nodes = (
(1219,451,l),
(1549,451,l),
(1549,504,l),
(1219,504,l),
(1219,1966,l),
(1146,1966,l),
(132,510,l),
(132,451,l),
(1160,451,l),
(1160,0,l),
(1219,0,l,{
name = hr00;
})
);
},
{
closed = 1;
nodes = (
(1160,1887,l),
(1160,504,l),
(194,504,l),
(1155,1887,l)
);
}
);
width = 1690;
},
{
layerId = "D7CFBB37-D300-46E8-A355-ECFF19545BAA";
shapes = (
{
closed = 1;
nodes = (
(1360,377,l),
(1614,377,l),
(1614,704,l),
(1360,704,l),
(1360,1966,l),
(853,1966,l),
(70,738,l),
(70,377,l),
(955,377,l),
(955,0,l),
(1360,0,l,{
name = hr00;
})
);
},
{
closed = 1;
nodes = (
(955,1529,l),
(955,704,l),
(411,704,l),
(929,1529,l)
);
}
);
width = 1690;
},
{
layerId = "661A777E-9960-44AA-8623-3AD7C626B4F3";
shapes = (
{
closed = 1;
nodes = (
(1290,386,l),
(1583,386,l),
(1583,580,l),
(1290,580,l),
(1290,1966,l),
(946,1966,l),
(96,594,l),
(96,386,l),
(1064,386,l),
(1064,0,l),
(1290,0,l,{
name = hr00;
})
);
},
{
closed = 1;
nodes = (
(1064,1783,l),
(1064,580,l),
(307,580,l),
(1053,1783,l)
);
}
);
width = 1690;
}
);
unicode = 52;
}
{
glyphname = five;
layers = (
{
layerId = master01;
shapes = (
{
closed = 1;
nodes = (
(394,1966,l),
(321,918,l),
(386,910,l),
(501,1045,o),
(617,1107,o),
(856,1107,cs),
(1180,1107,o),
(1354,904,o),
(1354,608,cs),
(1354,529,ls),
(1354,234,o),
(1166,23,o),
(836,23,cs),
(583,23,o),
(408,107,o),
(287,298,c),
(237,268,l),
(366,62,o),
(563,-34,o),
(836,-34,cs),
(1194,-34,o),
(1422,197,o),
(1422,572,cs),
(1422,941,o),
(1214,1163,o),
(856,1163,cs),
(645,1163,o),
(498,1112,o),
(386,966,c),
(377,969,l),
(445,1909,l),
(1354,1909,l),
(1354,1966,l,{
name = hr00;
})
);
}
);
width = 1690;
},
{
layerId = "D7CFBB37-D300-46E8-A355-ECFF19545BAA";
shapes = (
{
closed = 1;
nodes = (
(259,1966,l),
(186,853,l),
(532,805,l),
(586,865,o),
(687,943,o),
(845,943,cs),
(1033,943,o),
(1152,831,o),
(1152,648,cs),
(1152,625,ls),
(1152,434,o),
(1042,310,o),
(834,310,c),
(625,310,o),
(513,434,o),
(425,586,c),
(118,344,l),
(239,146,o),
(445,-34,o),
(831,-34,cs),
(1321,-34,o),
(1597,262,o),
(1597,659,cs),
(1597,1053,o),
(1321,1284,o),
(997,1284,cs),
(755,1284,o),
(631,1157,o),
(549,974,c),
(524,974,l),
(569,1597,l),
(1478,1597,l),
(1478,1966,l,{
name = hr00;
})
);
}
);
width = 1690;
},
{
layerId = "661A777E-9960-44AA-8623-3AD7C626B4F3";
shapes = (
{
closed = 1;
nodes = (
(341,1966,l),
(270,884,l),
(470,856,l),
(555,949,o),
(645,1022,o),
(831,1022,cs),
(1104,1022,o),
(1256,867,o),
(1256,608,cs),
(1256,586,ls),
(1256,329,o),
(1107,172,o),
(836,172,c),
(594,172,o),
(487,282,o),
(383,436,c),
(206,301,l),
(327,132,o),
(498,-34,o),
(831,-34,cs),
(1250,-34,o),
(1501,234,o),
(1501,617,cs),
(1501,997,o),
(1250,1222,o),
(907,1222,cs),
(698,1222,o),
(591,1140,o),
(496,1008,c),
(476,1008,l),
(532,1760,l),
(1411,1760,l),
(1411,1966,l,{
name = hr00;
})
);
}
);
width = 1690;
}
);
unicode = 53;
}
{
glyphname = seven;
layers = (
{
layerId = master01;
shapes = (
{
closed = 1;
nodes = (
(1442,1909,l),
(1442,1966,l),
(217,1966,l),
(217,1442,l),
(279,1442,l),
(279,1909,l),
(1377,1909,l),
(527,0,l),
(594,0,l,{
name = hr00;
})
);
}
);
width = 1690;
},
{
layerId = "D7CFBB37-D300-46E8-A355-ECFF19545BAA";
shapes = (
{
closed = 1;
nodes = (
(1557,1599,l),
(1557,1966,l),
(144,1966,l),
(144,1264,l),
(501,1264,l),
(501,1622,l),
(1138,1622,l),
(462,0,l),
(907,0,l,{
name = hr00;
})
);
}
);
width = 1690;
},
{
layerId = "661A777E-9960-44AA-8623-3AD7C626B4F3";
shapes = (
{
closed = 1;
nodes = (
(1495,1757,l),
(1495,1966,l),
(183,1966,l),
(183,1397,l),
(394,1397,l),
(394,1763,l),
(1256,1763,l),
(487,0,l),
(741,0,l,{
name = hr00;
})
);
}
);
width = 1690;
}
);
unicode = 55;
}
{
glyphname = nine;
layers = (
{
layerId = master01;
shapes = (
{
closed = 1;
nodes = (
(1453,1704,o),
(1281,1999,o),
(853,1999,cs),
(490,1999,o),
(259,1757,o),
(259,1388,cs),
(259,1019,o),
(493,791,o),
(856,791,cs),
(1087,791,o),
(1273,890,o),
(1371,1093,c),
(1380,1090,l),
(1301,622,o),
(1050,284,o),
(594,0,c),
(684,0,l),
(1118,268,o),
(1453,693,o),
(1453,1329,cs,{
name = hr00;
})
);
},
{
closed = 1;
nodes = (
(524,848,o),
(327,1067,o),
(327,1352,cs),
(327,1439,ls),
(327,1726,o),
(527,1943,o),
(856,1943,cs),
(1183,1943,o),
(1385,1723,o),
(1385,1431,cs),
(1385,1352,ls),
(1385,1067,o),
(1191,848,o),
(856,848,cs)
);
}
);
width = 1690;
},
{
layerId = "D7CFBB37-D300-46E8-A355-ECFF19545BAA";
shapes = (
{
closed = 1;
nodes = (
(1583,1692,o),
(1307,1999,o),
(834,1999,cs),
(380,1999,o),
(87,1712,o),
(87,1312,cs),
(87,938,o),
(341,698,o),
(670,698,cs),
(926,698,o),
(1045,845,o),
(1115,994,c),
(1140,986,l),
(1059,605,o),
(769,341,o),
(282,0,c),
(865,0,l),
(1205,228,o),
(1583,667,o),
(1583,1219,cs,{
name = hr00;
})
);
},
{
closed = 1;
nodes = (
(639,1022,o),
(527,1129,o),
(527,1324,cs),
(527,1363,ls),
(527,1557,o),
(634,1670,o),
(836,1670,cs),
(1036,1670,o),
(1143,1557,o),
(1143,1363,cs),
(1143,1324,ls),
(1143,1129,o),
(1028,1022,o),
(836,1022,cs)
);
}
);
width = 1690;
},
{
layerId = "661A777E-9960-44AA-8623-3AD7C626B4F3";
shapes = (
{
closed = 1;
nodes = (
(1509,1712,o),
(1256,1999,o),
(842,1999,cs),
(442,1999,o),
(180,1735,o),
(180,1349,cs),
(180,977,o),
(425,743,o),
(769,743,cs),
(1014,743,o),
(1157,865,o),
(1253,1025,c),
(1267,1019,l),
(1157,563,o),
(921,307,o),
(493,0,c),
(797,0,l),
(1118,206,o),
(1509,662,o),
(1509,1245,cs,{
name = hr00;
})
);
},
{
closed = 1;
nodes = (
(577,938,o),
(420,1093,o),
(420,1357,cs),
(420,1380,ls),
(420,1645,o),
(577,1799,o),
(845,1799,cs),
(1112,1799,o),
(1270,1645,o),
(1270,1380,cs),
(1270,1357,ls),
(1270,1093,o),
(1112,938,o),
(845,938,cs)
);
}
);
width = 1690;
}
);
unicode = 57;
}
{
glyphname = less;
layers = (
{
layerId = master01;
shapes = (
{
closed = 1;
nodes = (
(1450,172,l),
(304,856,l),
(304,862,l),
(1450,1546,l),
(1450,1611,l),
(239,884,l),
(239,834,l),
(1450,107,l,{
name = hr00;
})
);
}
);
width = 1690;
},
{
layerId = "D7CFBB37-D300-46E8-A355-ECFF19545BAA";
shapes = (
{
closed = 1;
nodes = (
(1450,406,l),
(614,848,l),
(614,870,l),
(1450,1312,l),
(1450,1701,l),
(239,1053,l),
(239,665,l),
(1450,17,l,{
name = hr00;
})
);
}
);
width = 1690;
},
{
layerId = "661A777E-9960-44AA-8623-3AD7C626B4F3";
shapes = (
{
closed = 1;
nodes = (
(1450,284,l),
(451,850,l),
(451,873,l),
(1450,1439,l),
(1450,1673,l),
(239,972,l),
(239,746,l),
(1450,45,l,{
name = hr00;
})
);
}
);
width = 1690;
}
);
unicode = 60;
}
{
glyphname = equal;
layers = (
{
layerId = master01;
shapes = (
{
closed = 1;
nodes = (
(1515,1138,l),
(175,1138,l),
(175,1084,l),
(1515,1084,l,{
name = hr00;
})
);
},
{
closed = 1;
nodes = (
(1515,636,l),
(175,636,l),
(175,583,l),
(1515,583,l)
);
}
);
width = 1690;
},
{
layerId = "D7CFBB37-D300-46E8-A355-ECFF19545BAA";
shapes = (
{
closed = 1;
nodes = (
(1515,1349,l),
(175,1349,l),
(175,1017,l),
(1515,1017,l,{
name = hr00;
})
);
},
{
closed = 1;
nodes = (
(1515,701,l),
(175,701,l),
(175,369,l),
(1515,369,l)
);
}
);
width = 1690;
},
{
layerId = "661A777E-9960-44AA-8623-3AD7C626B4F3";
shapes = (
{
closed = 1;
nodes = (
(1515,1239,l),
(175,1239,l),
(175,1048,l),
(1515,1048,l,{
name = hr00;
})
);
},
{
closed = 1;
nodes = (
(1515,676,l),
(175,676,l),
(175,484,l),
(1515,484,l)
);
}
);
width = 1690;
}
);
unicode = 61;
}
{
glyphname = K;
layers = (
{
anchors = (
{
name = bottom;
pos = (910,0);
},
{
name = top;
pos = (881,1966);
}
);
layerId = master01;
shapes = (
{
closed = 1;
nodes = (
(1543,0,l),
(788,1135,l),
(1535,1966,l),
(1462,1966,l),
(758,1186,l),
(372,758,l),
(366,758,l),
(366,1966,l),
(304,1966,l),
(304,0,l),
(366,0,l),
(366,673,l),
(743,1090,l),
(1470,0,l,{
name = hr00;
})
);
}
);
width = 1690;
},
{
anchors = (
{
name = bottom;
pos = (915,0);
},
{
name = top;
pos = (893,1966);
}
);
layerId = "D7CFBB37-D300-46E8-A355-ECFF19545BAA";
shapes = (
{
closed = 1;
nodes = (
(1698,0,l),
(1081,1135,l),
(1670,1966,l),
(1197,1966,l),
(850,1470,l),
(636,1143,l),
(614,1143,l),
(614,1966,l),
(191,1966,l),
(191,0,l),
(614,0,l),
(614,574,l),
(788,819,l),
(1222,0,l,{
name = hr00;
})
);
}
);
width = 1690;
},
{
anchors = (
{
name = bottom;
pos = (907,0);
},
{
name = top;
pos = (881,1966);
}
);
layerId = "661A777E-9960-44AA-8623-3AD7C626B4F3";
shapes = (
{
closed = 1;
nodes = (
(1628,0,l),
(918,1138,l),
(1608,1966,l),
(1324,1966,l),
(743,1267,l),
(484,941,l),
(476,941,l),
(476,1966,l),
(239,1966,l),
(239,0,l),
(476,0,l),
(476,631,l),
(758,963,l),
(1352,0,l,{
name = hr00;
})
);
}
);
width = 1690;
}
);
unicode = 75;
}
{
glyphname = L;
layers = (
{
anchors = (
{
name = bottom;
pos = (949,0);
},
{
name = top;
pos = (439,1966);
},
{
name = topright;
pos = (769,2084);
}
);
layerId = master01;
shapes = (
{
closed = 1;
nodes = (
(1487,56,l),
(473,56,l),
(473,1966,l),
(411,1966,l),
(411,0,l),
(1487,0,l,{
name = hr00;
})
);
}
);
width = 1690;
},
{
anchors = (
{
name = bottom;
pos = (893,0);
},
{
name = top;
pos = (470,1966);
},
{
name = topright;
pos = (901,2084);
}
);
layerId = "D7CFBB37-D300-46E8-A355-ECFF19545BAA";
shapes = (
{
closed = 1;
nodes = (
(1529,346,l),
(684,346,l),
(684,1966,l),
(259,1966,l),
(259,0,l),
(1529,0,l,{
name = hr00;
})
);
}
);
width = 1690;
},
{
anchors = (
{
name = bottom;
pos = (921,0);
},
{
name = top;
pos = (456,1966);
},
{
name = topright;
pos = (817,2084);
}
);
layerId = "661A777E-9960-44AA-8623-3AD7C626B4F3";
shapes = (
{
closed = 1;
nodes = (
(1507,206,l),
(574,206,l),
(574,1966,l),
(338,1966,l),
(338,0,l),
(1507,0,l,{
name = hr00;
})
);
}
);
width = 1690;
}
);
unicode = 76;
}
{
glyphname = M;
layers = (
{
anchors = (
{
name = bottom;
pos = (845,0);
},
{
name = top;
pos = (845,1966);
}
);
layerId = master01;
shapes = (
{
closed = 1;
nodes = (
(1450,0,l),
(1450,1966,l),
(1360,1966,l),
(850,831,l),
(842,831,l),
(329,1966,l),
(239,1966,l),
(239,0,l),
(298,0,l),
(298,1315,l),
(298,1878,l),
(307,1878,l),
(845,690,l),
(1383,1878,l),
(1391,1878,l),
(1391,1357,l),
(1391,0,l,{
name = hr00;
})
);
}
);
width = 1690;
},
{
anchors = (
{
name = bottom;
pos = (845,0);
},
{
name = top;
pos = (845,1966);
}
);
layerId = "D7CFBB37-D300-46E8-A355-ECFF19545BAA";
shapes = (
{
closed = 1;
nodes = (
(1580,0,l),
(1580,1966,l),
(1115,1966,l),
(873,1304,l),
(850,1304,l),
(608,1966,l),
(110,1966,l),
(110,0,l),
(476,0,l),
(476,876,l),
(453,1425,l),
(479,1425,l),
(845,414,l),
(1211,1425,l),
(1236,1425,l),
(1214,876,l),
(1214,0,l,{
name = hr00;
})
);
}
);
width = 1690;
},
{
anchors = (
{
name = bottom;
pos = (845,0);
},
{
name = top;
pos = (845,1966);
}
);
layerId = "661A777E-9960-44AA-8623-3AD7C626B4F3";
shapes = (
{
closed = 1;
nodes = (
(1498,0,l),
(1498,1966,l),
(1205,1966,l),
(859,1098,l),
(842,1098,l),
(496,1966,l),
(191,1966,l),
(191,0,l),
(408,0,l),
(408,986,l),
(408,1608,l),
(431,1608,l),
(845,597,l),
(1259,1608,l),
(1281,1608,l),
(1281,986,l),
(1281,0,l,{
name = hr00;
})
);
}
);
width = 1690;
}
);
unicode = 77;
}
{
glyphname = Q;
layers = (
{
anchors = (
{
name = top;
pos = (845,1966);
}
);
layerId = master01;
shapes = (
{
closed = 1;
nodes = (
(876,-327,l),
(876,-34,l),
(1267,-17,o),
(1490,279,o),
(1490,983,cs),
(1490,1704,o),
(1256,1999,o),
(845,1999,cs),
(434,1999,o),
(200,1704,o),
(200,983,cs),
(200,279,o),
(420,-17,o),
(814,-34,c),
(814,-301,ls),
(814,-358,o),
(842,-383,o),
(898,-383,c),
(1338,-383,l),
(1338,-327,l,{
name = hr00;
})
);
},
{
closed = 1;
nodes = (
(470,23,o),
(268,315,o),
(268,893,cs),
(268,1073,ls),
(268,1650,o),
(470,1943,o),
(845,1943,cs),
(1219,1943,o),
(1422,1650,o),
(1422,1073,cs),
(1422,893,ls),
(1422,315,o),
(1219,23,o),
(845,23,cs)
);
}
);
width = 1690;
},
{
anchors = (
{
name = top;
pos = (845,1966);
}
);
layerId = "D7CFBB37-D300-46E8-A355-ECFF19545BAA";
shapes = (
{
closed = 1;
nodes = (
(1028,-237,l),
(1028,-17,l),
(1428,62,o),
(1614,420,o),
(1614,983,cs),
(1614,1625,o),
(1371,1999,o),
(845,1999,cs),
(318,1999,o),
(76,1625,o),
(76,983,cs),
(76,420,o),
(262,62,o),
(662,-17,c),
(662,-132,ls),
(662,-377,o),
(777,-538,o),
(1081,-538,cs),
(1481,-538,l),
(1481,-237,l,{
name = hr00;
})
);
},
{
closed = 1;
nodes = (
(605,307,o),
(527,496,o),
(527,811,cs),
(527,1155,ls),
(527,1470,o),
(605,1659,o),
(845,1659,cs),
(1084,1659,o),
(1163,1470,o),
(1163,1155,cs),
(1163,814,ls),
(1163,496,o),
(1084,307,o),
(845,307,cs)
);
}
);
width = 1690;
},
{
anchors = (
{
name = top;
pos = (845,1966);
}
);
layerId = "661A777E-9960-44AA-8623-3AD7C626B4F3";
shapes = (
{
closed = 1;
nodes = (
(957,-270,l),
(957,-25,l),
(1354,28,o),
(1532,394,o),
(1532,983,cs),
(1532,1625,o),
(1324,1999,o),
(845,1999,cs),
(366,1999,o),
(158,1625,o),
(158,983,cs),
(158,394,o),
(332,28,o),
(732,-25,c),
(732,-130,ls),
(732,-324,o),
(834,-462,o),
(1053,-462,cs),
(1383,-462,l),
(1383,-270,l,{
name = hr00;
})
);
},
{
closed = 1;
nodes = (
(532,172,o),
(408,428,o),
(408,822,cs),
(408,1143,ls),
(408,1538,o),
(532,1794,o),
(845,1794,cs),
(1157,1794,o),
(1281,1538,o),
(1281,1143,cs),
(1281,822,ls),
(1281,428,o),
(1157,172,o),
(845,172,cs)
);
}
);
width = 1690;
}
);
unicode = 81;
}
{
glyphname = R;
layers = (
{
anchors = (
{
name = bottom;
pos = (850,0);
},
{
name = top;
pos = (842,1966);
}
);
layerId = master01;
shapes = (
{
closed = 1;
nodes = (
(814,907,l),
(1394,0,l),
(1467,0,l),
(884,907,l),
(921,907,o),
(955,907,o),
(991,907,cs),
(1312,907,o),
(1481,1115,o),
(1481,1436,cs),
(1481,1757,o),
(1312,1966,o),
(991,1966,cs),
(304,1966,l),
(304,0,l),
(366,0,l),
(366,907,l,{
name = hr00;
})
);
},
{
closed = 1;
nodes = (
(366,1909,l),
(991,1909,ls),
(1281,1909,o),
(1414,1709,o),
(1414,1495,cs),
(1414,1377,ls),
(1414,1163,o),
(1281,963,o),
(991,963,cs),
(366,963,l)
);
}
);
width = 1690;
},
{
anchors = (
{
name = bottom;
pos = (887,0);
},
{
name = top;
pos = (856,1966);
}
);
layerId = "D7CFBB37-D300-46E8-A355-ECFF19545BAA";
shapes = (
{
closed = 1;
nodes = (
(825,729,l),
(1155,0,l),
(1616,0,l),
(1231,786,l),
(1332,814,o),
(1414,876,o),
(1473,960,cs),
(1540,1062,o),
(1577,1191,o),
(1577,1340,cs),
(1577,1721,o),
(1360,1966,o),
(974,1966,cs),
(214,1966,l),
(214,0,l),
(631,0,l),
(631,729,l,{
name = hr00;
})
);
},
{
closed = 1;
nodes = (
(631,1625,l),
(873,1625,ls),
(1070,1625,o),
(1138,1554,o),
(1138,1383,cs),
(1138,1298,ls),
(1138,1126,o),
(1070,1056,o),
(873,1056,cs),
(631,1056,l)
);
}
);
width = 1690;
},
{
anchors = (
{
name = bottom;
pos = (867,0);
},
{
name = top;
pos = (867,1966);
}
);
layerId = "661A777E-9960-44AA-8623-3AD7C626B4F3";
shapes = (
{
closed = 1;
nodes = (
(803,839,l),
(1281,0,l),
(1546,0,l),
(1045,850,l),
(1217,867,o),
(1346,938,o),
(1428,1048,cs),
(1495,1138,o),
(1529,1259,o),
(1529,1400,cs),
(1529,1754,o),
(1332,1966,o),
(969,1966,cs),
(253,1966,l),
(253,0,l),
(490,0,l),
(490,839,l,{
name = hr00;
})
);
},
{
closed = 1;
nodes = (
(490,1760,l),
(963,1760,ls),
(1160,1760,o),
(1278,1656,o),
(1278,1473,cs),
(1278,1326,ls),
(1278,1143,o),
(1160,1039,o),
(963,1039,cs),
(490,1039,l)
);
}
);
width = 1690;
}
);
unicode = 82;
}
{
glyphname = S;
layers = (
{
anchors = (
{
name = bottom;
pos = (850,0);
},
{
name = top;
pos = (822,1966);
}
);
layerId = master01;
shapes = (
{
closed = 1;
nodes = (
(1239,-34,o),
(1484,146,o),
(1484,498,cs),
(1484,729,o),
(1385,952,o),
(972,1019,cs),
(746,1056,ls),
(501,1095,o),
(293,1200,o),
(293,1507,cs),
(293,1799,o),
(498,1943,o),
(836,1943,cs),
(1118,1943,o),
(1290,1856,o),
(1405,1687,c),
(1453,1726,l),
(1343,1887,o),
(1163,1999,o),
(842,1999,cs),
(473,1999,o),
(231,1839,o),
(231,1507,cs),
(231,1276,o),
(338,1062,o),
(735,997,cs),
(960,960,ls),
(1202,921,o),
(1422,822,o),
(1422,496,cs),
(1422,186,o),
(1214,23,o),
(856,23,cs),
(535,23,o),
(375,144,o),
(237,324,c),
(186,287,l),
(327,101,o),
(510,-34,o),
(856,-34,cs,{
name = hr00;
})
);
}
);
width = 1690;
},
{
anchors = (
{
name = bottom;
pos = (822,0);
},
{
name = top;
pos = (859,1966);
}
);
layerId = "D7CFBB37-D300-46E8-A355-ECFF19545BAA";
shapes = (
{
closed = 1;
nodes = (
(1307,-34,o),
(1566,237,o),
(1566,605,cs),
(1566,915,o),
(1383,1101,o),
(1067,1157,cs),
(862,1194,ls),
(670,1228,o),
(591,1287,o),
(591,1422,cs),
(591,1577,o),
(687,1656,o),
(876,1656,cs),
(1053,1656,o),
(1200,1585,o),
(1304,1470,c),
(1543,1737,l),
(1405,1898,o),
(1174,1999,o),
(873,1999,cs),
(428,1999,o),
(166,1780,o),
(166,1402,cs),
(166,1115,o),
(315,898,o),
(667,839,cs),
(873,805,ls),
(1064,774,o),
(1138,710,o),
(1138,572,cs),
(1138,403,o),
(1028,310,o),
(828,310,cs),
(653,310,o),
(476,383,o),
(332,541,c),
(87,270,l),
(237,84,o),
(487,-34,o),
(814,-34,cs,{
name = hr00;
})
);
}
);
width = 1690;
},
{
anchors = (
{
name = bottom;
pos = (836,0);
},
{
name = top;
pos = (839,1966);
}
);
layerId = "661A777E-9960-44AA-8623-3AD7C626B4F3";
shapes = (
{
closed = 1;
nodes = (
(1276,-34,o),
(1526,186,o),
(1526,549,cs),
(1526,805,o),
(1400,1019,o),
(1014,1087,cs),
(803,1124,ls),
(524,1171,o),
(434,1284,o),
(434,1459,cs),
(434,1681,o),
(583,1797,o),
(848,1797,cs),
(1093,1797,o),
(1233,1698,o),
(1343,1554,c),
(1509,1698,l),
(1377,1887,o),
(1163,1999,o),
(850,1999,cs),
(451,1999,o),
(194,1814,o),
(194,1453,cs),
(194,1205,o),
(315,983,o),
(701,918,cs),
(921,881,ls),
(1188,836,o),
(1287,735,o),
(1287,543,cs),
(1287,307,o),
(1132,169,o),
(848,169,cs),
(611,169,o),
(451,262,o),
(298,453,c),
(127,313,l),
(273,110,o),
(487,-34,o),
(839,-34,cs,{
name = hr00;
})
);
}
);
width = 1690;
}
);
unicode = 83;
}
{
glyphname = W;
layers = (
{
anchors = (
{
name = bottom;
pos = (845,0);
},
{
name = top;
pos = (845,1966);
}
);
layerId = master01;
shapes = (
{
closed = 1;
nodes = (
(842,1278,l),
(850,1278,l),
(1228,0,l),
(1335,0,l),
(1526,1966,l),
(1470,1966,l),
(1377,1005,l),
(1284,62,l),
(1273,62,l),
(884,1363,l),
(808,1363,l),
(420,62,l),
(408,62,l),
(321,960,l),
(222,1966,l),
(163,1966,l),
(355,0,l),
(462,0,l,{
name = hr00;
})
);
}
);
width = 1690;
},
{
anchors = (
{
name = bottom;
pos = (845,0);
},
{
name = top;
pos = (845,1966);
}
);
layerId = "D7CFBB37-D300-46E8-A355-ECFF19545BAA";
shapes = (
{
closed = 1;
nodes = (
(831,1084,l),
(859,1084,l),
(1002,0,l),
(1538,0,l),
(1659,1966,l),
(1309,1966,l),
(1253,777,l),
(1236,417,l),
(1211,417,l),
(1042,1538,l),
(662,1538,l),
(493,417,l),
(467,417,l),
(451,788,l),
(394,1966,l),
(31,1966,l),
(152,0,l),
(687,0,l,{
name = hr00;
})
);
}
);
width = 1690;
},
{
anchors = (
{
name = bottom;
pos = (845,0);
},
{
name = top;
pos = (845,1966);
}
);
layerId = "661A777E-9960-44AA-8623-3AD7C626B4F3";
shapes = (
{
closed = 1;
nodes = (
(834,1174,l),
(856,1174,l),
(1095,0,l),
(1436,0,l),
(1591,1966,l),
(1385,1966,l),
(1304,839,l),
(1262,245,l),
(1239,245,l),
(980,1453,l),
(715,1453,l),
(456,245,l),
(434,245,l),
(391,839,l),
(310,1966,l),
(99,1966,l),
(253,0,l),
(594,0,l,{
name = hr00;
})
);
}
);
width = 1690;
}
);
unicode = 87;
}
{
glyphname = X;
layers = (
{
anchors = (
{
name = bottom;
pos = (845,0);
},
{
name = top;
pos = (845,1966);
}
);
layerId = master01;
shapes = (
{
closed = 1;
nodes = (
(1526,1966,l),
(1453,1966,l),
(1152,1512,l),
(850,1056,l),
(842,1056,l),
(558,1487,l),
(239,1966,l),
(163,1966,l),
(808,997,l),
(138,0,l),
(211,0,l),
(586,563,l),
(842,946,l),
(850,946,l),
(1076,605,l),
(1476,0,l),
(1552,0,l),
(884,1005,l,{
name = hr00;
})
);
}
);
width = 1690;
},
{
anchors = (
{
name = bottom;
pos = (845,0);
},
{
name = top;
pos = (845,1966);
}
);
layerId = "D7CFBB37-D300-46E8-A355-ECFF19545BAA";
shapes = (
{
closed = 1;
nodes = (
(1628,1966,l),
(1186,1966,l),
(1017,1653,l),
(870,1338,l),
(848,1338,l),
(704,1653,l),
(543,1966,l),
(62,1966,l),
(577,1017,l),
(25,0,l),
(467,0,l),
(676,391,l),
(817,701,l),
(842,701,l),
(980,391,l),
(1183,0,l),
(1664,0,l),
(1112,1011,l,{
name = hr00;
})
);
}
);
width = 1690;
},
{
anchors = (
{
name = bottom;
pos = (845,0);
},
{
name = top;
pos = (845,1966);
}
);
layerId = "661A777E-9960-44AA-8623-3AD7C626B4F3";
shapes = (
{
closed = 1;
nodes = (
(1599,1966,l),
(1340,1966,l),
(1104,1585,l),
(862,1188,l),
(850,1188,l),
(605,1585,l),
(377,1966,l),
(110,1966,l),
(715,1002,l),
(73,0,l),
(332,0,l),
(580,391,l),
(848,819,l),
(859,819,l),
(1118,391,l),
(1352,0,l),
(1619,0,l),
(991,1005,l,{
name = hr00;
})
);
}
);
width = 1690;
}
);
unicode = 88;
}
{
glyphname = grave;
layers = (
{
anchors = (
{
name = _top;
pos = (845,1453);
}
);
layerId = master01;
shapes = (
{
closed = 1;
nodes = (
(935,1709,l),
(622,2143,l),
(569,2109,l),
(893,1681,l,{
name = hr00;
})
);
}
);
width = 1690;
},
{
anchors = (
{
name = _top;
pos = (845,1453);
}
);
layerId = "D7CFBB37-D300-46E8-A355-ECFF19545BAA";
shapes = (
{
closed = 1;
nodes = (
(1048,1726,l),
(769,2273,l),
(422,2101,l),
(800,1605,l,{
name = hr00;
})
);
}
);
width = 1690;
},
{
anchors = (
{
name = _top;
pos = (845,1453);
}
);
layerId = "661A777E-9960-44AA-8623-3AD7C626B4F3";
shapes = (
{
closed = 1;
nodes = (
(972,1715,l),
(732,2194,l),
(527,2095,l),
(825,1647,l,{
name = hr00;
})
);
}
);
width = 1690;
}
);
unicode = 96;
}
{
glyphname = c;
layers = (
{
anchors = (
{
name = bottom;
pos = (890,0);
},
{
name = top;
pos = (901,1453);
}
);
layerId = master01;
shapes = (
{
closed = 1;
nodes = (
(1169,-34,o),
(1343,113,o),
(1416,287,c),
(1366,310,l),
(1287,135,o),
(1132,20,o),
(907,20,cs),
(566,20,o),
(375,265,o),
(375,659,cs),
(375,794,ls),
(375,1188,o),
(566,1433,o),
(907,1433,cs),
(1121,1433,o),
(1273,1335,o),
(1343,1155,c),
(1397,1171,l),
(1332,1354,o),
(1160,1487,o),
(907,1487,cs),
(532,1487,o),
(310,1231,o),
(310,727,cs),
(310,222,o),
(532,-34,o),
(907,-34,cs,{
name = hr00;
})
);
}
);
width = 1690;
},
{
anchors = (
{
name = bottom;
pos = (848,0);
},
{
name = top;
pos = (884,1453);
}
);
layerId = "D7CFBB37-D300-46E8-A355-ECFF19545BAA";
shapes = (
{
closed = 1;
nodes = (
(1228,-34,o),
(1425,110,o),
(1529,321,c),
(1214,501,l),
(1152,383,o),
(1067,298,o),
(907,298,cs),
(710,298,o),
(603,417,o),
(603,608,cs),
(603,845,ls),
(603,1036,o),
(712,1155,o),
(901,1155,cs),
(1056,1155,o),
(1135,1070,o),
(1186,957,c),
(1507,1132,l),
(1405,1343,o),
(1219,1487,o),
(901,1487,cs),
(448,1487,o),
(169,1197,o),
(169,727,cs),
(169,256,o),
(445,-34,o),
(904,-34,cs,{
name = hr00;
})
);
}
);
width = 1690;
},
{
anchors = (
{
name = bottom;
pos = (853,0);
},
{
name = top;
pos = (881,1453);
}
);
layerId = "661A777E-9960-44AA-8623-3AD7C626B4F3";
shapes = (
{
closed = 1;
nodes = (
(1186,-34,o),
(1369,110,o),
(1453,304,c),
(1293,414,l),
(1219,256,o),
(1093,161,o),
(898,161,cs),
(625,161,o),
(479,346,o),
(479,603,cs),
(479,850,ls),
(479,1107,o),
(628,1293,o),
(893,1293,cs),
(1073,1293,o),
(1197,1205,o),
(1250,1056,c),
(1431,1152,l),
(1349,1349,o),
(1174,1487,o),
(893,1487,cs),
(482,1487,o),
(237,1188,o),
(237,727,cs),
(237,268,o),
(479,-34,o),
(895,-34,cs,{
name = hr00;
})
);
}
);
width = 1690;
}
);
unicode = 99;
}
{
glyphname = h;
layers = (
{
anchors = (
{
name = bottom;
pos = (859,0);
},
{
name = top;
pos = (389,1966);
}
);
layerId = master01;
shapes = (
{
closed = 1;
nodes = (
(417,0,l),
(417,1048,ls),
(417,1307,o),
(628,1433,o),
(862,1433,cs),
(1143,1433,o),
(1301,1284,o),
(1301,938,cs),
(1301,0,l),
(1360,0,l),
(1360,946,ls),
(1360,1298,o),
(1191,1487,o),
(870,1487,cs),
(614,1487,o),
(476,1369,o),
(425,1245,c),
(417,1245,l),
(417,2084,l),
(358,2084,l),
(358,0,l,{
name = hr00;
})
);
}
);
width = 1690;
},
{
anchors = (
{
name = bottom;
pos = (850,0);
},
{
name = top;
pos = (391,1966);
}
);
layerId = "D7CFBB37-D300-46E8-A355-ECFF19545BAA";
shapes = (
{
closed = 1;
nodes = (
(600,0,l),
(600,955,l),
(600,1095,o),
(727,1166,o),
(856,1166,cs),
(1019,1166,o),
(1101,1067,o),
(1101,884,cs),
(1101,0,l),
(1518,0,l),
(1518,941,ls),
(1518,1293,o),
(1324,1487,o),
(1045,1487,cs),
(811,1487,o),
(681,1352,o),
(617,1188,c),
(600,1188,l),
(600,2084,l),
(183,2084,l),
(183,0,l,{
name = hr00;
})
);
}
);
width = 1690;
},
{
anchors = (
{
name = bottom;
pos = (853,0);
},
{
name = top;
pos = (389,1966);
}
);
layerId = "661A777E-9960-44AA-8623-3AD7C626B4F3";
shapes = (
{
closed = 1;
nodes = (
(501,0,l),
(501,1008,l),
(501,1200,o),
(681,1287,o),
(862,1287,cs),
(1084,1287,o),
(1205,1157,o),
(1205,893,cs),
(1205,0,l),
(1431,0,l),
(1431,932,ls),
(1431,1284,o),
(1231,1487,o),
(926,1487,cs),
(687,1487,o),
(574,1360,o),
(513,1217,c),
(501,1217,l),
(501,2084,l),
(276,2084,l),
(276,0,l,{
name = hr00;
})
);
}
);
width = 1690;
}
);
unicode = 104;
}
{
glyphname = i;
layers = (
{
anchors = (
{
name = bottom;
pos = (935,0);
},
{
name = bottomright;
pos = (1507,0);
}
);
layerId = master01;
shapes = (
{
closed = 1;
nodes = (
(994,1946,o),
(1017,1974,o),
(1017,2011,cs),
(1017,2033,ls),
(1017,2070,o),
(994,2098,o),
(935,2098,cs),
(876,2098,o),
(853,2070,o),
(853,2033,cs),
(853,2011,ls),
(853,1974,o),
(876,1946,o),
(935,1946,cs)
);
},
{
closed = 1;
nodes = (
(1507,0,l),
(1507,54,l),
(966,54,l,{
name = hr01;
}),
(966,1453,l),
(329,1453,l),
(329,1400,l),
(907,1400,l),
(907,54,l),
(329,54,l),
(329,0,l)
);
}
);
width = 1690;
},
{
anchors = (
{
name = bottom;
pos = (935,0);
},
{
name = bottomright;
pos = (1571,0);
}
);
layerId = "D7CFBB37-D300-46E8-A355-ECFF19545BAA";
shapes = (
{
closed = 1;
nodes = (
(1121,1639,o),
(1186,1726,o),
(1186,1836,cs),
(1186,1918,ls),
(1186,2030,o),
(1121,2115,o),
(935,2115,cs),
(749,2115,o),
(684,2030,o),
(684,1918,cs),
(684,1836,ls),
(684,1726,o),
(749,1639,o),
(935,1639,cs)
);
},
{
closed = 1;
nodes = (
(1571,0,l),
(1571,324,l),
(1143,324,l,{
name = hr01;
}),
(1143,1453,l),
(265,1453,l),
(265,1129,l),
(727,1129,l),
(727,324,l),
(265,324,l),
(265,0,l)
);
}
);
width = 1690;
},
{
anchors = (
{
name = bottom;
pos = (935,0);
},
{
name = bottomright;
pos = (1538,0);
}
);
layerId = "661A777E-9960-44AA-8623-3AD7C626B4F3";
shapes = (
{
closed = 1;
nodes = (
(1064,1774,o),
(1112,1836,o),
(1112,1918,cs),
(1112,1963,ls),
(1112,2044,o),
(1064,2106,o),
(935,2106,cs),
(805,2106,o),
(758,2044,o),
(758,1963,cs),
(758,1918,ls),
(758,1836,o),
(805,1774,o),
(935,1774,cs)
);
},
{
closed = 1;
nodes = (
(1538,0,l),
(1538,191,l),
(1048,191,l,{
name = hr01;
}),
(1048,1453,l),
(298,1453,l),
(298,1262,l),
(822,1262,l),
(822,191,l),
(298,191,l),
(298,0,l)
);
}
);
width = 1690;
}
);
unicode = 105;
}
{
glyphname = k;
layers = (
{
anchors = (
{
name = bottom;
pos = (949,0);
}
);
layerId = master01;
shapes = (
{
closed = 1;
nodes = (
(451,0,l),
(451,541,l),
(803,845,l),
(1507,0,l),
(1580,0,l),
(848,884,l),
(1501,1453,l),
(1422,1453,l),
(791,907,l),
(459,617,l),
(451,617,l),
(451,2084,l),
(391,2084,l),
(391,0,l,{
name = hr00;
})
);
}
);
width = 1690;
},
{
anchors = (
{
name = bottom;
pos = (867,0);
}
);
layerId = "D7CFBB37-D300-46E8-A355-ECFF19545BAA";
shapes = (
{
closed = 1;
nodes = (
(600,0,l),
(600,504,l),
(738,642,l),
(1160,0,l),
(1656,0,l),
(1033,879,l),
(1597,1453,l),
(1118,1453,l),
(814,1129,l),
(620,901,l),
(600,901,l),
(600,2084,l),
(183,2084,l),
(183,0,l,{
name = hr00;
})
);
}
);
width = 1690;
},
{
anchors = (
{
name = bottom;
pos = (910,0);
}
);
layerId = "661A777E-9960-44AA-8623-3AD7C626B4F3";
shapes = (
{
closed = 1;
nodes = (
(521,0,l),
(521,527,l),
(772,755,l),
(1338,0,l),
(1616,0,l),
(943,884,l),
(1546,1453,l),
(1270,1453,l),
(786,1008,l),
(532,769,l),
(521,769,l),
(521,2084,l),
(296,2084,l),
(296,0,l,{
name = hr00;
})
);
}
);
width = 1690;
}
);
unicode = 107;
}
{
glyphname = m;
layers = (
{
anchors = (
{
name = bottom;
pos = (845,0);
},
{
name = top;
pos = (845,1453);
}
);
layerId = master01;
shapes = (
{
closed = 1;
nodes = (
(265,1081,ls),
(265,1318,o),
(408,1433,o),
(566,1433,cs),
(727,1433,o),
(817,1335,o),
(817,1118,cs),
(817,0,l),
(876,0,l),
(876,1081,ls),
(876,1318,o),
(1017,1433,o),
(1177,1433,cs),
(1338,1433,o),
(1428,1335,o),
(1428,1118,cs),
(1428,0,l),
(1487,0,l),
(1487,1126,ls),
(1487,1360,o),
(1383,1487,o),
(1183,1487,cs),
(1008,1487,o),
(910,1385,o),
(867,1256,c),
(862,1256,l),
(834,1405,o),
(732,1487,o),
(572,1487,cs),
(408,1487,o),
(315,1400,o),
(273,1281,c),
(265,1281,l),
(265,1453,l,{
name = hr01;
}),
(206,1453,l),
(206,0,l),
(265,0,l)
);
}
);
width = 1690;
},
{
anchors = (
{
name = bottom;
pos = (845,0);
},
{
name = top;
pos = (845,1453);
}
);
layerId = "D7CFBB37-D300-46E8-A355-ECFF19545BAA";
shapes = (
{
closed = 1;
nodes = (
(420,1036,l),
(420,1135,o),
(479,1180,o),
(555,1180,cs),
(628,1180,o),
(676,1132,o),
(676,997,cs),
(676,0,l),
(1014,0,l),
(1014,1036,l),
(1014,1135,o),
(1073,1180,o),
(1143,1180,cs),
(1219,1180,o),
(1270,1132,o),
(1270,997,cs),
(1270,0,l),
(1605,0,l),
(1605,1039,ls),
(1605,1338,o),
(1504,1487,o),
(1301,1487,cs),
(1121,1487,o),
(1039,1371,o),
(991,1239,c),
(974,1239,l),
(943,1400,o),
(853,1487,o),
(715,1487,cs),
(560,1487,o),
(484,1374,o),
(439,1239,c),
(420,1239,l),
(420,1453,l,{
name = hr01;
}),
(84,1453,l),
(84,0,l),
(420,0,l)
);
}
);
width = 1690;
},
{
anchors = (
{
name = bottom;
pos = (845,0);
},
{
name = top;
pos = (845,1453);
}
);
layerId = "661A777E-9960-44AA-8623-3AD7C626B4F3";
shapes = (
{
closed = 1;
nodes = (
(360,1067,l),
(360,1222,o),
(445,1301,o),
(566,1301,cs),
(698,1301,o),
(741,1219,o),
(741,972,cs),
(741,0,l),
(949,0,l),
(949,1067,l),
(949,1222,o),
(1033,1301,o),
(1152,1301,cs),
(1287,1301,o),
(1329,1219,o),
(1329,972,cs),
(1329,0,l),
(1538,0,l),
(1538,1008,ls),
(1538,1315,o),
(1476,1487,o),
(1239,1487,cs),
(1067,1487,o),
(977,1391,o),
(924,1259,c),
(915,1259,l),
(898,1394,o),
(817,1487,o),
(650,1487,cs),
(490,1487,o),
(417,1397,o),
(372,1284,c),
(360,1284,l),
(360,1453,l,{
name = hr01;
}),
(152,1453,l),
(152,0,l),
(360,0,l)
);
}
);
width = 1690;
}
);
unicode = 109;
}
{
glyphname = r;
layers = (
{
anchors = (
{
name = bottom;
pos = (758,0);
},
{
name = top;
pos = (1064,1453);
}
);
layerId = master01;
shapes = (
{
closed = 1;
nodes = (
(1343,0,l),
(1343,54,l),
(786,54,l),
(786,932,ls),
(786,1253,o),
(1000,1400,o),
(1231,1400,cs),
(1566,1400,l),
(1566,1453,l),
(1242,1453,ls),
(977,1453,o),
(859,1326,o),
(794,1171,c),
(786,1171,l),
(786,1453,l),
(225,1453,l),
(225,1400,l),
(727,1400,l),
(727,54,l),
(225,54,l),
(225,0,l,{
name = hr00;
})
);
}
);
width = 1690;
},
{
anchors = (
{
name = bottom;
pos = (752,0);
},
{
name = top;
pos = (915,1453);
}
);
layerId = "D7CFBB37-D300-46E8-A355-ECFF19545BAA";
shapes = (
{
closed = 1;
nodes = (
(1324,0,l),
(1324,324,l),
(960,324,l),
(960,755,ls),
(960,929,o),
(1067,1070,o),
(1273,1070,cs),
(1583,1070,l),
(1583,1453,l),
(1445,1453,ls),
(1157,1453,o),
(1033,1256,o),
(980,1042,c),
(960,1042,l),
(960,1453,l),
(208,1453,l),
(208,1129,l,{
name = hr01;
}),
(543,1129,l),
(543,324,l),
(208,324,l),
(208,0,l)
);
}
);
width = 1690;
},
{
anchors = (
{
name = bottom;
pos = (755,0);
},
{
name = top;
pos = (994,1453);
}
);
layerId = "661A777E-9960-44AA-8623-3AD7C626B4F3";
shapes = (
{
closed = 1;
nodes = (
(1321,0,l),
(1321,191,l),
(867,191,l),
(867,819,ls),
(867,1045,o),
(1017,1228,o),
(1301,1228,cs),
(1574,1228,l),
(1574,1453,l),
(1371,1453,ls),
(1067,1453,o),
(938,1278,o),
(881,1087,c),
(867,1087,l),
(867,1453,l),
(217,1453,l),
(217,1262,l,{
name = hr01;
}),
(642,1262,l),
(642,191,l),
(217,191,l),
(217,0,l)
);
}
);
width = 1690;
}
);
unicode = 114;
}
{
glyphname = x;
layers = (
{
anchors = (
{
name = bottom;
pos = (845,0);
},
{
name = top;
pos = (845,1453);
}
);
layerId = master01;
shapes = (
{
closed = 1;
nodes = (
(639,420,l),
(842,684,l),
(848,684,l),
(1042,425,l),
(1366,0,l),
(1439,0,l),
(881,732,l),
(1431,1453,l),
(1360,1453,l),
(1084,1090,l),
(848,780,l),
(842,780,l),
(614,1079,l),
(332,1453,l),
(259,1453,l),
(808,729,l),
(251,0,l),
(321,0,l,{
name = hr00;
})
);
}
);
width = 1690;
},
{
anchors = (
{
name = bottom;
pos = (845,0);
},
{
name = top;
pos = (845,1453);
}
);
layerId = "D7CFBB37-D300-46E8-A355-ECFF19545BAA";
shapes = (
{
closed = 1;
nodes = (
(690,273,l),
(814,467,l),
(836,467,l),
(963,273,l),
(1146,0,l),
(1625,0,l),
(1081,760,l),
(1588,1453,l),
(1152,1453,l),
(994,1219,l),
(873,1031,l),
(850,1031,l),
(732,1219,l),
(577,1453,l),
(101,1453,l),
(608,738,l),
(65,0,l),
(504,0,l,{
name = hr00;
})
);
}
);
width = 1690;
},
{
anchors = (
{
name = bottom;
pos = (845,0);
},
{
name = top;
pos = (845,1453);
}
);
layerId = "661A777E-9960-44AA-8623-3AD7C626B4F3";
shapes = (
{
closed = 1;
nodes = (
(667,341,l),
(828,572,l),
(839,572,l),
(1005,341,l),
(1250,0,l),
(1521,0,l),
(974,741,l),
(1507,1453,l),
(1247,1453,l),
(1031,1146,l),
(862,904,l),
(850,904,l),
(676,1146,l),
(456,1453,l),
(186,1453,l),
(712,738,l),
(172,0,l),
(431,0,l,{
name = hr00;
})
);
}
);
width = 1690;
}
);
unicode = 120;
}
{
glyphname = braceleft;
layers = (
{
layerId = master01;
shapes = (
{
closed = 1;
nodes = (
(1363,-338,l),
(803,-338,l),
(803,-6,ls),
(803,208,o),
(884,287,o),
(924,338,cs),
(1019,456,o),
(1045,521,o),
(1045,594,cs),
(1045,763,o),
(904,859,o),
(710,873,c),
(710,879,l),
(904,893,o),
(1045,988,o),
(1045,1157,cs),
(1045,1231,o),
(1019,1295,o),
(924,1414,cs),
(884,1464,o),
(803,1543,o),
(803,1757,cs),
(803,2089,l),
(1363,2089,l),
(1363,2140,l),
(828,2140,ls),
(772,2140,o),
(746,2115,o),
(746,2058,cs),
(746,1757,ls),
(746,1538,o),
(836,1442,o),
(879,1388,cs),
(969,1276,o),
(988,1225,o),
(988,1160,cs),
(988,983,o),
(822,901,o),
(518,901,cs),
(327,901,l),
(327,850,l),
(518,850,ls),
(822,850,o),
(988,769,o),
(988,591,cs),
(988,527,o),
(969,476,o),
(879,363,cs),
(836,310,o),
(746,214,o),
(746,-6,cs),
(746,-307,ls),
(746,-363,o),
(772,-389,o),
(828,-389,cs),
(1363,-389,l,{
name = hr00;
})
);
}
);
width = 1690;
},
{
layerId = "D7CFBB37-D300-46E8-A355-ECFF19545BAA";
shapes = (
{
closed = 1;
nodes = (
(1431,-110,l),
(910,-110,l),
(910,25,ls),
(910,166,o),
(966,228,o),
(1022,301,cs),
(1087,380,o),
(1155,467,o),
(1155,586,cs,{
name = hr01;
}),
(1155,741,o),
(1048,839,o),
(822,865,c),
(822,887,l),
(1048,912,o),
(1155,1011,o),
(1155,1166,cs),
(1155,1284,o),
(1087,1371,o),
(1022,1450,cs),
(966,1523,o),
(910,1585,o),
(910,1726,cs,{
name = hr02;
}),
(910,1861,l),
(1431,1861,l),
(1431,2140,l),
(929,2140,ls),
(673,2140,o),
(574,2013,o),
(574,1836,cs),
(574,1709,ls),
(574,1521,o),
(665,1431,o),
(732,1352,cs),
(794,1276,o),
(817,1228,o),
(817,1169,cs,{
name = hr03;
}),
(817,1073,o),
(712,1017,o),
(513,1017,cs),
(259,1017,l),
(259,735,l),
(513,735,ls),
(712,735,o),
(817,679,o),
(817,583,cs),
(817,524,o),
(794,476,o),
(732,400,cs),
(665,321,o),
(574,231,o),
(574,42,cs,{
name = hr04;
}),
(574,-84,ls),
(574,-262,o),
(673,-389,o),
(929,-389,cs),
(1431,-389,l)
);
}
);
width = 1690;
},
{
layerId = "661A777E-9960-44AA-8623-3AD7C626B4F3";
shapes = (
{
closed = 1;
nodes = (
(1394,-214,l),
(856,-214,l),
(856,3,ls),
(856,158,o),
(910,222,o),
(969,301,cs),
(1031,383,o),
(1101,467,o),
(1101,586,cs),
(1101,741,o),
(980,845,o),
(791,870,c),
(791,881,l),
(980,907,o),
(1101,1011,o),
(1101,1166,cs),
(1101,1284,o),
(1031,1369,o),
(969,1450,cs),
(910,1529,o),
(856,1594,o),
(856,1749,cs),
(856,1966,l),
(1394,1966,l),
(1394,2140,l),
(898,2140,ls),
(743,2140,o),
(662,2039,o),
(662,1909,cs),
(662,1732,ls),
(662,1529,o),
(752,1436,o),
(819,1352,cs),
(881,1276,o),
(904,1228,o),
(904,1169,cs),
(904,1028,o),
(769,963,o),
(515,963,cs),
(296,963,l),
(296,788,l),
(515,788,ls),
(769,788,o),
(904,724,o),
(904,583,cs),
(904,524,o),
(881,476,o),
(819,400,cs),
(752,315,o),
(662,222,o),
(662,20,cs),
(662,-158,ls),
(662,-287,o),
(743,-389,o),
(898,-389,cs),
(1394,-389,l,{
name = hr00;
})
);
}
);
width = 1690;
}
);
unicode = 123;
}
{
glyphname = bar;
layers = (
{
layerId = master01;
shapes = (
{
closed = 1;
nodes = (
(873,2140,l),
(817,2140,l),
(817,-389,l),
(873,-389,l,{
name = hr00;
})
);
}
);
width = 1690;
},
{
layerId = "D7CFBB37-D300-46E8-A355-ECFF19545BAA";
shapes = (
{
closed = 1;
nodes = (
(1022,2140,l),
(667,2140,l),
(667,-389,l),
(1022,-389,l,{
name = hr00;
})
);
}
);
width = 1690;
},
{
layerId = "661A777E-9960-44AA-8623-3AD7C626B4F3";
shapes = (
{
closed = 1;
nodes = (
(943,2140,l),
(746,2140,l),
(746,-389,l),
(943,-389,l,{
name = hr00;
})
);
}
);
width = 1690;
}
);
unicode = 124;
}
{
glyphname = exclamdown;
layers = (
{
layerId = master01;
shapes = (
{
closed = 1;
nodes = (
(876,284,l),
(862,957,l),
(828,957,l),
(814,284,l),
(814,-513,l),
(876,-513,l)
);
},
{
closed = 1;
nodes = (
(907,1293,o),
(941,1321,o),
(941,1369,cs,{
name = hr01;
}),
(941,1391,ls),
(941,1439,o),
(907,1467,o),
(845,1467,cs),
(783,1467,o),
(749,1439,o),
(749,1391,cs),
(749,1369,ls),
(749,1321,o),
(783,1293,o),
(845,1293,cs)
);
}
);
width = 1690;
},
{
layerId = "D7CFBB37-D300-46E8-A355-ECFF19545BAA";
shapes = (
{
closed = 1;
nodes = (
(1073,59,l),
(912,769,l),
(777,769,l),
(617,59,l),
(617,-513,l),
(1073,-513,l)
);
},
{
closed = 1;
nodes = (
(1045,960,o),
(1121,1059,o),
(1121,1177,cs,{
name = hr01;
}),
(1121,1267,ls),
(1121,1388,o),
(1045,1487,o),
(845,1487,cs),
(645,1487,o),
(569,1388,o),
(569,1267,cs),
(569,1177,ls),
(569,1059,o),
(645,960,o),
(845,960,cs)
);
}
);
width = 1690;
},
{
layerId = "661A777E-9960-44AA-8623-3AD7C626B4F3";
shapes = (
{
closed = 1;
nodes = (
(969,59,l),
(890,797,l),
(800,797,l),
(721,59,l),
(721,-513,l),
(969,-513,l)
);
},
{
closed = 1;
nodes = (
(997,1090,o),
(1053,1163,o),
(1053,1259,cs,{
name = hr01;
}),
(1053,1309,ls),
(1053,1405,o),
(997,1478,o),
(845,1478,cs),
(693,1478,o),
(636,1405,o),
(636,1309,cs),
(636,1259,ls),
(636,1163,o),
(693,1090,o),
(845,1090,c)
);
}
);
width = 1690;
}
);
unicode = 161;
}
{
glyphname = section;
layers = (
{
layerId = master01;
shapes = (
{
closed = 1;
nodes = (
(1295,110,o),
(1219,222,o),
(1087,301,c),
(1087,310,l),
(1284,383,o),
(1411,518,o),
(1411,732,cs),
(1411,988,o),
(1250,1098,o),
(991,1180,cs),
(803,1242,ls),
(620,1301,o),
(453,1388,o),
(453,1602,cs),
(453,1828,o),
(614,1946,o),
(879,1946,cs),
(1070,1946,o),
(1191,1881,o),
(1278,1799,c),
(1315,1842,l),
(1222,1932,o),
(1081,1999,o),
(881,1999,cs),
(611,1999,o),
(394,1875,o),
(394,1602,cs),
(394,1456,o),
(470,1343,o),
(603,1264,c),
(603,1256,l),
(408,1183,o),
(279,1048,o),
(279,834,cs),
(279,577,o),
(442,467,o),
(698,386,cs),
(887,324,ls),
(1070,265,o),
(1236,177,o),
(1236,-37,cs),
(1236,-262,o),
(1076,-380,o),
(811,-380,cs),
(620,-380,o),
(498,-315,o),
(411,-234,c),
(375,-276,l),
(467,-366,o),
(617,-434,o),
(808,-434,cs),
(1079,-434,o),
(1295,-310,o),
(1295,-37,cs,{
name = hr00;
})
);
},
{
closed = 1;
nodes = (
(1352,529,o),
(1228,406,o),
(1036,327,c),
(991,346,o),
(952,363,o),
(907,377,cs),
(721,436,ls),
(470,513,o),
(338,614,o),
(338,836,cs),
(338,1036,o),
(465,1160,o),
(653,1239,c),
(698,1219,o),
(738,1202,o),
(783,1188,cs),
(969,1129,l),
(1222,1053,o),
(1352,952,o),
(1352,729,cs)
);
}
);
width = 1690;
},
{
layerId = "D7CFBB37-D300-46E8-A355-ECFF19545BAA";
shapes = (
{
closed = 1;
nodes = (
(1439,166,o),
(1371,304,o),
(1217,403,c),
(1217,448,l),
(1428,535,o),
(1526,673,o),
(1526,834,cs,{
name = hr01;
}),
(1526,1000,o),
(1416,1169,o),
(1093,1256,cs),
(873,1315,ls),
(701,1360,o),
(622,1411,o),
(622,1512,cs),
(622,1628,o),
(729,1704,o),
(893,1704,cs),
(1033,1704,o),
(1157,1647,o),
(1256,1549,c),
(1462,1797,l),
(1298,1946,o),
(1090,1999,o),
(895,1999,cs),
(527,1999,o),
(270,1802,o),
(270,1495,cs),
(270,1338,o),
(338,1200,o),
(493,1101,c),
(493,1056,l),
(282,969,o),
(183,831,o),
(183,670,cs,{
name = hr02;
}),
(183,504,o),
(293,335,o),
(617,248,cs),
(836,189,ls),
(1008,144,o),
(1087,93,o),
(1087,-8,cs),
(1087,-124,o),
(980,-200,o),
(817,-200,cs),
(676,-200,o),
(552,-144,o),
(453,-45,c),
(248,-293,l),
(411,-442,o),
(620,-496,o),
(814,-496,cs),
(1183,-496,o),
(1439,-298,o),
(1439,8,cs)
);
},
{
closed = 1;
nodes = (
(1180,622,o),
(1140,546,o),
(1073,473,c),
(1045,484,o),
(1014,496,o),
(980,504,cs),
(763,563,ls),
(577,614,o),
(529,698,o),
(529,794,cs),
(529,881,o),
(569,957,o),
(636,1031,c),
(665,1019,o),
(696,1008,o),
(729,1000,cs),
(946,941,ls),
(1132,890,o),
(1180,805,o),
(1180,710,cs,{
name = hr03;
})
);
}
);
width = 1690;
},
{
layerId = "661A777E-9960-44AA-8623-3AD7C626B4F3";
shapes = (
{
closed = 1;
nodes = (
(1371,158,o),
(1304,290,o),
(1157,380,c),
(1157,394,l),
(1357,473,o),
(1473,617,o),
(1473,797,cs,{
name = hr01;
}),
(1473,988,o),
(1340,1146,o),
(1031,1233,cs),
(850,1284,ls),
(662,1338,o),
(552,1416,o),
(552,1557,cs),
(552,1709,o),
(679,1805,o),
(893,1805,cs),
(1036,1805,o),
(1152,1760,o),
(1242,1684,c),
(1374,1842,l),
(1242,1954,o),
(1067,1999,o),
(895,1999,cs),
(558,1999,o),
(329,1825,o),
(329,1554,cs),
(329,1405,o),
(397,1273,o),
(543,1183,c),
(543,1169,l),
(344,1090,o),
(228,946,o),
(228,766,cs,{
name = hr02;
}),
(228,574,o),
(360,417,o),
(670,329,cs),
(850,279,ls),
(1039,225,o),
(1149,146,o),
(1149,6,cs),
(1149,-146,o),
(1022,-242,o),
(808,-242,cs),
(665,-242,o),
(549,-197,o),
(459,-121,c),
(327,-279,l),
(459,-391,o),
(634,-436,o),
(805,-436,cs),
(1143,-436,o),
(1371,-262,o),
(1371,8,cs)
);
},
{
closed = 1;
nodes = (
(1250,608,o),
(1177,507,o),
(1062,428,c),
(1033,439,o),
(1000,451,o),
(966,459,cs),
(788,507,ls),
(558,569,o),
(451,662,o),
(451,822,cs),
(451,955,o),
(524,1056,o),
(639,1135,c),
(667,1124,o),
(701,1112,o),
(735,1104,cs),
(912,1056,ls),
(1143,994,o),
(1250,901,o),
(1250,741,cs,{
name = hr03;
})
);
}
);
width = 1690;
}
);
unicode = 167;
}
{
glyphname = dieresis;
layers = (
{
anchors = (
{
name = _top;
pos = (845,1453);
}
);
layerId = master01;
shapes = (
{
closed = 1;
nodes = (
(648,1828,o),
(670,1856,o),
(670,1892,cs),
(670,1915,ls),
(670,1951,o),
(648,1980,o),
(589,1980,cs),
(529,1980,o),
(507,1951,o),
(507,1915,cs),
(507,1892,ls),
(507,1856,o),
(529,1828,o),
(589,1828,cs,{
name = hr00;
})
);
},
{
closed = 1;
nodes = (
(1160,1828,o),
(1183,1856,o),
(1183,1892,cs),
(1183,1915,ls),
(1183,1951,o),
(1160,1980,o),
(1101,1980,cs),
(1042,1980,o),
(1019,1951,o),
(1019,1915,cs),
(1019,1892,ls),
(1019,1856,o),
(1042,1828,o),
(1101,1828,cs)
);
}
);
width = 1690;
},
{
anchors = (
{
name = _top;
pos = (845,1453);
}
);
layerId = "D7CFBB37-D300-46E8-A355-ECFF19545BAA";
shapes = (
{
closed = 1;
nodes = (
(704,1664,o),
(763,1743,o),
(763,1842,cs),
(763,1915,ls),
(763,2013,o),
(704,2089,o),
(535,2089,cs),
(369,2089,o),
(310,2013,o),
(310,1915,cs),
(310,1842,ls),
(310,1743,o),
(369,1664,o),
(535,1664,cs,{
name = hr00;
})
);
},
{
closed = 1;
nodes = (
(1321,1664,o),
(1380,1743,o),
(1380,1842,cs),
(1380,1915,ls),
(1380,2013,o),
(1321,2089,o),
(1155,2089,cs),
(986,2089,o),
(926,2013,o),
(926,1915,cs),
(926,1842,ls),
(926,1743,o),
(986,1664,o),
(1155,1664,cs)
);
}
);
width = 1690;
},
{
anchors = (
{
name = _top;
pos = (845,1453);
}
);
layerId = "661A777E-9960-44AA-8623-3AD7C626B4F3";
shapes = (
{
closed = 1;
nodes = (
(698,1740,o),
(743,1797,o),
(743,1870,cs),
(743,1909,ls),
(743,1982,o),
(698,2039,o),
(583,2039,cs),
(467,2039,o),
(422,1982,o),
(422,1909,cs),
(422,1870,ls),
(422,1797,o),
(467,1740,o),
(583,1740,cs,{
name = hr00;
})
);
},
{
closed = 1;
nodes = (
(1222,1740,o),
(1267,1797,o),
(1267,1870,cs),
(1267,1909,ls),
(1267,1982,o),
(1222,2039,o),
(1107,2039,cs),
(991,2039,o),
(946,1982,o),
(946,1909,cs),
(946,1870,ls),
(946,1797,o),
(991,1740,o),
(1107,1740,cs)
);
}
);
width = 1690;
}
);
unicode = 168;
}
{
glyphname = copyright;
layers = (
{
layerId = master01;
shapes = (
{
closed = 1;
nodes = (
(1307,51,o),
(1676,408,o),
(1676,983,cs),
(1676,1557,o),
(1307,1915,o),
(845,1915,cs),
(383,1915,o),
(14,1557,o),
(14,983,cs),
(14,408,o),
(383,51,o),
(845,51,cs,{
name = hr00;
})
);
},
{
closed = 1;
nodes = (
(403,99,o),
(70,456,o),
(70,935,cs),
(70,1031,ls),
(70,1509,o),
(403,1867,o),
(845,1867,cs),
(1287,1867,o),
(1619,1509,o),
(1619,1031,cs),
(1619,935,ls),
(1619,456,o),
(1287,99,o),
(845,99,cs)
);
},
{
closed = 1;
nodes = (
(997,529,o),
(1104,611,o),
(1149,712,c),
(1107,735,l),
(1062,639,o),
(974,577,o),
(850,577,cs),
(667,577,o),
(543,698,o),
(543,955,cs),
(543,1011,ls),
(543,1259,o),
(665,1388,o),
(850,1388,cs),
(972,1388,o),
(1056,1335,o),
(1093,1245,c),
(1138,1259,l),
(1101,1363,o),
(1002,1436,o),
(850,1436,cs),
(631,1436,o),
(487,1278,o),
(487,983,cs),
(487,687,o),
(631,529,o),
(848,529,cs)
);
}
);
width = 1690;
},
{
layerId = "D7CFBB37-D300-46E8-A355-ECFF19545BAA";
shapes = (
{
closed = 1;
nodes = (
(1315,51,o),
(1690,408,o),
(1690,983,cs),
(1690,1557,o),
(1315,1915,o),
(845,1915,cs),
(375,1915,o),
(0,1557,o),
(0,983,cs),
(0,408,o),
(375,51,o),
(845,51,cs,{
name = hr00;
})
);
},
{
closed = 1;
nodes = (
(459,206,o),
(177,513,o),
(177,898,cs),
(177,1067,ls),
(177,1453,o),
(459,1760,o),
(845,1760,cs),
(1231,1760,o),
(1512,1453,o),
(1512,1067,cs),
(1512,898,ls),
(1512,513,o),
(1231,206,o),
(845,206,cs)
);
},
{
closed = 1;
nodes = (
(1124,431,o),
(1256,566,o),
(1321,718,c),
(1081,839,l),
(1042,758,o),
(983,693,o),
(879,693,cs),
(763,693,o),
(696,772,o),
(696,881,cs),
(696,1087,ls),
(696,1194,o),
(763,1273,o),
(876,1273,cs),
(972,1273,o),
(1028,1214,o),
(1064,1126,c),
(1304,1247,l),
(1236,1416,o),
(1101,1535,o),
(870,1535,cs),
(566,1535,o),
(352,1318,o),
(352,980,cs),
(352,650,o),
(558,431,o),
(870,431,cs)
);
}
);
width = 1690;
},
{
layerId = "661A777E-9960-44AA-8623-3AD7C626B4F3";
shapes = (
{
closed = 1;
nodes = (
(1315,51,o),
(1690,408,o),
(1690,983,cs),
(1690,1557,o),
(1315,1915,o),
(845,1915,cs),
(375,1915,o),
(0,1557,o),
(0,983,cs),
(0,408,o),
(375,51,o),
(845,51,cs,{
name = hr00;
})
);
},
{
closed = 1;
nodes = (
(459,206,o),
(177,513,o),
(177,898,cs),
(177,1067,ls),
(177,1453,o),
(459,1760,o),
(845,1760,cs),
(1231,1760,o),
(1512,1453,o),
(1512,1067,cs),
(1512,898,ls),
(1512,513,o),
(1231,206,o),
(845,206,cs)
);
},
{
closed = 1;
nodes = (
(1042,482,o),
(1166,577,o),
(1228,710,c),
(1087,797,l),
(1036,704,o),
(974,642,o),
(862,642,cs),
(710,642,o),
(628,749,o),
(628,904,cs),
(628,1064,ls),
(628,1217,o),
(712,1324,o),
(859,1324,cs),
(963,1324,o),
(1025,1267,o),
(1064,1177,c),
(1214,1259,l),
(1152,1394,o),
(1036,1484,o),
(859,1484,cs),
(589,1484,o),
(425,1290,o),
(425,983,cs),
(425,679,o),
(586,482,o),
(859,482,cs)
);
}
);
width = 1690;
}
);
unicode = 169;
}
{
glyphname = ordfeminine;
layers = (
{
layerId = master01;
shapes = (
{
closed = 1;
nodes = (
(1256,1101,l),
(1124,1101,l),
(1124,1709,ls),
(1124,1892,o),
(1005,1999,o),
(791,1999,cs),
(622,1999,o),
(524,1926,o),
(470,1811,c),
(513,1788,l),
(566,1904,o),
(667,1951,o),
(791,1951,cs),
(969,1951,o),
(1070,1870,o),
(1070,1701,cs),
(1070,1543,l),
(800,1543,ls),
(535,1543,o),
(442,1439,o),
(442,1290,cs),
(442,1132,o),
(546,1033,o),
(749,1033,cs,{
name = hr01;
}),
(929,1033,o),
(1022,1110,o),
(1064,1188,c),
(1070,1188,l),
(1070,1160,o),
(1070,1135,o),
(1070,1107,cs),
(1070,1070,o),
(1087,1053,o),
(1121,1053,cs,{
name = hr02;
}),
(1256,1053,l)
);
},
{
closed = 1;
nodes = (
(1070,1332,ls),
(1070,1166,o),
(921,1081,o),
(749,1081,cs,{
name = hr03;
}),
(603,1081,o),
(501,1149,o),
(501,1273,cs),
(501,1309,ls),
(501,1419,o),
(583,1495,o),
(797,1495,cs),
(1070,1495,l)
);
}
);
width = 1690;
},
{
layerId = "D7CFBB37-D300-46E8-A355-ECFF19545BAA";
shapes = (
{
closed = 1;
nodes = (
(1377,1169,l),
(1264,1169,l),
(1264,1614,ls),
(1264,1870,o),
(1098,1999,o),
(822,1999,cs),
(594,1999,o),
(448,1915,o),
(380,1799,c),
(538,1659,l),
(594,1732,o),
(665,1785,o),
(788,1785,cs),
(921,1785,o),
(972,1723,o),
(972,1602,cs),
(972,1552,l),
(808,1552,ls),
(513,1552,o),
(352,1450,o),
(352,1239,cs),
(352,1048,o),
(482,935,o),
(679,935,cs,{
name = hr01;
}),
(834,935,o),
(952,1005,o),
(988,1138,c),
(1000,1138,l),
(1005,1090,o),
(1019,1050,o),
(1048,1022,cs),
(1084,980,o),
(1138,957,o),
(1208,957,cs,{
name = hr02;
}),
(1377,957,l)
);
},
{
closed = 1;
nodes = (
(972,1273,ls),
(972,1177,o),
(893,1126,o),
(788,1126,cs,{
name = hr03;
}),
(696,1126,o),
(636,1163,o),
(636,1233,cs),
(636,1273,ls),
(636,1352,o),
(701,1394,o),
(817,1394,cs),
(972,1394,l)
);
}
);
width = 1690;
},
{
layerId = "661A777E-9960-44AA-8623-3AD7C626B4F3";
shapes = (
{
closed = 1;
nodes = (
(1304,1163,l),
(1197,1163,l),
(1197,1642,ls),
(1197,1870,o),
(1050,1999,o),
(811,1999,cs),
(603,1999,o),
(479,1898,o),
(422,1802,c),
(541,1706,l),
(583,1791,o),
(673,1853,o),
(803,1853,cs),
(943,1853,o),
(1019,1783,o),
(1019,1633,cs),
(1019,1554,l),
(814,1554,ls),
(543,1554,o),
(389,1462,o),
(389,1262,cs),
(389,1095,o),
(498,983,o),
(701,983,cs,{
name = hr01;
}),
(876,983,o),
(977,1067,o),
(1019,1155,c),
(1031,1155,l),
(1033,1110,o),
(1045,1073,o),
(1073,1048,cs),
(1101,1019,o),
(1143,1005,o),
(1208,1005,cs,{
name = hr02;
}),
(1304,1005,l)
);
},
{
closed = 1;
nodes = (
(1019,1309,ls),
(1019,1197,o),
(887,1126,o),
(738,1126,cs,{
name = hr03;
}),
(625,1126,o),
(566,1169,o),
(566,1264,cs),
(566,1293,ls),
(566,1380,o),
(653,1425,o),
(808,1425,cs),
(1019,1425,l)
);
}
);
width = 1690;
}
);
unicode = 170;
}
{
glyphname = threesuperior;
layers = (
{
layerId = master01;
shapes = (
{
closed = 1;
nodes = (
(681,1442,l),
(831,1442,ls),
(1039,1442,o),
(1115,1360,o),
(1115,1219,cs),
(1115,1202,ls),
(1115,1048,o),
(1014,957,o),
(819,957,cs),
(665,957,o),
(589,1014,o),
(521,1098,c),
(482,1067,l),
(546,980,o),
(650,910,o),
(819,910,cs),
(1045,910,o),
(1171,1028,o),
(1171,1214,cs),
(1171,1354,o),
(1098,1442,o),
(955,1464,c),
(955,1473,l),
(1076,1501,o),
(1152,1580,o),
(1152,1715,cs,{
name = hr01;
}),
(1152,1878,o),
(1036,1982,o),
(836,1982,cs),
(676,1982,o),
(572,1921,o),
(513,1833,c),
(552,1805,l),
(614,1887,o),
(690,1935,o),
(836,1935,cs),
(1005,1935,o),
(1095,1853,o),
(1095,1729,cs),
(1095,1712,ls),
(1095,1574,o),
(1019,1490,o),
(811,1490,cs),
(681,1490,l)
);
}
);
width = 1690;
},
{
layerId = "D7CFBB37-D300-46E8-A355-ECFF19545BAA";
shapes = (
{
closed = 1;
nodes = (
(707,1340,l),
(794,1340,ls),
(895,1340,o),
(966,1312,o),
(966,1239,cs),
(966,1233,ls),
(966,1171,o),
(912,1132,o),
(825,1132,cs),
(712,1132,o),
(645,1197,o),
(603,1284,c),
(389,1121,l),
(462,1005,o),
(583,910,o),
(825,910,cs),
(1087,910,o),
(1267,1028,o),
(1267,1219,cs),
(1267,1352,o),
(1177,1436,o),
(1036,1459,c),
(1036,1470,l),
(1152,1484,o),
(1250,1569,o),
(1250,1698,cs,{
name = hr01;
}),
(1250,1867,o),
(1093,1982,o),
(828,1982,cs),
(631,1982,o),
(518,1921,o),
(420,1805,c),
(594,1639,l),
(653,1718,o),
(741,1760,o),
(819,1760,cs),
(901,1760,o),
(946,1718,o),
(946,1670,cs),
(946,1659,ls),
(946,1611,o),
(904,1571,o),
(803,1571,cs),
(707,1571,l)
);
}
);
width = 1690;
},
{
layerId = "661A777E-9960-44AA-8623-3AD7C626B4F3";
shapes = (
{
closed = 1;
nodes = (
(681,1394,l),
(808,1394,ls),
(949,1394,o),
(1025,1346,o),
(1025,1239,cs),
(1025,1222,ls),
(1025,1115,o),
(949,1050,o),
(808,1050,cs),
(679,1050,o),
(611,1110,o),
(558,1191,c),
(425,1095,l),
(496,1000,o),
(603,910,o),
(808,910,cs),
(1053,910,o),
(1211,1031,o),
(1211,1214,cs),
(1211,1363,o),
(1101,1445,o),
(974,1467,c),
(974,1476,l),
(1093,1501,o),
(1194,1580,o),
(1194,1715,cs,{
name = hr01;
}),
(1194,1884,o),
(1039,1982,o),
(828,1982,cs),
(642,1982,o),
(532,1904,o),
(467,1811,c),
(589,1715,l),
(639,1794,o),
(712,1842,o),
(822,1842,cs),
(935,1842,o),
(1005,1788,o),
(1005,1695,cs),
(1005,1684,ls),
(1005,1599,o),
(938,1538,o),
(794,1538,cs),
(681,1538,l)
);
}
);
width = 1690;
}
);
unicode = 179;
}
{
glyphname = acute;
layers = (
{
anchors = (
{
name = _top;
pos = (845,1453);
}
);
layerId = master01;
shapes = (
{
closed = 1;
nodes = (
(1064,2143,l),
(752,1709,l),
(794,1681,l),
(1118,2109,l,{
name = hr00;
})
);
}
);
width = 1690;
},
{
anchors = (
{
name = _top;
pos = (845,1453);
}
);
layerId = "D7CFBB37-D300-46E8-A355-ECFF19545BAA";
shapes = (
{
closed = 1;
nodes = (
(921,2273,l),
(642,1726,l),
(890,1605,l),
(1267,2101,l,{
name = hr00;
})
);
}
);
width = 1690;
},
{
anchors = (
{
name = _top;
pos = (845,1453);
}
);
layerId = "661A777E-9960-44AA-8623-3AD7C626B4F3";
shapes = (
{
closed = 1;
nodes = (
(957,2194,l),
(718,1715,l),
(865,1647,l),
(1163,2095,l,{
name = hr00;
})
);
}
);
width = 1690;
}
);
unicode = 180;
}
{
glyphname = mu;
layers = (
{
layerId = master01;
shapes = (
{
closed = 1;
nodes = (
(403,-90,l),
(394,259,l),
(403,259,l),
(470,68,o),
(617,-34,o),
(834,-34,cs),
(1090,-34,o),
(1228,84,o),
(1278,208,c),
(1287,208,l),
(1287,0,l,{
name = hr01;
}),
(1346,0,l),
(1346,1453,l),
(1287,1453,l),
(1287,406,ls),
(1287,146,o),
(1073,20,o),
(839,20,cs,{
name = hr02;
}),
(560,20,o),
(403,189,o),
(403,535,cs),
(403,1453,l),
(344,1453,l),
(344,-563,l),
(403,-563,l)
);
}
);
width = 1690;
},
{
layerId = "D7CFBB37-D300-46E8-A355-ECFF19545BAA";
shapes = (
{
closed = 1;
nodes = (
(600,-290,l),
(518,84,l),
(535,84,l),
(597,-8,o),
(667,-34,o),
(741,-34,cs),
(921,-34,o),
(1028,113,o),
(1073,265,c),
(1090,265,l),
(1090,0,l,{
name = hr01;
}),
(1507,0,l),
(1507,1453,l),
(1090,1453,l),
(1090,498,ls),
(1090,358,o),
(966,287,o),
(839,287,cs,{
name = hr02;
}),
(679,287,o),
(600,394,o),
(600,597,cs),
(600,1453,l),
(183,1453,l),
(183,-563,l),
(600,-563,l)
);
}
);
width = 1690;
},
{
layerId = "661A777E-9960-44AA-8623-3AD7C626B4F3";
shapes = (
{
closed = 1;
nodes = (
(501,-124,l),
(482,113,l),
(493,113,l),
(546,14,o),
(639,-34,o),
(783,-34,cs),
(1008,-34,o),
(1112,87,o),
(1177,237,c),
(1188,237,l),
(1188,0,l,{
name = hr01;
}),
(1414,0,l),
(1414,1453,l),
(1188,1453,l),
(1188,445,ls),
(1188,253,o),
(1017,166,o),
(836,166,cs,{
name = hr02;
}),
(617,166,o),
(501,296,o),
(501,560,cs),
(501,1453,l),
(276,1453,l),
(276,-563,l),
(501,-563,l)
);
}
);
width = 1690;
}
);
unicode = 181;
}
{
glyphname = periodcentered;
layers = (
{
layerId = master01;
shapes = (
{
closed = 1;
nodes = (
(907,769,o),
(941,797,o),
(941,845,cs),
(941,867,ls),
(941,915,o),
(907,943,o),
(845,943,cs),
(783,943,o),
(749,915,o),
(749,867,cs),
(749,845,ls),
(749,797,o),
(783,769,o),
(845,769,cs,{
name = hr00;
})
);
}
);
width = 1690;
},
{
layerId = "D7CFBB37-D300-46E8-A355-ECFF19545BAA";
shapes = (
{
closed = 1;
nodes = (
(1056,574,o),
(1140,681,o),
(1140,808,cs),
(1140,907,ls),
(1140,1033,o),
(1056,1140,o),
(845,1140,cs),
(634,1140,o),
(549,1033,o),
(549,907,cs),
(549,808,ls),
(549,681,o),
(634,574,o),
(845,574,cs,{
name = hr00;
})
);
}
);
width = 1690;
},
{
layerId = "661A777E-9960-44AA-8623-3AD7C626B4F3";
shapes = (
{
closed = 1;
nodes = (
(997,662,o),
(1053,735,o),
(1053,831,cs),
(1053,881,ls),
(1053,977,o),
(997,1050,o),
(845,1050,cs),
(693,1050,o),
(636,977,o),
(636,881,cs),
(636,831,ls),
(636,735,o),
(693,662,o),
(845,662,cs,{
name = hr00;
})
);
}
);
width = 1690;
}
);
unicode = 183;
}
{
glyphname = onesuperior;
layers = (
{
layerId = master01;
shapes = (
{
closed = 1;
nodes = (
(1290,974,l),
(957,974,l),
(957,1966,l),
(867,1966,l),
(510,1664,l),
(541,1628,l),
(893,1923,l),
(904,1923,l),
(904,974,l),
(541,974,l),
(541,926,l),
(1290,926,l,{
name = hr00;
})
);
}
);
width = 1690;
},
{
layerId = "D7CFBB37-D300-46E8-A355-ECFF19545BAA";
shapes = (
{
closed = 1;
nodes = (
(1304,1149,l),
(1076,1149,l),
(1076,1966,l),
(653,1966,l),
(414,1642,l),
(603,1507,l),
(774,1740,l),
(791,1740,l),
(791,1149,l),
(529,1149,l),
(529,926,l),
(1304,926,l,{
name = hr00;
})
);
}
);
width = 1690;
},
{
layerId = "661A777E-9960-44AA-8623-3AD7C626B4F3";
shapes = (
{
closed = 1;
nodes = (
(1256,1067,l),
(980,1067,l),
(980,1966,l),
(718,1966,l),
(431,1676,l),
(532,1571,l),
(786,1822,l),
(803,1822,l),
(803,1067,l),
(496,1067,l),
(496,926,l),
(1256,926,l,{
name = hr00;
})
);
}
);
width = 1690;
}
);
unicode = 185;
}
{
glyphname = questiondown;
layers = (
{
layerId = master01;
shapes = (
{
closed = 1;
nodes = (
(1115,-546,o),
(1332,-380,o),
(1419,-90,c),
(1363,-73,l),
(1284,-346,o),
(1090,-493,o),
(819,-493,cs),
(529,-493,o),
(355,-321,o),
(355,-68,cs),
(355,-17,ls),
(355,265,o),
(569,453,o),
(935,470,c),
(935,957,l),
(873,957,l),
(873,524,l),
(510,484,o),
(290,273,o),
(290,-42,cs),
(290,-344,o),
(490,-546,o),
(819,-546,cs)
);
},
{
closed = 1;
nodes = (
(966,1293,o),
(1000,1321,o),
(1000,1369,cs,{
name = hr01;
}),
(1000,1391,ls),
(1000,1439,o),
(966,1467,o),
(904,1467,cs),
(842,1467,o),
(808,1439,o),
(808,1391,cs),
(808,1369,ls),
(808,1321,o),
(842,1293,o),
(904,1293,cs)
);
}
);
width = 1690;
},
{
layerId = "D7CFBB37-D300-46E8-A355-ECFF19545BAA";
shapes = (
{
closed = 1;
nodes = (
(1259,-546,o),
(1453,-321,o),
(1518,-96,c),
(1174,48,l),
(1138,-93,o),
(1036,-191,o),
(884,-191,cs),
(749,-191,o),
(645,-127,o),
(645,28,cs),
(645,68,ls),
(645,282,o),
(822,355,o),
(1104,366,c),
(1104,797,l),
(710,797,l),
(710,594,l),
(439,549,o),
(206,349,o),
(206,31,cs),
(206,-310,o),
(470,-546,o),
(870,-546,cs)
);
},
{
closed = 1;
nodes = (
(1098,960,o),
(1177,1059,o),
(1177,1177,cs,{
name = hr01;
}),
(1177,1267,ls),
(1177,1388,o),
(1098,1487,o),
(901,1487,cs),
(701,1487,o),
(622,1388,o),
(622,1267,cs),
(622,1177,ls),
(622,1059,o),
(701,960,o),
(901,960,cs)
);
}
);
width = 1690;
},
{
layerId = "661A777E-9960-44AA-8623-3AD7C626B4F3";
shapes = (
{
closed = 1;
nodes = (
(1202,-546,o),
(1400,-338,o),
(1473,-90,c),
(1262,-11,l),
(1211,-200,o),
(1076,-341,o),
(850,-341,cs),
(634,-341,o),
(498,-234,o),
(498,-25,cs),
(498,14,ls),
(498,268,o),
(696,391,o),
(1017,406,c),
(1017,848,l),
(794,848,l),
(794,563,l),
(529,515,o),
(253,341,o),
(253,-14,cs),
(253,-338,o),
(484,-546,o),
(842,-546,cs)
);
},
{
closed = 1;
nodes = (
(1048,1090,o),
(1104,1163,o),
(1104,1259,cs,{
name = hr01;
}),
(1104,1309,ls),
(1104,1405,o),
(1048,1478,o),
(895,1478,cs),
(743,1478,o),
(687,1405,o),
(687,1309,cs),
(687,1259,ls),
(687,1163,o),
(743,1090,o),
(895,1090,cs)
);
}
);
width = 1690;
}
);
unicode = 191;
}
{
glyphname = ae;
layers = (
{
anchors = (
{
name = top;
pos = (839,1453);
}
);
layerId = master01;
shapes = (
{
closed = 1;
nodes = (
(659,-34,o),
(803,113,o),
(834,341,c),
(842,341,l),
(895,76,o),
(1036,-34,o),
(1208,-34,cs),
(1419,-34,o),
(1543,130,o),
(1602,329,c),
(1549,344,l),
(1487,127,o),
(1369,20,o),
(1211,20,cs),
(1019,20,o),
(862,180,o),
(862,676,cs),
(862,727,l),
(1619,727,l),
(1619,881,ls),
(1619,1309,o),
(1462,1487,o),
(1228,1487,cs),
(1050,1487,o),
(926,1391,o),
(859,1157,c),
(850,1157,l),
(814,1394,o),
(673,1487,o),
(496,1487,cs),
(282,1487,o),
(155,1352,o),
(90,1208,c),
(138,1186,l),
(194,1301,o),
(298,1433,o),
(493,1433,cs),
(670,1433,o),
(805,1324,o),
(805,1022,cs),
(805,774,l),
(577,774,ls),
(251,774,o),
(68,665,o),
(68,380,cs),
(68,124,o),
(217,-34,o),
(442,-34,cs,{
name = hr00;
})
);
},
{
closed = 1;
nodes = (
(253,20,o),
(130,155,o),
(130,349,cs),
(130,400,ls),
(130,634,o),
(273,727,o),
(577,727,cs),
(805,727,l),
(805,462,ls),
(805,203,o),
(667,20,o),
(445,20,cs)
);
},
{
closed = 1;
nodes = (
(1416,1433,o),
(1560,1309,o),
(1560,881,cs),
(1560,774,l),
(862,774,l),
(862,839,ls),
(862,1253,o),
(1002,1433,o),
(1228,1433,cs)
);
}
);
width = 1690;
},
{
anchors = (
{
name = top;
pos = (839,1453);
}
);
layerId = "D7CFBB37-D300-46E8-A355-ECFF19545BAA";
shapes = (
{
closed = 1;
nodes = (
(563,-34,o),
(693,68,o),
(727,296,c),
(738,296,l),
(805,65,o),
(983,-34,o),
(1177,-34,cs),
(1439,-34,o),
(1571,144,o),
(1628,363,c),
(1354,439,l),
(1326,329,o),
(1278,237,o),
(1174,237,cs),
(1042,237,o),
(972,383,o),
(972,600,cs),
(972,642,l),
(1645,642,l),
(1645,836,ls),
(1645,1233,o),
(1459,1487,o),
(1174,1487,cs),
(1028,1487,o),
(915,1419,o),
(836,1281,c),
(825,1281,l),
(760,1414,o),
(645,1487,o),
(473,1487,cs),
(256,1487,o),
(99,1371,o),
(37,1129,c),
(296,1036,l),
(329,1155,o),
(372,1228,o),
(473,1228,cs),
(580,1228,o),
(636,1146,o),
(636,1019,cs),
(636,859,l),
(524,859,ls),
(194,859,o),
(11,698,o),
(11,397,cs),
(11,110,o),
(175,-34,o),
(386,-34,cs,{
name = hr00;
})
);
},
{
closed = 1;
nodes = (
(383,220,o),
(338,284,o),
(338,389,cs),
(338,442,ls),
(338,574,o),
(417,642,o),
(555,642,cs),
(636,642,l),
(636,504,ls),
(636,321,o),
(594,220,o),
(476,220,cs)
);
},
{
closed = 1;
nodes = (
(1278,1233,o),
(1338,1124,o),
(1338,983,cs),
(1338,859,l),
(972,859,l),
(972,983,ls),
(972,1124,o),
(1031,1233,o),
(1155,1233,cs)
);
}
);
width = 1690;
},
{
anchors = (
{
name = top;
pos = (845,1453);
}
);
layerId = "661A777E-9960-44AA-8623-3AD7C626B4F3";
shapes = (
{
closed = 1;
nodes = (
(572,-34,o),
(707,68,o),
(758,287,c),
(766,287,l),
(845,84,o),
(986,-34,o),
(1177,-34,cs),
(1414,-34,o),
(1560,149,o),
(1616,321,c),
(1453,397,l),
(1405,270,o),
(1329,146,o),
(1183,146,cs),
(1005,146,o),
(912,335,o),
(912,600,cs),
(912,670,l),
(1639,670,l),
(1639,822,ls),
(1639,1259,o),
(1487,1487,o),
(1194,1487,cs),
(1048,1487,o),
(921,1428,o),
(845,1267,c),
(836,1267,l),
(772,1408,o),
(656,1487,o),
(487,1487,cs),
(262,1487,o),
(121,1340,o),
(62,1188,c),
(211,1095,l),
(265,1228,o),
(335,1318,o),
(479,1318,cs),
(622,1318,o),
(707,1231,o),
(707,980,cs),
(707,831,l),
(529,831,ls),
(206,831,o),
(28,681,o),
(28,389,cs),
(28,113,o),
(186,-34,o),
(397,-34,cs,{
name = hr00;
})
);
},
{
closed = 1;
nodes = (
(287,141,o),
(234,234,o),
(234,386,cs),
(234,428,ls),
(234,600,o),
(355,670,o),
(560,670,cs),
(707,670,l),
(707,434,ls),
(707,279,o),
(620,141,o),
(436,141,cs)
);
},
{
closed = 1;
nodes = (
(1354,1324,o),
(1453,1194,o),
(1453,926,cs),
(1453,831,l),
(912,831,l),
(912,926,ls),
(912,1194,o),
(1011,1324,o),
(1183,1324,cs)
);
}
);
width = 1690;
}
);
unicode = 230;
}
{
glyphname = divide;
layers = (
{
layerId = master01;
shapes = (
{
closed = 1;
nodes = (
(1515,887,l),
(175,887,l),
(175,834,l),
(1515,834,l,{
name = hr00;
})
);
},
{
closed = 1;
nodes = (
(907,228,o),
(941,256,o),
(941,304,cs),
(941,327,ls),
(941,375,o),
(907,403,o),
(845,403,cs),
(783,403,o),
(749,375,o),
(749,327,cs),
(749,304,ls),
(749,256,o),
(783,228,o),
(845,228,cs)
);
},
{
closed = 1;
nodes = (
(907,1318,o),
(941,1346,o),
(941,1394,cs),
(941,1416,ls),
(941,1464,o),
(907,1492,o),
(845,1492,cs),
(783,1492,o),
(749,1464,o),
(749,1416,cs),
(749,1394,ls),
(749,1346,o),
(783,1318,o),
(845,1318,cs)
);
}
);
width = 1690;
},
{
layerId = "D7CFBB37-D300-46E8-A355-ECFF19545BAA";
shapes = (
{
closed = 1;
nodes = (
(1515,1025,l),
(175,1025,l),
(175,693,l),
(1515,693,l,{
name = hr00;
})
);
},
{
closed = 1;
nodes = (
(1022,82,o),
(1093,166,o),
(1093,276,cs),
(1093,344,ls),
(1093,451,o),
(1022,538,o),
(845,538,cs),
(667,538,o),
(597,451,o),
(597,344,cs),
(597,276,ls),
(597,166,o),
(667,82,o),
(845,82,cs)
);
},
{
closed = 1;
nodes = (
(1022,1180,o),
(1093,1267,o),
(1093,1374,cs),
(1093,1442,ls),
(1093,1552,o),
(1022,1636,o),
(845,1636,cs),
(667,1636,o),
(597,1552,o),
(597,1442,cs),
(597,1374,ls),
(597,1267,o),
(667,1180,o),
(845,1180,cs)
);
}
);
width = 1690;
},
{
layerId = "661A777E-9960-44AA-8623-3AD7C626B4F3";
shapes = (
{
closed = 1;
nodes = (
(1515,955,l),
(175,955,l),
(175,763,l),
(1515,763,l,{
name = hr00;
})
);
},
{
closed = 1;
nodes = (
(974,146,o),
(1019,206,o),
(1019,282,cs),
(1019,344,ls),
(1019,420,o),
(974,479,o),
(845,479,cs),
(715,479,o),
(670,420,o),
(670,344,cs),
(670,282,ls),
(670,206,o),
(715,146,o),
(845,146,cs)
);
},
{
closed = 1;
nodes = (
(974,1239,o),
(1019,1298,o),
(1019,1374,cs),
(1019,1436,ls),
(1019,1512,o),
(974,1571,o),
(845,1571,cs),
(715,1571,o),
(670,1512,o),
(670,1436,cs),
(670,1374,ls),
(670,1298,o),
(715,1239,o),
(845,1239,cs)
);
}
);
width = 1690;
}
);
unicode = 247;
}
{
glyphname = oslash;
layers = (
{
anchors = (
{
name = top;
pos = (845,1453);
}
);
layerId = master01;
shapes = (
{
closed = 1;
nodes = (
(414,155,l),
(515,28,o),
(659,-34,o),
(845,-34,cs),
(1217,-34,o),
(1436,222,o),
(1436,727,cs),
(1436,955,o),
(1391,1132,o),
(1307,1259,c),
(1501,1495,l),
(1462,1526,l),
(1276,1298,l),
(1174,1425,o),
(1031,1487,o),
(845,1487,cs),
(473,1487,o),
(253,1231,o),
(253,727,cs),
(253,498,o),
(298,321,o),
(383,194,c),
(189,-42,l),
(228,-73,l,{
name = hr00;
})
);
},
{
closed = 1;
nodes = (
(1019,1433,o),
(1149,1369,o),
(1239,1253,c),
(420,242,l),
(352,349,o),
(318,490,o),
(318,659,cs),
(318,794,ls),
(318,1188,o),
(507,1433,o),
(845,1433,cs)
);
},
{
closed = 1;
nodes = (
(670,20,o),
(541,84,o),
(451,200,c),
(1270,1211,l),
(1338,1104,o),
(1371,963,o),
(1371,794,cs),
(1371,659,ls),
(1371,265,o),
(1183,20,o),
(845,20,cs)
);
}
);
width = 1690;
},
{
anchors = (
{
name = top;
pos = (845,1453);
}
);
layerId = "D7CFBB37-D300-46E8-A355-ECFF19545BAA";
shapes = (
{
closed = 1;
nodes = (
(476,51,l),
(577,-3,o),
(704,-34,o),
(845,-34,cs),
(1298,-34,o),
(1574,256,o),
(1574,727,cs),
(1574,924,o),
(1526,1090,o),
(1431,1217,c),
(1625,1450,l),
(1394,1619,l),
(1214,1402,l),
(1112,1456,o),
(986,1487,o),
(845,1487,cs),
(391,1487,o),
(115,1197,o),
(115,727,cs),
(115,529,o),
(163,363,o),
(259,237,c),
(65,3,l),
(296,-166,l,{
name = hr00;
})
);
},
{
closed = 1;
nodes = (
(912,1177,o),
(972,1160,o),
(1017,1129,c),
(552,563,l),
(546,583,o),
(546,611,o),
(546,634,cs),
(546,842,ls),
(546,1056,o),
(659,1177,o),
(845,1177,cs)
);
},
{
closed = 1;
nodes = (
(777,276,o),
(718,293,o),
(673,324,c),
(1138,890,l),
(1143,870,o),
(1143,842,o),
(1143,819,cs),
(1143,611,ls),
(1143,397,o),
(1031,276,o),
(845,276,cs)
);
}
);
width = 1690;
},
{
anchors = (
{
name = top;
pos = (845,1453);
}
);
layerId = "661A777E-9960-44AA-8623-3AD7C626B4F3";
shapes = (
{
closed = 1;
nodes = (
(436,104,l),
(543,17,o),
(681,-34,o),
(845,-34,cs),
(1253,-34,o),
(1504,265,o),
(1504,727,cs),
(1504,929,o),
(1453,1104,o),
(1363,1233,c),
(1557,1470,l),
(1431,1566,l),
(1253,1349,l),
(1146,1436,o),
(1008,1487,o),
(845,1487,cs),
(436,1487,o),
(186,1188,o),
(186,727,cs),
(186,524,o),
(237,349,o),
(327,220,c),
(132,-17,l),
(259,-113,l,{
name = hr00;
})
);
},
{
closed = 1;
nodes = (
(960,1293,o),
(1059,1262,o),
(1129,1197,c),
(467,389,l),
(439,451,o),
(425,532,o),
(425,622,cs),
(425,831,ls),
(425,1143,o),
(594,1293,o),
(845,1293,cs)
);
},
{
closed = 1;
nodes = (
(729,161,o),
(631,191,o),
(560,256,c),
(1222,1064,l),
(1250,1002,o),
(1264,921,o),
(1264,831,cs),
(1264,622,ls),
(1264,310,o),
(1095,161,o),
(845,161,cs)
);
}
);
width = 1690;
}
);
unicode = 248;
}
{
glyphname = Aogonek;
layers = (
{
layerId = master01;
shapes = (
{
closed = 1;
nodes = (
(211,0,l),
(431,659,l),
(1259,659,l),
(1470,28,l),
(1476,14,l),
(1478,3,l),
(1219,-146,o),
(1149,-268,o),
(1149,-377,cs,{
name = hr01;
}),
(1149,-504,o),
(1245,-569,o),
(1371,-569,cs),
(1473,-569,o),
(1546,-529,o),
(1583,-479,c),
(1543,-448,l,{
name = hr02;
}),
(1515,-482,o),
(1464,-518,o),
(1371,-518,cs),
(1276,-518,o),
(1208,-479,o),
(1208,-375,cs,{
name = hr03;
}),
(1208,-225,o),
(1343,-130,o),
(1543,0,c,{
name = hr04;
}),
(887,1966,l),
(803,1966,l),
(146,0,l)
);
},
{
closed = 1;
nodes = (
(448,712,l),
(839,1895,l),
(848,1895,l),
(1242,712,l)
);
}
);
width = 1690;
},
{
layerId = "D7CFBB37-D300-46E8-A355-ECFF19545BAA";
shapes = (
{
closed = 1;
nodes = (
(442,0,l),
(563,473,l),
(1101,473,l),
(1225,0,l),
(1402,0,l),
(1408,-11,l),
(1200,-107,o),
(1073,-200,o),
(1073,-358,cs,{
name = hr01;
}),
(1073,-538,o),
(1236,-597,o),
(1422,-597,cs),
(1599,-597,o),
(1718,-543,o),
(1766,-453,c),
(1616,-310,l),
(1577,-355,o),
(1529,-389,o),
(1462,-389,cs),
(1405,-389,o),
(1354,-366,o),
(1354,-296,cs),
(1354,-228,o),
(1400,-169,o),
(1676,0,c,{
name = hr02;
}),
(1143,1966,l),
(546,1966,l),
(14,0,l)
);
},
{
closed = 1;
nodes = (
(631,814,l),
(822,1557,l),
(845,1557,l),
(1036,814,l)
);
}
);
width = 1690;
},
{
layerId = "661A777E-9960-44AA-8623-3AD7C626B4F3";
shapes = (
{
closed = 1;
nodes = (
(332,0,l),
(498,560,l),
(1188,560,l),
(1354,0,l),
(1416,0,l),
(1419,-8,l),
(1208,-110,o),
(1095,-222,o),
(1095,-358,cs,{
name = hr01;
}),
(1095,-507,o),
(1231,-583,o),
(1402,-583,cs),
(1543,-583,o),
(1628,-529,o),
(1664,-467,c),
(1552,-352,l),
(1515,-397,o),
(1467,-425,o),
(1405,-425,cs),
(1346,-425,o),
(1287,-400,o),
(1287,-321,cs),
(1287,-265,o),
(1315,-183,o),
(1605,0,c,{
name = hr02;
}),
(1002,1966,l),
(690,1966,l),
(87,0,l)
);
},
{
closed = 1;
nodes = (
(555,766,l),
(831,1715,l),
(856,1715,l),
(1132,766,l)
);
}
);
width = 1690;
}
);
unicode = 260;
}
{
glyphname = aogonek;
layers = (
{
layerId = master01;
shapes = (
{
closed = 1;
nodes = (
(1256,54,l),
(1256,1011,ls),
(1256,1312,o),
(1079,1487,o),
(774,1487,cs),
(515,1487,o),
(349,1369,o),
(268,1183,c),
(315,1155,l),
(397,1349,o),
(569,1433,o),
(774,1433,cs),
(1036,1433,o),
(1197,1295,o),
(1197,1002,cs),
(1197,774,l),
(774,774,ls),
(346,774,o),
(220,603,o),
(220,366,cs),
(220,110,o),
(391,-34,o),
(701,-34,cs,{
name = hr01;
}),
(974,-34,o),
(1118,82,o),
(1188,217,c),
(1197,217,l),
(1197,82,ls),
(1197,25,o),
(1222,0,o),
(1278,0,cs,{
name = hr02;
}),
(1416,0,l),
(1419,-6,l),
(1174,-144,o),
(1101,-268,o),
(1101,-377,cs),
(1101,-504,o),
(1197,-569,o),
(1324,-569,cs),
(1425,-569,o),
(1498,-529,o),
(1535,-479,c),
(1495,-448,l),
(1467,-482,o),
(1416,-518,o),
(1324,-518,cs),
(1228,-518,o),
(1160,-479,o),
(1160,-375,cs),
(1160,-225,o),
(1295,-130,o),
(1495,0,c),
(1495,54,l)
);
},
{
closed = 1;
nodes = (
(1197,417,ls),
(1197,152,o),
(966,20,o),
(701,20,cs,{
name = hr03;
}),
(456,20,o),
(284,127,o),
(284,321,cs),
(284,411,ls),
(284,597,o),
(422,724,o),
(777,724,cs),
(1197,724,l)
);
}
);
width = 1690;
},
{
layerId = "D7CFBB37-D300-46E8-A355-ECFF19545BAA";
shapes = (
{
closed = 1;
nodes = (
(1450,301,l),
(1450,938,ls),
(1450,1304,o),
(1214,1487,o),
(817,1487,cs),
(493,1487,o),
(282,1366,o),
(186,1202,c),
(414,1000,l),
(493,1107,o),
(594,1183,o),
(769,1183,cs),
(960,1183,o),
(1033,1093,o),
(1033,921,cs),
(1033,848,l),
(800,848,ls),
(375,848,o),
(146,704,o),
(146,400,cs),
(146,127,o),
(332,-34,o),
(614,-34,cs,{
name = hr01;
}),
(836,-34,o),
(1005,68,o),
(1056,256,c),
(1070,256,l),
(1070,251,l),
(1087,101,o),
(1183,14,o),
(1329,0,c),
(1338,0,l,{
name = hr02;
}),
(1343,-11,l),
(1135,-107,o),
(1008,-200,o),
(1008,-358,cs),
(1008,-538,o),
(1171,-597,o),
(1357,-597,cs),
(1535,-597,o),
(1653,-543,o),
(1701,-453,c),
(1552,-310,l),
(1512,-355,o),
(1464,-389,o),
(1397,-389,cs),
(1340,-389,o),
(1290,-366,o),
(1290,-296,cs),
(1290,-228,o),
(1335,-169,o),
(1611,0,c),
(1611,301,l)
);
},
{
closed = 1;
nodes = (
(1033,448,ls),
(1033,313,o),
(918,239,o),
(769,239,cs),
(639,239,o),
(555,293,o),
(555,394,cs),
(555,451,ls),
(555,563,o),
(645,622,o),
(811,622,cs),
(1033,622,l,{
name = hr03;
})
);
}
);
width = 1690;
},
{
layerId = "661A777E-9960-44AA-8623-3AD7C626B4F3";
shapes = (
{
closed = 1;
nodes = (
(1346,197,l),
(1346,997,ls),
(1346,1304,o),
(1129,1487,o),
(788,1487,cs),
(493,1487,o),
(307,1346,o),
(234,1194,c),
(386,1081,l),
(462,1214,o),
(580,1295,o),
(772,1295,cs),
(994,1295,o),
(1121,1186,o),
(1121,974,cs),
(1121,831,l),
(811,831,ls),
(375,831,o),
(186,676,o),
(186,408,cs),
(186,135,o),
(380,-34,o),
(684,-34,c,{
name = hr01;
}),
(921,-34,o),
(1059,70,o),
(1121,237,c),
(1135,237,l),
(1135,231,l),
(1149,104,o),
(1222,14,o),
(1354,0,c),
(1360,0,l,{
name = hr02;
}),
(1363,-8,l),
(1152,-110,o),
(1039,-222,o),
(1039,-358,cs),
(1039,-507,o),
(1174,-583,o),
(1346,-583,cs,{
name = hr03;
}),
(1487,-583,o),
(1571,-529,o),
(1608,-467,c),
(1495,-352,l),
(1459,-397,o),
(1411,-425,o),
(1349,-425,cs),
(1290,-425,o),
(1231,-400,o),
(1231,-321,cs,{
name = hr04;
}),
(1231,-265,o),
(1259,-183,o),
(1549,0,c),
(1549,197,l)
);
},
{
closed = 1;
nodes = (
(1121,422,ls),
(1121,273,o),
(955,155,o),
(724,155,cs),
(538,155,o),
(422,234,o),
(422,383,cs),
(422,442,ls),
(422,583,o),
(543,662,o),
(811,662,cs),
(1121,662,l,{
name = hr05;
})
);
}
);
width = 1690;
}
);
unicode = 261;
}
{
glyphname = Iogonek;
layers = (
{
layerId = master01;
shapes = (
{
closed = 1;
nodes = (
(1352,0,l),
(1354,-6,l),
(1110,-144,o),
(1036,-268,o),
(1036,-377,cs),
(1036,-504,o),
(1132,-569,o),
(1259,-569,cs),
(1360,-569,o),
(1433,-529,o),
(1470,-479,c),
(1431,-448,l),
(1402,-482,o),
(1352,-518,o),
(1259,-518,cs),
(1163,-518,o),
(1095,-479,o),
(1095,-375,cs),
(1095,-225,o),
(1231,-130,o),
(1431,0,c),
(1431,54,l),
(876,54,l),
(876,1912,l),
(1431,1912,l),
(1431,1966,l),
(259,1966,l),
(259,1912,l),
(814,1912,l),
(814,54,l),
(259,54,l),
(259,0,l,{
name = hr00;
})
);
}
);
width = 1690;
},
{
layerId = "D7CFBB37-D300-46E8-A355-ECFF19545BAA";
shapes = (
{
closed = 1;
nodes = (
(1205,0,l),
(1211,-11,l),
(1002,-107,o),
(876,-200,o),
(876,-358,cs),
(876,-538,o),
(1039,-597,o),
(1225,-597,cs),
(1402,-597,o),
(1521,-543,o),
(1569,-453,c),
(1419,-310,l),
(1380,-355,o),
(1332,-389,o),
(1264,-389,cs),
(1208,-389,o),
(1157,-366,o),
(1157,-296,cs),
(1157,-228,o),
(1202,-169,o),
(1478,0,c),
(1478,313,l),
(1056,313,l,{
name = hr01;
}),
(1056,1653,l),
(1478,1653,l),
(1478,1966,l),
(211,1966,l),
(211,1653,l),
(634,1653,l),
(634,313,l),
(211,313,l),
(211,0,l)
);
}
);
width = 1690;
},
{
layerId = "661A777E-9960-44AA-8623-3AD7C626B4F3";
shapes = (
{
closed = 1;
nodes = (
(1264,0,l),
(1267,-8,l),
(1056,-110,o),
(943,-222,o),
(943,-358,cs),
(943,-507,o),
(1079,-583,o),
(1250,-583,cs),
(1391,-583,o),
(1476,-529,o),
(1512,-467,c),
(1400,-352,l),
(1363,-397,o),
(1315,-425,o),
(1253,-425,cs),
(1194,-425,o),
(1135,-400,o),
(1135,-321,cs),
(1135,-265,o),
(1163,-183,o),
(1453,0,c),
(1453,189,l),
(963,189,l,{
name = hr01;
}),
(963,1777,l),
(1453,1777,l),
(1453,1966,l),
(237,1966,l),
(237,1777,l),
(727,1777,l),
(727,189,l),
(237,189,l),
(237,0,l)
);
}
);
width = 1690;
}
);
unicode = 302;
}
{
glyphname = IJ;
layers = (
{
layerId = master01;
shapes = (
{
closed = 1;
nodes = (
(1301,538,ls),
(1301,206,o),
(1138,23,o),
(845,23,cs),
(591,23,o),
(448,161,o),
(394,372,c),
(335,358,l),
(389,113,o),
(569,-34,o),
(845,-34,cs),
(1169,-34,o),
(1363,169,o),
(1363,532,cs),
(1363,1966,l),
(1301,1966,l,{
name = hr00;
})
);
},
{
closed = 1;
nodes = (
(389,763,l),
(389,1966,l),
(327,1966,l),
(327,763,l)
);
}
);
width = 1690;
},
{
layerId = "D7CFBB37-D300-46E8-A355-ECFF19545BAA";
shapes = (
{
closed = 1;
nodes = (
(1056,591,ls),
(1056,400,o),
(972,310,o),
(828,310,cs),
(659,310,o),
(589,434,o),
(558,600,c),
(146,510,l),
(206,194,o),
(417,-34,o),
(825,-34,cs),
(1231,-34,o),
(1478,194,o),
(1478,549,cs),
(1478,1966,l),
(1056,1966,l,{
name = hr00;
})
);
},
{
closed = 1;
nodes = (
(600,870,l),
(600,1966,l),
(177,1966,l),
(177,870,l)
);
}
);
width = 1690;
},
{
layerId = "661A777E-9960-44AA-8623-3AD7C626B4F3";
shapes = (
{
closed = 1;
nodes = (
(1200,580,ls),
(1200,304,o),
(1064,175,o),
(834,175,cs),
(589,175,o),
(510,321,o),
(476,467,c),
(239,408,l),
(298,127,o),
(518,-34,o),
(825,-34,cs),
(1186,-34,o),
(1436,189,o),
(1436,538,cs),
(1436,1966,l),
(1200,1966,l,{
name = hr00;
})
);
},
{
closed = 1;
nodes = (
(490,817,l),
(490,1966,l),
(253,1966,l),
(253,817,l)
);
}
);
width = 1690;
}
);
unicode = 306;
}
{
glyphname = ij;
layers = (
{
layerId = master01;
shapes = (
{
closed = 1;
nodes = (
(431,0,l),
(431,1453,l),
(372,1453,l),
(372,0,l)
);
},
{
closed = 1;
nodes = (
(1236,-563,ls),
(1293,-563,o),
(1318,-538,o),
(1318,-482,cs),
(1318,1453,l),
(1259,1453,l),
(1259,-510,l),
(428,-510,l),
(428,-563,l)
);
},
{
closed = 1;
nodes = (
(453,1946,o),
(482,1968,o),
(482,2011,cs,{
name = hr01;
}),
(482,2033,ls),
(482,2075,o),
(453,2098,o),
(400,2098,cs),
(346,2098,o),
(318,2075,o),
(318,2033,cs),
(318,2011,ls),
(318,1968,o),
(346,1946,o),
(400,1946,cs)
);
},
{
closed = 1;
nodes = (
(1343,1946,o),
(1371,1968,o),
(1371,2011,cs),
(1371,2033,ls),
(1371,2075,o),
(1343,2098,o),
(1290,2098,cs),
(1236,2098,o),
(1208,2075,o),
(1208,2033,cs),
(1208,2011,ls),
(1208,1968,o),
(1236,1946,o),
(1290,1946,cs)
);
}
);
width = 1690;
},
{
layerId = "D7CFBB37-D300-46E8-A355-ECFF19545BAA";
shapes = (
{
closed = 1;
nodes = (
(625,0,l),
(625,1453,l),
(208,1453,l),
(208,0,l)
);
},
{
closed = 1;
nodes = (
(1036,-563,ls),
(1338,-563,o),
(1481,-389,o),
(1481,-144,cs),
(1481,1453,l),
(1064,1453,l),
(1064,-239,l),
(625,-239,l),
(625,-563,l)
);
},
{
closed = 1;
nodes = (
(605,1639,o),
(670,1726,o),
(670,1836,cs,{
name = hr01;
}),
(670,1918,ls),
(670,2030,o),
(605,2115,o),
(417,2115,cs),
(231,2115,o),
(166,2030,o),
(166,1918,cs),
(166,1836,ls),
(166,1726,o),
(231,1639,o),
(417,1639,cs)
);
},
{
closed = 1;
nodes = (
(1459,1639,o),
(1523,1726,o),
(1523,1836,cs),
(1523,1918,ls),
(1523,2030,o),
(1459,2115,o),
(1273,2115,cs),
(1084,2115,o),
(1019,2030,o),
(1019,1918,cs),
(1019,1836,ls),
(1019,1726,o),
(1084,1639,o),
(1273,1639,cs)
);
}
);
width = 1690;
},
{
layerId = "661A777E-9960-44AA-8623-3AD7C626B4F3";
shapes = (
{
closed = 1;
nodes = (
(521,0,l),
(521,1453,l),
(296,1453,l),
(296,0,l)
);
},
{
closed = 1;
nodes = (
(1073,-563,ls),
(1293,-563,o),
(1394,-425,o),
(1394,-231,cs),
(1394,1453,l),
(1169,1453,l),
(1169,-372,l),
(521,-372,l),
(521,-563,l)
);
},
{
closed = 1;
nodes = (
(538,1774,o),
(586,1836,o),
(586,1918,cs,{
name = hr01;
}),
(586,1963,ls),
(586,2044,o),
(538,2106,o),
(408,2106,cs),
(279,2106,o),
(231,2044,o),
(231,1963,cs),
(231,1918,ls),
(231,1836,o),
(279,1774,o),
(408,1774,cs)
);
},
{
closed = 1;
nodes = (
(1411,1774,o),
(1459,1836,o),
(1459,1918,cs),
(1459,1963,ls),
(1459,2044,o),
(1411,2106,o),
(1281,2106,cs),
(1152,2106,o),
(1104,2044,o),
(1104,1963,cs),
(1104,1918,ls),
(1104,1836,o),
(1152,1774,o),
(1281,1774,cs)
);
}
);
width = 1690;
}
);
unicode = 307;
}
{
glyphname = lslash;
layers = (
{
layerId = master01;
shapes = (
{
closed = 1;
nodes = (
(1436,0,l),
(1436,54,l),
(876,54,l),
(876,924,l),
(1363,1084,l),
(1363,1140,l),
(876,980,l),
(876,2084,l),
(256,2084,l),
(256,2030,l),
(817,2030,l),
(817,963,l),
(327,805,l),
(327,749,l),
(817,907,l),
(817,54,l),
(256,54,l),
(256,0,l,{
name = hr00;
})
);
}
);
width = 1690;
},
{
layerId = "D7CFBB37-D300-46E8-A355-ECFF19545BAA";
shapes = (
{
closed = 1;
nodes = (
(1498,0,l),
(1498,324,l),
(1053,324,l),
(1053,848,l),
(1416,966,l),
(1416,1273,l),
(1053,1155,l),
(1053,2084,l),
(191,2084,l),
(191,1760,l),
(636,1760,l),
(636,1028,l),
(273,910,l),
(273,603,l),
(636,721,l),
(636,324,l),
(191,324,l),
(191,0,l,{
name = hr00;
})
);
}
);
width = 1690;
},
{
layerId = "661A777E-9960-44AA-8623-3AD7C626B4F3";
shapes = (
{
closed = 1;
nodes = (
(1464,0,l),
(1464,191,l),
(957,191,l),
(957,876,l),
(1388,1017,l),
(1388,1205,l),
(957,1064,l),
(957,2084,l),
(225,2084,l),
(225,1892,l),
(732,1892,l),
(732,1000,l),
(301,859,l),
(301,670,l),
(732,811,l),
(732,191,l),
(225,191,l),
(225,0,l,{
name = hr00;
})
);
}
);
width = 1690;
}
);
unicode = 322;
}
{
glyphname = napostrophe;
layers = (
{
layerId = master01;
shapes = (
{
closed = 1;
nodes = (
(417,0,l),
(417,1048,ls),
(417,1307,o),
(628,1433,o),
(862,1433,cs),
(1143,1433,o),
(1301,1284,o),
(1301,938,cs),
(1301,0,l),
(1360,0,l),
(1360,946,ls),
(1360,1298,o),
(1191,1487,o),
(870,1487,cs),
(614,1487,o),
(476,1369,o),
(425,1245,c),
(417,1245,l),
(417,1453,l,{
name = hr01;
}),
(358,1453,l),
(358,0,l)
);
},
{
closed = 1;
nodes = (
(90,1563,l),
(231,2084,l),
(124,2084,l),
(42,1563,l)
);
}
);
width = 1690;
},
{
layerId = "D7CFBB37-D300-46E8-A355-ECFF19545BAA";
shapes = (
{
closed = 1;
nodes = (
(707,0,l),
(707,955,l),
(707,1107,o),
(819,1183,o),
(938,1183,cs),
(1079,1183,o),
(1152,1076,o),
(1152,884,cs),
(1152,0,l),
(1546,0,l),
(1546,963,ls),
(1546,1315,o),
(1377,1487,o),
(1126,1487,cs),
(904,1487,o),
(783,1352,o),
(724,1188,c),
(707,1188,l),
(707,1453,l,{
name = hr01;
}),
(313,1453,l),
(313,0,l)
);
},
{
closed = 1;
nodes = (
(194,1490,l),
(380,2084,l),
(17,2084,l),
(0,1490,l,{
name = hr02;
})
);
}
);
width = 1690;
},
{
layerId = "661A777E-9960-44AA-8623-3AD7C626B4F3";
shapes = (
{
closed = 1;
nodes = (
(501,0,l),
(501,1008,l),
(501,1200,o),
(681,1287,o),
(862,1287,cs),
(1084,1287,o),
(1205,1157,o),
(1205,893,cs),
(1205,0,l),
(1431,0,l),
(1431,932,ls),
(1431,1284,o),
(1231,1487,o),
(926,1487,cs),
(687,1487,o),
(574,1360,o),
(513,1217,c),
(501,1217,l),
(501,1453,l,{
name = hr01;
}),
(276,1453,l),
(276,0,l)
);
},
{
closed = 1;
nodes = (
(149,1563,l),
(296,2084,l),
(34,2084,l),
(0,1563,l,{
name = hr02;
})
);
}
);
width = 1690;
}
);
unicode = 329;
}
{
glyphname = Eng;
layers = (
{
layerId = master01;
shapes = (
{
closed = 1;
nodes = (
(335,1881,l),
(344,1881,l),
(1324,0,l),
(1354,0,l),
(1354,-513,l),
(507,-513,l),
(507,-563,l),
(1332,-563,ls),
(1388,-563,o),
(1414,-538,o),
(1414,-482,cs),
(1414,1966,l),
(1354,1966,l),
(1354,84,l),
(1346,84,l),
(366,1966,l),
(276,1966,l),
(276,0,l),
(335,0,l,{
name = hr00;
})
);
}
);
width = 1690;
},
{
layerId = "D7CFBB37-D300-46E8-A355-ECFF19545BAA";
shapes = (
{
closed = 1;
nodes = (
(532,1307,l),
(563,1307,l),
(1011,0,l),
(1132,0,l),
(1132,-253,l),
(532,-253,l),
(532,-563,l),
(1076,-563,ls),
(1374,-563,o),
(1518,-389,o),
(1518,-144,cs),
(1518,1966,l),
(1157,1966,l),
(1157,659,l),
(1126,659,l),
(679,1966,l),
(172,1966,l),
(172,0,l),
(532,0,l,{
name = hr00;
})
);
}
);
width = 1690;
},
{
layerId = "661A777E-9960-44AA-8623-3AD7C626B4F3";
shapes = (
{
closed = 1;
nodes = (
(439,1664,l),
(459,1664,l),
(1129,0,l),
(1250,0,l),
(1250,-372,l),
(442,-372,l),
(442,-563,l),
(1143,-563,ls),
(1363,-563,o),
(1464,-425,o),
(1464,-231,cs),
(1464,1966,l),
(1250,1966,l),
(1250,318,l),
(1231,318,l),
(560,1966,l),
(225,1966,l),
(225,0,l),
(439,0,l,{
name = hr00;
})
);
}
);
width = 1690;
}
);
unicode = 330;
}
{
glyphname = eng;
layers = (
{
layerId = master01;
shapes = (
{
closed = 1;
nodes = (
(1278,-563,ls),
(1335,-563,o),
(1360,-538,o),
(1360,-482,cs),
(1360,946,ls),
(1360,1298,o),
(1191,1487,o),
(870,1487,cs),
(614,1487,o),
(476,1369,o),
(425,1245,c),
(417,1245,l),
(417,1453,l,{
name = hr01;
}),
(358,1453,l),
(358,0,l),
(417,0,l),
(417,1048,ls),
(417,1307,o),
(628,1433,o),
(862,1433,cs,{
name = hr02;
}),
(1143,1433,o),
(1301,1284,o),
(1301,938,cs),
(1301,-510,l),
(586,-510,l),
(586,-563,l)
);
}
);
width = 1690;
},
{
layerId = "D7CFBB37-D300-46E8-A355-ECFF19545BAA";
shapes = (
{
closed = 1;
nodes = (
(1076,-563,ls),
(1377,-563,o),
(1518,-389,o),
(1518,-144,cs),
(1518,941,ls),
(1518,1293,o),
(1324,1487,o),
(1045,1487,cs),
(811,1487,o),
(681,1352,o),
(617,1188,c),
(600,1188,l),
(600,1453,l,{
name = hr01;
}),
(183,1453,l),
(183,0,l),
(600,0,l),
(600,955,l),
(600,1095,o),
(727,1166,o),
(856,1166,cs,{
name = hr02;
}),
(1019,1166,o),
(1101,1067,o),
(1101,884,cs),
(1101,-239,l),
(600,-239,l),
(600,-563,l)
);
}
);
width = 1690;
},
{
layerId = "661A777E-9960-44AA-8623-3AD7C626B4F3";
shapes = (
{
closed = 1;
nodes = (
(1110,-563,ls),
(1329,-563,o),
(1431,-425,o),
(1431,-231,cs),
(1431,932,ls),
(1431,1284,o),
(1231,1487,o),
(926,1487,cs),
(687,1487,o),
(574,1360,o),
(513,1217,c),
(501,1217,l),
(501,1453,l,{
name = hr01;
}),
(276,1453,l),
(276,0,l),
(501,0,l),
(501,1008,l),
(501,1200,o),
(681,1287,o),
(862,1287,cs,{
name = hr02;
}),
(1084,1287,o),
(1205,1157,o),
(1205,893,cs),
(1205,-372,l),
(501,-372,l),
(501,-563,l)
);
}
);
width = 1690;
}
);
unicode = 331;
}
{
glyphname = OE;
layers = (
{
layerId = master01;
shapes = (
{
closed = 1;
nodes = (
(1554,56,l),
(988,56,l),
(988,969,l),
(1515,969,l),
(1515,1025,l),
(988,1025,l),
(988,1909,l),
(1554,1909,l),
(1554,1966,l),
(842,1966,ls),
(372,1966,o),
(172,1633,o),
(172,983,cs),
(172,332,o),
(372,0,o),
(842,0,cs),
(1554,0,l,{
name = hr00;
})
);
},
{
closed = 1;
nodes = (
(420,56,o),
(239,372,o),
(239,893,cs),
(239,1073,ls),
(239,1594,o),
(420,1909,o),
(839,1909,cs),
(926,1909,l),
(926,56,l),
(839,56,ls)
);
}
);
width = 1690;
},
{
layerId = "D7CFBB37-D300-46E8-A355-ECFF19545BAA";
shapes = (
{
closed = 1;
nodes = (
(1650,313,l),
(1214,313,l),
(1214,839,l),
(1622,839,l),
(1622,1152,l),
(1214,1152,l),
(1214,1653,l),
(1650,1653,l),
(1650,1966,l),
(780,1966,ls),
(273,1966,o),
(28,1614,o),
(28,983,cs),
(28,352,o),
(273,0,o),
(780,0,cs),
(1650,0,l,{
name = hr00;
})
);
},
{
closed = 1;
nodes = (
(555,313,o),
(439,484,o),
(439,817,cs),
(439,1149,ls),
(439,1481,o),
(555,1653,o),
(808,1653,cs),
(825,1653,l),
(825,313,l),
(808,313,ls)
);
}
);
width = 1690;
},
{
layerId = "661A777E-9960-44AA-8623-3AD7C626B4F3";
shapes = (
{
closed = 1;
nodes = (
(1577,194,l),
(1104,194,l),
(1104,898,l),
(1543,898,l),
(1543,1093,l),
(1104,1093,l),
(1104,1771,l),
(1577,1771,l),
(1577,1966,l),
(814,1966,ls),
(338,1966,o),
(104,1628,o),
(104,983,cs),
(104,338,o),
(338,0,o),
(814,0,cs),
(1577,0,l,{
name = hr00;
})
);
},
{
closed = 1;
nodes = (
(510,194,o),
(344,428,o),
(344,831,cs),
(344,1135,ls),
(344,1538,o),
(510,1771,o),
(825,1771,cs),
(879,1771,l),
(879,194,l),
(825,194,ls)
);
}
);
width = 1690;
}
);
unicode = 338;
}
{
glyphname = Scedilla;
layers = (
{
anchors = (
{
name = top;
pos = (859,1966);
}
);
layerId = master01;
shapes = (
{
closed = 1;
nodes = (
(1022,-569,o),
(1110,-476,o),
(1110,-369,cs),
(1110,-268,o),
(1031,-203,o),
(921,-203,cs),
(895,-203,o),
(862,-206,o),
(836,-211,c),
(831,-206,l),
(873,-34,l),
(1239,-34,o),
(1484,146,o),
(1484,498,cs),
(1484,729,o),
(1385,952,o),
(972,1019,cs),
(746,1056,ls),
(501,1095,o),
(293,1200,o),
(293,1507,cs),
(293,1799,o),
(498,1943,o),
(836,1943,cs),
(1118,1943,o),
(1290,1856,o),
(1405,1687,c),
(1453,1726,l),
(1343,1887,o),
(1163,1999,o),
(842,1999,cs),
(473,1999,o),
(231,1839,o),
(231,1507,cs),
(231,1276,o),
(338,1062,o),
(735,997,cs),
(960,960,ls),
(1202,921,o),
(1422,822,o),
(1422,496,cs),
(1422,186,o),
(1214,23,o),
(856,23,cs),
(535,23,o),
(375,144,o),
(237,324,c),
(186,287,l),
(321,107,o),
(498,-25,o),
(822,-34,c),
(774,-237,l),
(879,-242,ls),
(1005,-248,o),
(1050,-301,o),
(1050,-372,cs),
(1050,-467,o),
(980,-518,o),
(879,-518,cs),
(794,-518,o),
(727,-490,o),
(687,-442,c),
(650,-479,l),
(684,-527,o),
(772,-569,o),
(879,-569,cs,{
name = hr00;
})
);
}
);
width = 1690;
},
{
anchors = (
{
name = top;
pos = (859,1966);
}
);
layerId = "D7CFBB37-D300-46E8-A355-ECFF19545BAA";
shapes = (
{
closed = 1;
nodes = (
(1053,-597,o),
(1233,-532,o),
(1233,-341,cs),
(1233,-203,o),
(1140,-146,o),
(1028,-146,cs),
(983,-146,o),
(938,-155,o),
(893,-166,c),
(881,-155,l),
(907,-31,l),
(1338,0,o),
(1566,259,o),
(1566,605,cs,{
name = hr01;
}),
(1566,915,o),
(1383,1101,o),
(1067,1157,cs),
(862,1194,ls),
(670,1228,o),
(591,1287,o),
(591,1422,cs),
(591,1577,o),
(687,1656,o),
(876,1656,cs),
(1053,1656,o),
(1200,1585,o),
(1304,1470,c),
(1543,1737,l),
(1405,1898,o),
(1174,1999,o),
(873,1999,cs),
(428,1999,o),
(166,1780,o),
(166,1402,cs),
(166,1115,o),
(315,898,o),
(667,839,cs),
(873,805,ls),
(1064,774,o),
(1138,710,o),
(1138,572,cs),
(1138,403,o),
(1028,310,o),
(828,310,cs),
(653,310,o),
(476,383,o),
(332,541,c),
(87,270,l),
(222,101,o),
(439,-8,o),
(718,-31,c),
(681,-208,l),
(741,-214,ls),
(915,-231,o),
(952,-284,o),
(952,-327,cs,{
name = hr02;
}),
(952,-375,o),
(898,-397,o),
(828,-397,cs),
(741,-397,o),
(679,-360,o),
(642,-315,c),
(513,-473,l),
(560,-529,o),
(667,-597,o),
(862,-597,cs)
);
}
);
width = 1690;
},
{
anchors = (
{
name = top;
pos = (859,1966);
}
);
layerId = "661A777E-9960-44AA-8623-3AD7C626B4F3";
shapes = (
{
closed = 1;
nodes = (
(1036,-583,o),
(1183,-510,o),
(1183,-349,cs),
(1183,-228,o),
(1101,-163,o),
(991,-163,cs),
(957,-163,o),
(918,-169,o),
(881,-180,c),
(873,-172,l),
(901,-31,l),
(1298,-11,o),
(1526,203,o),
(1526,549,cs),
(1526,805,o),
(1400,1019,o),
(1014,1087,cs),
(803,1124,ls),
(524,1171,o),
(434,1284,o),
(434,1459,cs),
(434,1681,o),
(583,1797,o),
(848,1797,cs),
(1093,1797,o),
(1233,1698,o),
(1343,1554,c),
(1509,1698,l),
(1377,1887,o),
(1163,1999,o),
(850,1999,cs),
(451,1999,o),
(194,1814,o),
(194,1453,cs),
(194,1205,o),
(315,983,o),
(701,918,cs),
(921,881,ls),
(1188,836,o),
(1287,735,o),
(1287,543,cs),
(1287,307,o),
(1132,169,o),
(848,169,cs),
(611,169,o),
(451,262,o),
(298,453,c),
(127,313,l),
(262,124,o),
(453,-11,o),
(760,-31,c),
(724,-217,l),
(803,-228,ls),
(960,-251,o),
(994,-293,o),
(994,-344,cs),
(994,-403,o),
(941,-431,o),
(870,-431,cs),
(788,-431,o),
(732,-394,o),
(698,-352,c),
(591,-467,l),
(631,-521,o),
(718,-583,o),
(870,-583,cs,{
name = hr00;
})
);
}
);
width = 1690;
}
);
unicode = 350;
}
{
glyphname = Tcedilla;
layers = (
{
layerId = master01;
shapes = (
{
closed = 1;
nodes = (
(1011,-569,o),
(1098,-476,o),
(1098,-369,cs),
(1098,-268,o),
(1019,-203,o),
(910,-203,cs),
(884,-203,o),
(850,-206,o),
(825,-211,c),
(819,-206,l),
(870,0,l),
(876,0,l),
(876,1909,l),
(1574,1909,l),
(1574,1966,l),
(115,1966,l),
(115,1909,l),
(814,1909,l),
(814,0,l),
(819,0,l),
(763,-237,l),
(867,-242,ls),
(994,-248,o),
(1039,-301,o),
(1039,-372,cs),
(1039,-467,o),
(969,-518,o),
(867,-518,cs),
(783,-518,o),
(715,-490,o),
(676,-442,c),
(639,-479,l),
(673,-527,o),
(760,-569,o),
(867,-569,cs,{
name = hr00;
})
);
}
);
width = 1690;
},
{
layerId = "D7CFBB37-D300-46E8-A355-ECFF19545BAA";
shapes = (
{
closed = 1;
nodes = (
(1076,-597,o),
(1256,-532,o),
(1256,-341,cs),
(1256,-203,o),
(1163,-146,o),
(1050,-146,cs),
(1005,-146,o),
(960,-155,o),
(915,-166,c),
(904,-155,l),
(935,0,l),
(1056,0,l,{
name = hr01;
}),
(1056,1619,l),
(1622,1619,l),
(1622,1966,l),
(68,1966,l),
(68,1619,l),
(634,1619,l),
(634,0,l),
(746,0,l),
(704,-208,l),
(763,-214,ls),
(938,-231,o),
(974,-284,o),
(974,-327,cs,{
name = hr02;
}),
(974,-375,o),
(921,-397,o),
(850,-397,cs),
(763,-397,o),
(701,-360,o),
(665,-315,c),
(535,-473,l),
(583,-529,o),
(690,-597,o),
(884,-597,cs)
);
}
);
width = 1690;
},
{
layerId = "661A777E-9960-44AA-8623-3AD7C626B4F3";
shapes = (
{
closed = 1;
nodes = (
(1045,-583,o),
(1191,-510,o),
(1191,-349,cs),
(1191,-228,o),
(1110,-163,o),
(1000,-163,cs),
(966,-163,o),
(926,-169,o),
(890,-180,c),
(881,-172,l),
(915,0,l),
(963,0,l),
(963,1760,l),
(1619,1760,l),
(1619,1966,l),
(70,1966,l),
(70,1760,l),
(727,1760,l),
(727,0,l),
(774,0,l),
(732,-217,l),
(811,-228,ls),
(969,-251,o),
(1002,-293,o),
(1002,-344,cs),
(1002,-403,o),
(949,-431,o),
(879,-431,cs),
(797,-431,o),
(741,-394,o),
(707,-352,c),
(600,-467,l),
(639,-521,o),
(727,-583,o),
(879,-583,cs,{
name = hr00;
})
);
}
);
width = 1690;
}
);
unicode = 354;
}
{
glyphname = Ohorn;
layers = (
{
anchors = (
{
name = bottom;
pos = (845,0);
},
{
name = top;
pos = (845,1966);
}
);
layerId = master01;
shapes = (
{
closed = 1;
nodes = (
(1374,2278,l),
(1374,1966,l),
(1062,1966,l),
(997,1988,o),
(924,1999,o),
(845,1999,cs,{
name = hr01;
}),
(434,1999,o),
(200,1704,o),
(200,983,cs),
(200,262,o),
(434,-34,o),
(845,-34,cs),
(1256,-34,o),
(1490,262,o),
(1490,983,cs),
(1490,1484,o),
(1374,1785,o),
(1163,1915,c,{
name = hr02;
}),
(1349,1915,ls),
(1405,1915,o),
(1431,1940,o),
(1431,1997,cs),
(1431,2278,l)
);
},
{
closed = 1;
nodes = (
(470,23,o),
(268,315,o),
(268,893,cs),
(268,1073,ls),
(268,1650,o),
(470,1943,o),
(845,1943,cs,{
name = hr03;
}),
(1219,1943,o),
(1422,1650,o),
(1422,1073,cs),
(1422,893,ls),
(1422,315,o),
(1219,23,o),
(845,23,cs)
);
}
);
width = 1690;
},
{
anchors = (
{
name = bottom;
pos = (845,0);
},
{
name = top;
pos = (845,1966);
}
);
layerId = "D7CFBB37-D300-46E8-A355-ECFF19545BAA";
shapes = (
{
closed = 1;
nodes = (
(1321,2289,l),
(1321,1966,l),
(1095,1966,l),
(1022,1988,o),
(938,1999,o),
(845,1999,cs,{
name = hr01;
}),
(318,1999,o),
(76,1625,o),
(76,983,cs),
(76,341,o),
(318,-34,o),
(845,-34,cs),
(1371,-34,o),
(1614,341,o),
(1614,983,cs),
(1614,1309,o),
(1569,1563,o),
(1425,1718,c,{
name = hr02;
}),
(1433,1718,ls),
(1619,1718,o),
(1670,1828,o),
(1670,1999,cs,{
name = hr03;
}),
(1670,2289,l)
);
},
{
closed = 1;
nodes = (
(605,307,o),
(527,496,o),
(527,811,cs),
(527,1155,ls),
(527,1470,o),
(605,1659,o),
(845,1659,cs),
(1084,1659,o),
(1163,1470,o),
(1163,1155,cs,{
name = hr04;
}),
(1163,814,ls),
(1163,496,o),
(1084,307,o),
(845,307,cs)
);
}
);
width = 1690;
},
{
anchors = (
{
name = bottom;
pos = (845,0);
},
{
name = top;
pos = (845,1966);
}
);
layerId = "661A777E-9960-44AA-8623-3AD7C626B4F3";
shapes = (
{
closed = 1;
nodes = (
(1346,2281,l),
(1346,1966,l),
(1070,1966,l),
(1002,1988,o),
(926,1999,o),
(845,1999,cs,{
name = hr01;
}),
(366,1999,o),
(158,1625,o),
(158,983,cs),
(158,341,o),
(366,-34,o),
(845,-34,cs),
(1324,-34,o),
(1532,341,o),
(1532,983,cs),
(1532,1374,o),
(1462,1659,o),
(1290,1822,c,{
name = hr02;
}),
(1369,1822,ls),
(1509,1822,o),
(1546,1901,o),
(1546,1999,cs,{
name = hr03;
}),
(1546,2281,l)
);
},
{
closed = 1;
nodes = (
(532,172,o),
(408,428,o),
(408,822,cs),
(408,1143,ls),
(408,1538,o),
(532,1794,o),
(845,1794,cs),
(1157,1794,o),
(1281,1538,o),
(1281,1143,cs,{
name = hr04;
}),
(1281,822,ls),
(1281,428,o),
(1157,172,o),
(845,172,cs)
);
}
);
width = 1690;
}
);
unicode = 416;
}
{
glyphname = ohorn;
layers = (
{
anchors = (
{
name = bottom;
pos = (845,0);
},
{
name = top;
pos = (845,1453);
}
);
layerId = master01;
shapes = (
{
closed = 1;
nodes = (
(1352,1453,l),
(1056,1453,l),
(991,1476,o),
(921,1487,o),
(845,1487,cs,{
name = hr01;
}),
(473,1487,o),
(253,1231,o),
(253,727,cs),
(253,222,o),
(473,-34,o),
(845,-34,cs),
(1217,-34,o),
(1436,222,o),
(1436,727,cs),
(1436,1062,o),
(1338,1290,o),
(1160,1402,c,{
name = hr02;
}),
(1326,1402,ls),
(1383,1402,o),
(1408,1431,o),
(1408,1487,cs,{
name = hr03;
}),
(1408,1766,l),
(1352,1766,l)
);
},
{
closed = 1;
nodes = (
(507,20,o),
(318,265,o),
(318,659,cs),
(318,794,ls),
(318,1188,o),
(507,1433,o),
(845,1433,cs),
(1183,1433,o),
(1371,1188,o),
(1371,794,cs,{
name = hr04;
}),
(1371,659,ls),
(1371,265,o),
(1183,20,o),
(845,20,cs)
);
}
);
width = 1690;
},
{
anchors = (
{
name = bottom;
pos = (845,0);
},
{
name = top;
pos = (845,1453);
}
);
layerId = "D7CFBB37-D300-46E8-A355-ECFF19545BAA";
shapes = (
{
closed = 1;
nodes = (
(1293,1453,l),
(1095,1453,l),
(1019,1476,o),
(935,1487,o),
(845,1487,cs,{
name = hr01;
}),
(391,1487,o),
(115,1197,o),
(115,727,cs),
(115,256,o),
(391,-34,o),
(845,-34,cs),
(1298,-34,o),
(1574,256,o),
(1574,727,cs),
(1574,929,o),
(1521,1087,o),
(1428,1205,c,{
name = hr02;
}),
(1433,1205,ls),
(1571,1205,o),
(1642,1293,o),
(1642,1487,cs,{
name = hr03;
}),
(1642,1777,l),
(1293,1777,l)
);
},
{
closed = 1;
nodes = (
(659,276,o),
(546,397,o),
(546,611,cs),
(546,842,ls),
(546,1056,o),
(659,1177,o),
(845,1177,cs),
(1031,1177,o),
(1143,1056,o),
(1143,842,cs,{
name = hr04;
}),
(1143,611,ls),
(1143,397,o),
(1031,276,o),
(845,276,cs)
);
}
);
width = 1690;
},
{
anchors = (
{
name = bottom;
pos = (845,0);
},
{
name = top;
pos = (845,1453);
}
);
layerId = "661A777E-9960-44AA-8623-3AD7C626B4F3";
shapes = (
{
closed = 1;
nodes = (
(1321,1453,l),
(1067,1453,l),
(1000,1476,o),
(924,1487,o),
(845,1487,cs,{
name = hr01;
}),
(436,1487,o),
(186,1188,o),
(186,727,cs),
(186,265,o),
(436,-34,o),
(845,-34,cs),
(1253,-34,o),
(1504,265,o),
(1504,727,cs),
(1504,980,o),
(1425,1183,o),
(1281,1315,c,{
name = hr02;
}),
(1343,1315,ls),
(1484,1315,o),
(1521,1394,o),
(1521,1487,cs,{
name = hr03;
}),
(1521,1768,l),
(1321,1768,l)
);
},
{
closed = 1;
nodes = (
(594,161,o),
(425,310,o),
(425,622,cs),
(425,831,ls),
(425,1143,o),
(594,1293,o),
(845,1293,cs),
(1095,1293,o),
(1264,1143,o),
(1264,831,cs,{
name = hr04;
}),
(1264,622,ls),
(1264,310,o),
(1095,161,o),
(845,161,cs)
);
}
);
width = 1690;
}
);
unicode = 417;
}
{
glyphname = schwa;
layers = (
{
layerId = master01;
shapes = (
{
closed = 1;
nodes = (
(251,701,ls),
(251,253,o),
(453,-34,o),
(839,-34,cs),
(1211,-34,o),
(1431,222,o),
(1431,727,cs),
(1431,1231,o),
(1208,1487,o),
(828,1487,cs),
(546,1487,o),
(358,1340,o),
(273,1104,c),
(324,1084,l),
(411,1318,o),
(586,1433,o),
(828,1433,cs),
(1174,1433,o),
(1366,1188,o),
(1366,794,cs),
(1366,721,l),
(251,721,l,{
name = hr00;
})
);
},
{
closed = 1;
nodes = (
(1366,670,l),
(1366,659,ls),
(1366,265,o),
(1177,20,o),
(839,20,cs),
(501,20,o),
(313,265,o),
(313,659,cs),
(313,670,l)
);
}
);
width = 1690;
},
{
layerId = "D7CFBB37-D300-46E8-A355-ECFF19545BAA";
shapes = (
{
closed = 1;
nodes = (
(141,704,ls),
(141,251,o),
(408,-34,o),
(842,-34,cs),
(1278,-34,o),
(1549,256,o),
(1549,732,cs),
(1549,1197,o),
(1293,1487,o),
(805,1487,cs),
(493,1487,o),
(296,1369,o),
(183,1231,c),
(408,986,l),
(498,1093,o),
(620,1166,o),
(791,1166,cs),
(1014,1166,o),
(1135,1039,o),
(1135,853,cs),
(1135,828,l),
(141,828,l,{
name = hr00;
})
);
},
{
closed = 1;
nodes = (
(1135,594,l),
(1135,572,ls),
(1135,386,o),
(1019,265,o),
(839,265,cs),
(659,265,o),
(549,383,o),
(549,572,cs),
(549,594,l)
);
}
);
width = 1690;
},
{
layerId = "661A777E-9960-44AA-8623-3AD7C626B4F3";
shapes = (
{
closed = 1;
nodes = (
(189,676,ls),
(189,265,o),
(442,-34,o),
(834,-34,cs),
(1228,-34,o),
(1501,265,o),
(1501,729,cs),
(1501,1188,o),
(1236,1487,o),
(819,1487,cs),
(532,1487,o),
(324,1346,o),
(237,1152,c),
(403,1039,l),
(479,1197,o),
(625,1293,o),
(819,1293,cs),
(1093,1293,o),
(1264,1107,o),
(1264,850,cs),
(1264,783,l),
(189,783,l,{
name = hr00;
})
);
},
{
closed = 1;
nodes = (
(1264,614,l),
(1264,594,ls),
(1264,341,o),
(1081,152,o),
(834,152,cs),
(594,152,o),
(431,327,o),
(431,583,cs),
(431,614,l)
);
}
);
width = 1690;
}
);
unicode = 601;
}
{
glyphname = commaturnedtop;
layers = (
{
anchors = (
{
name = _top;
pos = (845,1453);
}
);
layerId = master01;
shapes = (
{
closed = 1;
nodes = (
(879,1670,l),
(1031,2166,l),
(980,2166,l),
(808,1670,l,{
name = hr00;
})
);
}
);
width = 1690;
},
{
anchors = (
{
name = _top;
pos = (845,1453);
}
);
layerId = "D7CFBB37-D300-46E8-A355-ECFF19545BAA";
shapes = (
{
closed = 1;
nodes = (
(1064,1630,l),
(1115,2236,l),
(867,2236,l),
(622,1630,l,{
name = hr00;
})
);
}
);
width = 1690;
},
{
anchors = (
{
name = _top;
pos = (845,1453);
}
);
layerId = "661A777E-9960-44AA-8623-3AD7C626B4F3";
shapes = (
{
closed = 1;
nodes = (
(991,1653,l),
(1070,2185,l),
(898,2185,l),
(684,1653,l,{
name = hr00;
})
);
}
);
width = 1690;
}
);
unicode = 699;
}
{
glyphname = breve;
layers = (
{
anchors = (
{
name = _top;
pos = (845,1453);
}
);
layerId = master01;
shapes = (
{
closed = 1;
nodes = (
(1045,1721,o),
(1121,1844,o),
(1233,2084,c),
(1191,2104,l),
(1112,1966,ls),
(1028,1819,o),
(963,1774,o),
(845,1774,cs),
(727,1774,o),
(662,1819,o),
(577,1966,cs),
(498,2104,l),
(456,2084,l),
(569,1844,o),
(645,1721,o),
(845,1721,cs,{
name = hr00;
})
);
}
);
width = 1690;
},
{
anchors = (
{
name = _top;
pos = (845,1453);
}
);
layerId = "D7CFBB37-D300-46E8-A355-ECFF19545BAA";
shapes = (
{
closed = 1;
nodes = (
(1183,1605,o),
(1321,1881,o),
(1391,2084,c),
(1157,2202,l),
(1098,2112,ls),
(1011,1977,o),
(955,1895,o),
(845,1895,cs),
(735,1895,o),
(679,1977,o),
(591,2112,cs),
(532,2202,l),
(298,2084,l),
(369,1881,o),
(507,1605,o),
(845,1605,cs,{
name = hr00;
})
);
}
);
width = 1690;
},
{
anchors = (
{
name = _top;
pos = (845,1453);
}
);
layerId = "661A777E-9960-44AA-8623-3AD7C626B4F3";
shapes = (
{
closed = 1;
nodes = (
(1146,1676,o),
(1245,1929,o),
(1298,2101,c),
(1155,2163,l),
(1095,2067,ls),
(1008,1926,o),
(969,1859,o),
(845,1859,cs),
(721,1859,o),
(681,1926,o),
(594,2067,cs),
(535,2163,l),
(391,2101,l),
(445,1929,o),
(543,1676,o),
(845,1676,cs,{
name = hr00;
})
);
}
);
width = 1690;
}
);
unicode = 728;
}
{
glyphname = dotaccent;
layers = (
{
anchors = (
{
name = _top;
pos = (845,1453);
}
);
layerId = master01;
shapes = (
{
closed = 1;
nodes = (
(904,1828,o),
(926,1856,o),
(926,1892,cs),
(926,1915,ls),
(926,1951,o),
(904,1980,o),
(845,1980,cs),
(786,1980,o),
(763,1951,o),
(763,1915,cs),
(763,1892,ls),
(763,1856,o),
(786,1828,o),
(845,1828,cs,{
name = hr00;
})
);
}
);
width = 1690;
},
{
anchors = (
{
name = _top;
pos = (845,1453);
}
);
layerId = "D7CFBB37-D300-46E8-A355-ECFF19545BAA";
shapes = (
{
closed = 1;
nodes = (
(1031,1639,o),
(1095,1726,o),
(1095,1836,cs),
(1095,1918,ls),
(1095,2030,o),
(1031,2115,o),
(845,2115,cs),
(659,2115,o),
(594,2030,o),
(594,1918,cs),
(594,1836,ls),
(594,1726,o),
(659,1639,o),
(845,1639,cs,{
name = hr00;
})
);
}
);
width = 1690;
},
{
anchors = (
{
name = _top;
pos = (845,1453);
}
);
layerId = "661A777E-9960-44AA-8623-3AD7C626B4F3";
shapes = (
{
closed = 1;
nodes = (
(974,1723,o),
(1022,1785,o),
(1022,1867,cs),
(1022,1912,ls),
(1022,1994,o),
(974,2056,o),
(845,2056,cs),
(715,2056,o),
(667,1994,o),
(667,1912,cs),
(667,1867,ls),
(667,1785,o),
(715,1723,o),
(845,1723,cs,{
name = hr00;
})
);
}
);
width = 1690;
}
);
unicode = 729;
}
{
glyphname = ring;
layers = (
{
anchors = (
{
name = _top;
pos = (845,1453);
}
);
layerId = master01;
shapes = (
{
closed = 1;
nodes = (
(997,1687,o),
(1098,1791,o),
(1098,1943,cs),
(1098,2095,o),
(997,2199,o),
(845,2199,cs),
(693,2199,o),
(591,2095,o),
(591,1943,cs),
(591,1791,o),
(693,1687,o),
(845,1687,cs,{
name = hr00;
})
);
},
{
closed = 1;
nodes = (
(724,1737,o),
(648,1814,o),
(648,1929,cs),
(648,1957,ls),
(648,2073,o),
(724,2149,o),
(845,2149,cs),
(966,2149,o),
(1042,2073,o),
(1042,1957,cs),
(1042,1929,ls),
(1042,1814,o),
(966,1737,o),
(845,1737,cs)
);
}
);
width = 1690;
},
{
anchors = (
{
name = _top;
pos = (845,1453);
}
);
layerId = "D7CFBB37-D300-46E8-A355-ECFF19545BAA";
shapes = (
{
closed = 1;
nodes = (
(1079,1546,o),
(1262,1718,o),
(1262,1949,cs),
(1262,2182,o),
(1079,2351,o),
(845,2351,cs),
(611,2351,o),
(428,2180,o),
(428,1949,cs),
(428,1715,o),
(611,1546,o),
(845,1546,cs,{
name = hr00;
})
);
},
{
closed = 1;
nodes = (
(752,1757,o),
(701,1811,o),
(701,1901,cs),
(701,1997,ls),
(701,2084,o),
(752,2140,o),
(845,2140,cs),
(938,2140,o),
(988,2087,o),
(988,1997,cs),
(988,1901,ls),
(988,1814,o),
(938,1757,o),
(845,1757,cs)
);
}
);
width = 1690;
},
{
anchors = (
{
name = _top;
pos = (845,1453);
}
);
layerId = "661A777E-9960-44AA-8623-3AD7C626B4F3";
shapes = (
{
closed = 1;
nodes = (
(1028,1622,o),
(1171,1760,o),
(1171,1946,cs),
(1171,2132,o),
(1028,2270,o),
(845,2270,cs),
(662,2270,o),
(518,2132,o),
(518,1946,cs),
(518,1760,o),
(662,1622,o),
(845,1622,cs,{
name = hr00;
})
);
},
{
closed = 1;
nodes = (
(743,1760,o),
(681,1816,o),
(681,1915,cs),
(681,1977,ls),
(681,2075,o),
(743,2132,o),
(845,2132,cs),
(946,2132,o),
(1008,2075,o),
(1008,1977,cs),
(1008,1915,ls),
(1008,1816,o),
(946,1760,o),
(845,1760,cs)
);
}
);
width = 1690;
}
);
unicode = 730;
}
{
glyphname = commabelowcomb;
layers = (
{
anchors = (
{
name = _bottom;
}
);
layerId = master01;
shapes = (
{
closed = 1;
nodes = (
(-104,-707,l),
(39,-191,l),
(-31,-191,l),
(-155,-707,l,{
name = hr00;
})
);
}
);
width = 0;
},
{
anchors = (
{
name = _bottom;
}
);
layerId = "D7CFBB37-D300-46E8-A355-ECFF19545BAA";
shapes = (
{
closed = 1;
nodes = (
(-23,-758,l),
(222,-152,l),
(-220,-152,l),
(-270,-758,l,{
name = hr00;
})
);
}
);
width = 0;
},
{
anchors = (
{
name = _bottom;
}
);
layerId = "661A777E-9960-44AA-8623-3AD7C626B4F3";
shapes = (
{
closed = 1;
nodes = (
(-54,-707,l),
(161,-175,l),
(-146,-175,l),
(-225,-707,l,{
name = hr00;
})
);
}
);
width = 0;
}
);
unicode = 806;
}
{
glyphname = pi;
layers = (
{
layerId = master01;
shapes = (
{
closed = 1;
nodes = (
(425,0,l),
(425,1400,l),
(1200,1400,l),
(1200,82,ls),
(1200,25,o),
(1225,0,o),
(1281,0,cs),
(1580,0,l),
(1580,54,l),
(1259,54,l),
(1259,1400,l),
(1580,1400,l),
(1580,1453,l),
(45,1453,l),
(45,1400,l),
(366,1400,l),
(366,0,l,{
name = hr00;
})
);
}
);
width = 1690;
},
{
layerId = "D7CFBB37-D300-46E8-A355-ECFF19545BAA";
shapes = (
{
closed = 1;
nodes = (
(642,0,l),
(642,1129,l),
(1033,1129,l),
(1033,420,ls),
(1033,175,o),
(1177,0,o),
(1478,0,cs),
(1619,0,l),
(1619,324,l),
(1450,324,l),
(1450,1129,l),
(1619,1129,l),
(1619,1453,l),
(56,1453,l),
(56,1129,l),
(225,1129,l),
(225,0,l,{
name = hr00;
})
);
}
);
width = 1690;
},
{
layerId = "661A777E-9960-44AA-8623-3AD7C626B4F3";
shapes = (
{
closed = 1;
nodes = (
(541,0,l),
(541,1262,l),
(1107,1262,l),
(1107,332,ls),
(1107,138,o),
(1208,0,o),
(1428,0,cs),
(1591,0,l),
(1591,191,l),
(1332,191,l),
(1332,1262,l),
(1591,1262,l),
(1591,1453,l),
(56,1453,l),
(56,1262,l),
(315,1262,l),
(315,0,l,{
name = hr00;
})
);
}
);
width = 1690;
}
);
unicode = 960;
}
{
glyphname = uni0402;
layers = (
{
layerId = master01;
shapes = (
{
closed = 1;
nodes = (
(1405,-383,ls),
(1462,-383,o),
(1487,-358,o),
(1487,-301,cs),
(1487,656,ls),
(1487,1011,o),
(1329,1188,o),
(994,1188,cs),
(842,1188,o),
(698,1152,o),
(611,1101,c),
(605,1101,l),
(605,1909,l),
(1112,1909,l),
(1112,1966,l),
(37,1966,l),
(37,1909,l),
(543,1909,l),
(543,0,l),
(605,0,l),
(605,1039,l),
(687,1093,o),
(845,1132,o),
(994,1132,cs),
(1278,1132,o),
(1425,986,o),
(1425,656,cs),
(1428,-327,l),
(774,-327,l),
(774,-383,l,{
name = hr00;
})
);
}
);
width = 1690;
},
{
layerId = "D7CFBB37-D300-46E8-A355-ECFF19545BAA";
shapes = (
{
closed = 1;
nodes = (
(1188,-538,ls),
(1490,-538,o),
(1630,-363,o),
(1630,-118,cs),
(1630,617,ls),
(1630,1090,o),
(1478,1250,o),
(1118,1250,cs),
(1000,1250,o),
(904,1222,o),
(825,1188,c),
(811,1188,l),
(811,1619,l),
(1183,1619,l),
(1183,1966,l),
(14,1966,l),
(14,1619,l),
(386,1619,l),
(386,0,l),
(811,0,l),
(811,862,l),
(867,890,o),
(935,910,o),
(1008,910,cs),
(1143,910,o),
(1205,848,o),
(1205,628,cs),
(1205,-191,l),
(811,-191,l),
(811,-538,l,{
name = hr00;
})
);
}
);
width = 1690;
},
{
layerId = "661A777E-9960-44AA-8623-3AD7C626B4F3";
shapes = (
{
closed = 1;
nodes = (
(1233,-462,ls),
(1453,-462,o),
(1554,-324,o),
(1554,-130,cs),
(1554,648,ls),
(1554,1019,o),
(1405,1233,o),
(1025,1233,cs),
(929,1233,o),
(814,1208,o),
(729,1180,c),
(715,1180,l),
(715,1760,l),
(1166,1760,l),
(1166,1966,l),
(28,1966,l),
(28,1760,l),
(479,1760,l),
(479,0,l),
(715,0,l),
(715,972,l),
(794,1005,o),
(910,1028,o),
(1017,1028,cs),
(1231,1028,o),
(1318,907,o),
(1318,648,cs),
(1318,-256,l),
(715,-256,l),
(715,-462,l,{
name = hr00;
})
);
}
);
width = 1690;
}
);
unicode = 1026;
}
{
glyphname = uni0404;
layers = (
{
layerId = master01;
shapes = (
{
closed = 1;
nodes = (
(1118,1025,l),
(290,1025,l),
(290,1073,ls),
(290,1650,o),
(507,1943,o),
(915,1943,cs),
(1155,1943,o),
(1329,1805,o),
(1405,1583,c),
(1459,1602,l),
(1374,1844,o),
(1180,1999,o),
(915,1999,cs),
(470,1999,o),
(222,1704,o),
(222,983,cs),
(222,262,o),
(470,-34,o),
(915,-34,cs),
(1180,-34,o),
(1374,121,o),
(1459,363,c),
(1405,383,l),
(1329,161,o),
(1155,23,o),
(915,23,cs),
(507,23,o),
(290,315,o),
(290,893,cs),
(290,969,l),
(1118,969,l,{
name = hr00;
})
);
}
);
width = 1690;
},
{
layerId = "D7CFBB37-D300-46E8-A355-ECFF19545BAA";
shapes = (
{
closed = 1;
nodes = (
(1064,1169,l),
(549,1169,l),
(549,1205,ls),
(549,1487,o),
(650,1659,o),
(876,1659,cs),
(1090,1659,o),
(1160,1523,o),
(1200,1366,c),
(1594,1462,l),
(1518,1777,o),
(1307,1999,o),
(884,1999,cs),
(346,1999,o),
(99,1628,o),
(99,983,cs),
(99,338,o),
(346,-34,o),
(884,-34,cs),
(1307,-34,o),
(1518,189,o),
(1594,504,c),
(1200,600,l),
(1166,442,o),
(1090,307,o),
(876,307,cs),
(636,307,o),
(549,498,o),
(549,811,cs),
(549,822,l),
(1064,822,l,{
name = hr00;
})
);
}
);
width = 1690;
},
{
layerId = "661A777E-9960-44AA-8623-3AD7C626B4F3";
shapes = (
{
closed = 1;
nodes = (
(1090,1098,l),
(439,1098,l),
(439,1143,ls),
(439,1538,o),
(589,1794,o),
(910,1794,cs),
(1157,1794,o),
(1250,1650,o),
(1321,1476,c),
(1523,1569,l),
(1428,1783,o),
(1278,1999,o),
(910,1999,cs),
(422,1999,o),
(189,1636,o),
(189,983,cs),
(189,329,o),
(422,-34,o),
(910,-34,cs),
(1278,-34,o),
(1428,183,o),
(1523,397,c),
(1321,490,l),
(1250,315,o),
(1157,172,o),
(910,172,cs),
(589,172,o),
(439,428,o),
(439,822,cs),
(439,893,l),
(1090,893,l,{
name = hr00;
})
);
}
);
width = 1690;
}
);
unicode = 1028;
}
{
glyphname = uni040F;
layers = (
{
layerId = master01;
shapes = (
{
closed = 1;
nodes = (
(876,-422,l),
(876,0,l),
(1400,0,l),
(1400,1966,l),
(1338,1966,l),
(1338,56,l),
(352,56,l),
(352,1966,l),
(290,1966,l),
(290,0,l),
(814,0,l),
(814,-422,l,{
name = hr00;
})
);
}
);
width = 1690;
},
{
layerId = "D7CFBB37-D300-46E8-A355-ECFF19545BAA";
shapes = (
{
closed = 1;
nodes = (
(1045,-422,l),
(1045,0,l),
(1518,0,l),
(1518,1966,l),
(1093,1966,l),
(1093,346,l),
(597,346,l),
(597,1966,l),
(172,1966,l),
(172,0,l),
(645,0,l),
(645,-422,l,{
name = hr00;
})
);
}
);
width = 1690;
},
{
layerId = "661A777E-9960-44AA-8623-3AD7C626B4F3";
shapes = (
{
closed = 1;
nodes = (
(955,-422,l),
(955,0,l),
(1456,0,l),
(1456,1966,l),
(1219,1966,l),
(1219,206,l),
(470,206,l),
(470,1966,l),
(234,1966,l),
(234,0,l),
(738,0,l),
(738,-422,l,{
name = hr00;
})
);
}
);
width = 1690;
}
);
unicode = 1039;
}
{
glyphname = uni0411;
layers = (
{
layerId = master01;
shapes = (
{
closed = 1;
nodes = (
(952,0,ls),
(1273,0,o),
(1442,208,o),
(1442,529,cs),
(1442,850,o),
(1273,1059,o),
(952,1059,cs),
(349,1059,l),
(349,1909,l),
(1307,1909,l),
(1307,1966,l),
(287,1966,l),
(287,0,l,{
name = hr00;
})
);
},
{
closed = 1;
nodes = (
(349,1002,l),
(952,1002,ls),
(1242,1002,o),
(1374,803,o),
(1374,589,cs),
(1374,470,ls),
(1374,256,o),
(1242,56,o),
(952,56,cs),
(349,56,l)
);
}
);
width = 1690;
},
{
layerId = "D7CFBB37-D300-46E8-A355-ECFF19545BAA";
shapes = (
{
closed = 1;
nodes = (
(994,0,ls),
(1360,0,o),
(1591,256,o),
(1591,605,cs),
(1591,960,o),
(1360,1200,o),
(994,1200,cs),
(605,1200,l),
(605,1619,l),
(1400,1619,l),
(1400,1966,l),
(180,1966,l),
(180,0,l,{
name = hr00;
})
);
},
{
closed = 1;
nodes = (
(605,867,l),
(915,867,ls),
(1070,867,o),
(1149,800,o),
(1149,659,cs),
(1149,541,ls),
(1149,400,o),
(1070,332,o),
(915,332,cs),
(605,332,l)
);
}
);
width = 1690;
},
{
layerId = "661A777E-9960-44AA-8623-3AD7C626B4F3";
shapes = (
{
closed = 1;
nodes = (
(960,0,ls),
(1312,0,o),
(1509,211,o),
(1509,589,cs),
(1509,966,o),
(1312,1177,o),
(960,1177,cs),
(476,1177,l),
(476,1760,l),
(1349,1760,l),
(1349,1966,l),
(239,1966,l),
(239,0,l,{
name = hr00;
})
);
},
{
closed = 1;
nodes = (
(476,972,l),
(955,972,ls),
(1140,972,o),
(1259,873,o),
(1259,662,cs),
(1259,515,ls),
(1259,304,o),
(1140,206,o),
(955,206,cs),
(476,206,l)
);
}
);
width = 1690;
}
);
unicode = 1041;
}
{
glyphname = uni0413;
layers = (
{
anchors = (
{
name = top;
pos = (946,1966);
}
);
layerId = master01;
shapes = (
{
closed = 1;
nodes = (
(493,0,l),
(493,1909,l),
(1464,1909,l),
(1464,1966,l),
(431,1966,l),
(431,0,l,{
name = hr00;
})
);
}
);
width = 1690;
},
{
anchors = (
{
name = top;
pos = (893,1966);
}
);
layerId = "D7CFBB37-D300-46E8-A355-ECFF19545BAA";
shapes = (
{
closed = 1;
nodes = (
(727,0,l),
(727,1619,l),
(1487,1619,l),
(1487,1966,l),
(301,1966,l),
(301,0,l,{
name = hr00;
})
);
}
);
width = 1690;
},
{
anchors = (
{
name = top;
pos = (921,1966);
}
);
layerId = "661A777E-9960-44AA-8623-3AD7C626B4F3";
shapes = (
{
closed = 1;
nodes = (
(608,0,l),
(608,1760,l),
(1473,1760,l),
(1473,1966,l),
(372,1966,l),
(372,0,l,{
name = hr00;
})
);
}
);
width = 1690;
}
);
unicode = 1043;
}
{
glyphname = uni0416;
layers = (
{
anchors = (
{
name = top;
pos = (845,1966);
}
);
layerId = master01;
shapes = (
{
closed = 1;
nodes = (
(876,0,l),
(876,969,l),
(1211,969,l),
(1616,0,l),
(1684,0,l),
(1312,879,ls),
(1290,935,o),
(1264,983,o),
(1228,991,c),
(1228,1000,l),
(1270,1011,o),
(1287,1053,o),
(1309,1112,cs),
(1628,1966,l),
(1563,1966,l),
(1217,1025,l),
(876,1025,l),
(876,1966,l),
(814,1966,l),
(814,1025,l),
(473,1025,l),
(127,1966,l),
(62,1966,l),
(380,1112,ls),
(403,1053,o),
(420,1011,o),
(462,1000,c),
(462,991,l),
(425,983,o),
(400,935,o),
(377,879,cs),
(6,0,l),
(73,0,l),
(479,969,l),
(814,969,l),
(814,0,l,{
name = hr00;
})
);
}
);
width = 1690;
},
{
anchors = (
{
name = top;
pos = (845,1966);
}
);
layerId = "D7CFBB37-D300-46E8-A355-ECFF19545BAA";
shapes = (
{
closed = 1;
nodes = (
(1028,0,l),
(1028,836,l),
(1146,836,l),
(1304,0,l),
(1684,0,l),
(1552,701,ls),
(1518,887,o),
(1447,977,o),
(1307,1005,c),
(1307,1022,l),
(1425,1056,o),
(1498,1135,o),
(1532,1309,cs),
(1656,1966,l),
(1298,1966,l),
(1146,1155,l),
(1028,1155,l),
(1028,1966,l),
(662,1966,l),
(662,1155,l),
(543,1155,l),
(391,1966,l),
(34,1966,l),
(158,1309,ls),
(191,1135,o),
(265,1056,o),
(383,1022,c),
(383,1005,l),
(242,977,o),
(172,887,o),
(138,701,cs),
(6,0,l),
(386,0,l),
(543,836,l),
(662,836,l),
(662,0,l,{
name = hr00;
})
);
}
);
width = 1690;
},
{
anchors = (
{
name = top;
pos = (845,1966);
}
);
layerId = "661A777E-9960-44AA-8623-3AD7C626B4F3";
shapes = (
{
closed = 1;
nodes = (
(960,0,l),
(960,895,l),
(1155,895,l),
(1439,0,l),
(1684,0,l),
(1450,746,ls),
(1394,926,o),
(1332,974,o),
(1247,991,c),
(1247,1005,l),
(1326,1022,o),
(1380,1076,o),
(1428,1239,cs),
(1639,1966,l),
(1411,1966,l),
(1155,1098,l),
(960,1098,l),
(960,1966,l),
(729,1966,l),
(729,1098,l),
(535,1098,l),
(282,1966,l),
(51,1966,l),
(259,1236,ls),
(304,1076,o),
(363,1022,o),
(442,1005,c),
(442,991,l),
(358,974,o),
(301,929,o),
(242,746,cs),
(6,0,l),
(248,0,l),
(535,895,l),
(729,895,l),
(729,0,l,{
name = hr00;
})
);
}
);
width = 1690;
}
);
unicode = 1046;
}
{
glyphname = uni0418;
layers = (
{
anchors = (
{
name = top;
pos = (845,1966);
}
);
layerId = master01;
shapes = (
{
closed = 1;
nodes = (
(352,0,l),
(1360,1895,l),
(1369,1895,l),
(1354,1684,l),
(1354,0,l),
(1414,0,l),
(1414,1966,l),
(1338,1966,l),
(329,70,l),
(321,70,l),
(335,282,l),
(335,1966,l),
(276,1966,l),
(276,0,l,{
name = hr00;
})
);
}
);
width = 1690;
},
{
anchors = (
{
name = top;
pos = (845,1966);
}
);
layerId = "D7CFBB37-D300-46E8-A355-ECFF19545BAA";
shapes = (
{
closed = 1;
nodes = (
(552,0,l),
(1143,1256,l),
(1171,1256,l),
(1138,729,l),
(1138,0,l),
(1535,0,l),
(1535,1966,l),
(1138,1966,l),
(546,710,l),
(518,710,l),
(552,1236,l),
(552,1966,l),
(155,1966,l),
(155,0,l,{
name = hr00;
})
);
}
);
width = 1690;
},
{
anchors = (
{
name = top;
pos = (845,1966);
}
);
layerId = "661A777E-9960-44AA-8623-3AD7C626B4F3";
shapes = (
{
closed = 1;
nodes = (
(451,0,l),
(1253,1560,l),
(1267,1560,l),
(1228,991,l),
(1228,0,l),
(1464,0,l),
(1464,1966,l),
(1239,1966,l),
(436,406,l),
(422,406,l),
(462,974,l),
(462,1966,l),
(225,1966,l),
(225,0,l,{
name = hr00;
})
);
}
);
width = 1690;
}
);
unicode = 1048;
}
{
glyphname = uni041A;
layers = (
{
anchors = (
{
name = top;
pos = (831,1966);
}
);
layerId = master01;
shapes = (
{
closed = 1;
nodes = (
(338,0,l),
(338,969,l),
(825,969,l),
(1281,56,ls),
(1304,8,o),
(1329,0,o),
(1374,0,cs),
(1554,0,l),
(1554,56,l),
(1349,56,l),
(938,879,ls),
(910,935,o),
(887,986,o),
(842,991,c),
(842,1000,l),
(893,1008,o),
(918,1067,o),
(943,1112,cs),
(1433,1966,l),
(1369,1966,l),
(825,1025,l),
(338,1025,l),
(338,1966,l),
(276,1966,l),
(276,0,l,{
name = hr00;
})
);
}
);
width = 1690;
},
{
anchors = (
{
name = top;
pos = (850,1966);
}
);
layerId = "D7CFBB37-D300-46E8-A355-ECFF19545BAA";
shapes = (
{
closed = 1;
nodes = (
(597,0,l),
(597,825,l),
(845,825,l),
(1059,268,ls),
(1135,70,o),
(1239,0,o),
(1414,0,cs),
(1622,0,l),
(1622,346,l),
(1464,346,l),
(1295,783,ls),
(1236,935,o),
(1180,983,o),
(1079,1005,c),
(1079,1022,l),
(1180,1045,o),
(1242,1107,o),
(1304,1264,cs),
(1580,1966,l),
(1160,1966,l),
(845,1166,l),
(597,1166,l),
(597,1966,l),
(172,1966,l),
(172,0,l,{
name = hr00;
})
);
}
);
width = 1690;
},
{
anchors = (
{
name = top;
pos = (805,1966);
}
);
layerId = "661A777E-9960-44AA-8623-3AD7C626B4F3";
shapes = (
{
closed = 1;
nodes = (
(462,0,l),
(462,895,l),
(808,895,l),
(1112,208,ls),
(1177,62,o),
(1262,0,o),
(1374,0,cs),
(1552,0,l),
(1552,206,l),
(1369,206,l),
(1115,774,l),
(1048,929,o),
(1002,974,o),
(918,991,c),
(918,1005,l),
(986,1017,o),
(1036,1056,o),
(1101,1188,cs),
(1476,1966,l),
(1225,1966,l),
(808,1098,l),
(462,1098,l),
(462,1966,l),
(225,1966,l),
(225,0,l,{
name = hr00;
})
);
}
);
width = 1690;
}
);
unicode = 1050;
}
{
glyphname = uni0423;
layers = (
{
anchors = (
{
name = top;
pos = (845,1966);
}
);
layerId = master01;
shapes = (
{
closed = 1;
nodes = (
(696,0,ls),
(738,0,o),
(774,17,o),
(788,54,cs),
(1515,1966,l),
(1450,1966,l),
(1064,943,l),
(895,498,l),
(890,498,l),
(693,946,l),
(245,1966,l),
(177,1966,l),
(865,417,l),
(727,54,l),
(414,54,l),
(414,0,l,{
name = hr00;
})
);
}
);
width = 1690;
},
{
anchors = (
{
name = top;
pos = (867,1966);
}
);
layerId = "D7CFBB37-D300-46E8-A355-ECFF19545BAA";
shapes = (
{
closed = 1;
nodes = (
(589,0,ls),
(822,0,o),
(946,84,o),
(1045,346,cs),
(1659,1966,l),
(1231,1966,l),
(983,1267,l),
(893,929,l),
(884,929,l),
(780,1267,l),
(493,1966,l),
(45,1966,l),
(693,482,l),
(639,346,l),
(307,346,l),
(307,0,l,{
name = hr00;
})
);
}
);
width = 1690;
},
{
anchors = (
{
name = top;
pos = (845,1966);
}
);
layerId = "661A777E-9960-44AA-8623-3AD7C626B4F3";
shapes = (
{
closed = 1;
nodes = (
(560,0,ls),
(774,0,o),
(856,45,o),
(941,270,cs),
(1583,1966,l),
(1340,1966,l),
(997,1039,l),
(890,727,l),
(884,727,l),
(769,1042,l),
(377,1966,l),
(124,1966,l),
(783,459,l),
(684,206,l),
(391,206,l),
(391,0,l,{
name = hr00;
})
);
}
);
width = 1690;
}
);
unicode = 1059;
}
{
glyphname = uni0424;
layers = (
{
layerId = master01;
shapes = (
{
closed = 1;
nodes = (
(876,-62,l),
(876,200,l),
(1383,206,o),
(1611,535,o),
(1611,980,cs),
(1611,1425,o),
(1383,1754,o),
(876,1760,c),
(876,2028,l),
(814,2028,l),
(814,1760,l),
(307,1754,o),
(79,1425,o),
(79,980,cs),
(79,535,o),
(307,206,o),
(814,200,c),
(814,-62,l,{
name = hr00;
})
);
},
{
closed = 1;
nodes = (
(335,256,o),
(146,600,o),
(146,915,cs),
(146,1045,ls),
(146,1360,o),
(335,1704,o),
(814,1704,c),
(814,256,l)
);
},
{
closed = 1;
nodes = (
(876,1704,l),
(1354,1704,o),
(1543,1360,o),
(1543,1045,cs),
(1543,915,ls),
(1543,600,o),
(1354,256,o),
(876,256,c)
);
}
);
width = 1690;
},
{
layerId = "D7CFBB37-D300-46E8-A355-ECFF19545BAA";
shapes = (
{
closed = 1;
nodes = (
(1053,-96,l),
(1053,138,l),
(1414,183,o),
(1622,456,o),
(1622,980,cs),
(1622,1509,o),
(1419,1777,o),
(1053,1822,c),
(1053,2056,l),
(636,2056,l),
(636,1822,l),
(276,1777,o),
(68,1504,o),
(68,980,cs),
(68,451,o),
(270,183,o),
(636,138,c),
(636,-96,l,{
name = hr00;
})
);
},
{
closed = 1;
nodes = (
(518,451,o),
(439,566,o),
(439,791,cs),
(439,1169,ls),
(439,1394,o),
(518,1509,o),
(665,1526,c),
(665,434,l)
);
},
{
closed = 1;
nodes = (
(1025,1526,l),
(1171,1509,o),
(1250,1394,o),
(1250,1169,cs),
(1250,791,ls),
(1250,566,o),
(1171,451,o),
(1025,434,c)
);
}
);
width = 1690;
},
{
layerId = "661A777E-9960-44AA-8623-3AD7C626B4F3";
shapes = (
{
closed = 1;
nodes = (
(963,-82,l),
(963,172,l),
(1425,200,o),
(1616,546,o),
(1616,980,cs),
(1616,1414,o),
(1425,1760,o),
(963,1788,c),
(963,2042,l),
(727,2042,l),
(727,1788,l),
(265,1760,o),
(73,1414,o),
(73,980,cs),
(73,546,o),
(265,200,o),
(727,172,c),
(727,-82,l,{
name = hr00;
})
);
},
{
closed = 1;
nodes = (
(436,400,o),
(318,594,o),
(318,865,cs),
(318,1095,ls),
(318,1366,o),
(436,1560,o),
(732,1588,c),
(732,372,l)
);
},
{
closed = 1;
nodes = (
(957,1588,l),
(1253,1560,o),
(1371,1366,o),
(1371,1095,cs),
(1371,865,ls),
(1371,594,o),
(1253,400,o),
(957,372,c)
);
}
);
width = 1690;
}
);
unicode = 1060;
}
{
glyphname = uni0426;
layers = (
{
layerId = master01;
shapes = (
{
closed = 1;
nodes = (
(1661,-422,l),
(1661,56,l),
(1400,56,l),
(1400,1966,l),
(1338,1966,l),
(1338,56,l),
(352,56,l),
(352,1966,l),
(290,1966,l),
(290,0,l),
(1599,0,l),
(1599,-422,l,{
name = hr00;
})
);
}
);
width = 1690;
},
{
layerId = "D7CFBB37-D300-46E8-A355-ECFF19545BAA";
shapes = (
{
closed = 1;
nodes = (
(1642,-422,l),
(1642,346,l),
(1425,346,l,{
name = hr01;
}),
(1425,1966,l),
(1000,1966,l),
(1000,346,l),
(555,346,l),
(555,1966,l),
(130,1966,l),
(130,0,l),
(1242,0,l,{
name = hr02;
}),
(1242,-422,l)
);
}
);
width = 1690;
},
{
layerId = "661A777E-9960-44AA-8623-3AD7C626B4F3";
shapes = (
{
closed = 1;
nodes = (
(1616,-422,l),
(1616,206,l),
(1405,206,l,{
name = hr01;
}),
(1405,1966,l),
(1169,1966,l),
(1169,206,l),
(462,206,l),
(462,1966,l),
(225,1966,l),
(225,0,l),
(1400,0,l,{
name = hr02;
}),
(1400,-422,l)
);
}
);
width = 1690;
}
);
unicode = 1062;
}
{
glyphname = uni0427;
layers = (
{
anchors = (
{
name = top;
pos = (786,1966);
}
);
layerId = master01;
shapes = (
{
closed = 1;
nodes = (
(1371,0,l),
(1371,1966,l),
(1309,1966,l),
(1309,935,l),
(1211,876,o),
(1022,834,o),
(834,834,cs),
(453,834,o),
(265,1008,o),
(265,1394,cs),
(265,1966,l),
(203,1966,l),
(203,1394,ls),
(203,983,o),
(403,777,o),
(836,777,cs),
(1025,777,o),
(1200,817,o),
(1304,876,c),
(1309,876,l),
(1309,0,l,{
name = hr00;
})
);
}
);
width = 1690;
},
{
anchors = (
{
name = top;
pos = (811,1966);
}
);
layerId = "D7CFBB37-D300-46E8-A355-ECFF19545BAA";
shapes = (
{
closed = 1;
nodes = (
(1518,0,l),
(1518,1966,l),
(1093,1966,l),
(1093,1019,l),
(1014,991,o),
(924,972,o),
(811,972,cs),
(608,972,o),
(529,1056,o),
(529,1326,cs),
(529,1966,l),
(104,1966,l),
(104,1338,ls),
(104,819,o),
(296,631,o),
(741,631,cs),
(876,631,o),
(994,659,o),
(1079,693,c),
(1093,693,l),
(1093,0,l,{
name = hr00;
})
);
}
);
width = 1690;
},
{
anchors = (
{
name = top;
pos = (805,1966);
}
);
layerId = "661A777E-9960-44AA-8623-3AD7C626B4F3";
shapes = (
{
closed = 1;
nodes = (
(1442,0,l),
(1442,1966,l),
(1205,1966,l),
(1205,983,l),
(1087,938,o),
(974,915,o),
(805,915,cs),
(504,915,o),
(406,1048,o),
(406,1408,cs),
(406,1966,l),
(169,1966,l),
(169,1408,ls),
(169,935,o),
(329,710,o),
(797,710,cs),
(955,710,o),
(1090,735,o),
(1191,774,c),
(1205,774,l),
(1205,0,l,{
name = hr00;
})
);
}
);
width = 1690;
}
);
unicode = 1063;
}
{
glyphname = uni0428;
layers = (
{
layerId = master01;
shapes = (
{
closed = 1;
nodes = (
(1507,0,l),
(1507,1966,l),
(1445,1966,l),
(1445,56,l),
(876,56,l),
(876,1966,l),
(814,1966,l),
(814,56,l),
(245,56,l),
(245,1966,l),
(183,1966,l),
(183,0,l,{
name = hr00;
})
);
}
);
width = 1690;
},
{
layerId = "D7CFBB37-D300-46E8-A355-ECFF19545BAA";
shapes = (
{
closed = 1;
nodes = (
(1611,0,l),
(1611,1966,l),
(1250,1966,l),
(1250,318,l),
(1025,318,l),
(1025,1966,l),
(665,1966,l),
(665,318,l),
(439,318,l),
(439,1966,l),
(79,1966,l),
(79,0,l,{
name = hr00;
})
);
}
);
width = 1690;
},
{
layerId = "661A777E-9960-44AA-8623-3AD7C626B4F3";
shapes = (
{
closed = 1;
nodes = (
(1554,0,l),
(1554,1966,l),
(1324,1966,l),
(1324,206,l),
(960,206,l),
(960,1966,l),
(729,1966,l),
(729,206,l),
(366,206,l),
(366,1966,l),
(135,1966,l),
(135,0,l,{
name = hr00;
})
);
}
);
width = 1690;
}
);
unicode = 1064;
}
{
glyphname = uni042B;
layers = (
{
anchors = (
{
name = top;
pos = (845,1966);
}
);
layerId = master01;
shapes = (
{
closed = 1;
nodes = (
(622,0,ls),
(943,0,o),
(1112,208,o),
(1112,529,cs),
(1112,850,o),
(943,1059,o),
(622,1059,cs),
(245,1059,l),
(245,1966,l),
(183,1966,l),
(183,0,l,{
name = hr00;
})
);
},
{
closed = 1;
nodes = (
(245,1002,l),
(622,1002,ls),
(912,1002,o),
(1045,803,o),
(1045,589,cs),
(1045,470,ls),
(1045,256,o),
(912,56,o),
(622,56,cs),
(245,56,l)
);
},
{
closed = 1;
nodes = (
(1507,0,l),
(1507,1966,l),
(1445,1966,l),
(1445,0,l)
);
}
);
width = 1690;
},
{
anchors = (
{
name = top;
pos = (845,1966);
}
);
layerId = "D7CFBB37-D300-46E8-A355-ECFF19545BAA";
shapes = (
{
closed = 1;
nodes = (
(563,0,ls),
(901,0,o),
(1112,242,o),
(1112,628,cs),
(1112,1011,o),
(901,1256,o),
(563,1256,cs),
(439,1256,l),
(439,1966,l),
(79,1966,l),
(79,0,l,{
name = hr00;
})
);
},
{
closed = 1;
nodes = (
(439,938,l),
(501,938,ls),
(656,938,o),
(741,870,o),
(741,729,cs),
(741,527,ls),
(741,386,o),
(656,318,o),
(501,318,cs),
(439,318,l)
);
},
{
closed = 1;
nodes = (
(1250,1966,l),
(1611,1966,l),
(1611,0,l),
(1250,0,l)
);
}
);
width = 1690;
},
{
anchors = (
{
name = top;
pos = (845,1966);
}
);
layerId = "661A777E-9960-44AA-8623-3AD7C626B4F3";
shapes = (
{
closed = 1;
nodes = (
(563,0,ls),
(915,0,o),
(1112,211,o),
(1112,589,cs),
(1112,966,o),
(915,1177,o),
(563,1177,cs),
(366,1177,l),
(366,1966,l),
(135,1966,l),
(135,0,l,{
name = hr00;
})
);
},
{
closed = 1;
nodes = (
(366,972,l),
(563,972,ls),
(749,972,o),
(867,873,o),
(867,662,cs),
(867,515,ls),
(867,304,o),
(749,206,o),
(563,206,cs),
(366,206,l)
);
},
{
closed = 1;
nodes = (
(1554,0,l),
(1554,1966,l),
(1324,1966,l),
(1324,0,l)
);
}
);
width = 1690;
}
);
unicode = 1067;
}
{
glyphname = uni042C;
layers = (
{
layerId = master01;
shapes = (
{
closed = 1;
nodes = (
(986,0,ls),
(1307,0,o),
(1476,208,o),
(1476,529,cs),
(1476,850,o),
(1307,1059,o),
(986,1059,cs),
(383,1059,l),
(383,1966,l),
(321,1966,l),
(321,0,l,{
name = hr00;
})
);
},
{
closed = 1;
nodes = (
(383,1002,l),
(986,1002,ls),
(1276,1002,o),
(1408,803,o),
(1408,589,cs),
(1408,470,ls),
(1408,256,o),
(1276,56,o),
(986,56,cs),
(383,56,l)
);
}
);
width = 1690;
},
{
layerId = "D7CFBB37-D300-46E8-A355-ECFF19545BAA";
shapes = (
{
closed = 1;
nodes = (
(986,0,ls),
(1352,0,o),
(1583,245,o),
(1583,628,cs),
(1583,1017,o),
(1352,1256,o),
(986,1256,cs),
(617,1256,l),
(617,1966,l),
(191,1966,l),
(191,0,l,{
name = hr00;
})
);
},
{
closed = 1;
nodes = (
(617,924,l),
(907,924,ls),
(1062,924,o),
(1140,856,o),
(1140,715,cs),
(1140,541,ls),
(1140,400,o),
(1062,332,o),
(907,332,cs),
(617,332,l)
);
}
);
width = 1690;
},
{
layerId = "661A777E-9960-44AA-8623-3AD7C626B4F3";
shapes = (
{
closed = 1;
nodes = (
(977,0,ls),
(1329,0,o),
(1526,211,o),
(1526,589,cs),
(1526,966,o),
(1329,1177,o),
(977,1177,cs),
(496,1177,l),
(496,1966,l),
(259,1966,l),
(259,0,l,{
name = hr00;
})
);
},
{
closed = 1;
nodes = (
(496,972,l),
(972,972,ls),
(1157,972,o),
(1276,873,o),
(1276,662,cs),
(1276,515,ls),
(1276,304,o),
(1157,206,o),
(972,206,cs),
(496,206,l)
);
}
);
width = 1690;
}
);
unicode = 1068;
}
{
glyphname = uni042E;
layers = (
{
layerId = master01;
shapes = (
{
closed = 1;
nodes = (
(1402,-34,o),
(1543,234,o),
(1543,983,cs),
(1543,1732,o),
(1402,1999,o),
(1067,1999,cs),
(738,1999,o),
(597,1740,o),
(591,1025,c),
(245,1025,l),
(245,1966,l,{
name = hr01;
}),
(183,1966,l),
(183,0,l),
(245,0,l),
(245,969,l),
(591,969,l),
(591,231,o),
(735,-34,o),
(1067,-34,cs)
);
},
{
closed = 1;
nodes = (
(791,23,o),
(659,265,o),
(659,865,cs),
(659,1101,ls),
(659,1701,o),
(791,1943,o),
(1067,1943,cs),
(1343,1943,o),
(1476,1701,o),
(1476,1101,cs),
(1476,865,ls),
(1476,265,o),
(1343,23,o),
(1067,23,cs)
);
}
);
width = 1690;
},
{
layerId = "D7CFBB37-D300-46E8-A355-ECFF19545BAA";
shapes = (
{
closed = 1;
nodes = (
(1456,-34,o),
(1622,177,o),
(1622,983,cs),
(1622,1799,o),
(1467,1999,o),
(1107,1999,cs),
(755,1999,o),
(611,1794,o),
(594,1155,c),
(439,1155,l),
(439,1966,l,{
name = hr01;
}),
(79,1966,l),
(79,0,l),
(439,0,l),
(439,836,l),
(594,836,l),
(614,166,o),
(769,-34,o),
(1107,-34,cs)
);
},
{
closed = 1;
nodes = (
(1011,284,o),
(960,346,o),
(960,634,cs),
(960,1332,ls),
(960,1619,o),
(1011,1681,o),
(1107,1681,cs),
(1202,1681,o),
(1253,1619,o),
(1253,1332,cs),
(1253,634,ls),
(1253,346,o),
(1202,284,o),
(1107,284,cs)
);
}
);
width = 1690;
},
{
layerId = "661A777E-9960-44AA-8623-3AD7C626B4F3";
shapes = (
{
closed = 1;
nodes = (
(1425,-34,o),
(1566,138,o),
(1566,983,cs),
(1566,1828,o),
(1425,1999,o),
(1076,1999,cs),
(729,1999,o),
(600,1822,o),
(586,1098,c),
(366,1098,l),
(366,1966,l,{
name = hr01;
}),
(135,1966,l),
(135,0,l),
(366,0,l),
(366,893,l),
(586,893,l),
(600,141,o),
(727,-34,o),
(1076,-34,cs)
);
},
{
closed = 1;
nodes = (
(910,172,o),
(831,251,o),
(831,738,cs),
(831,1228,ls),
(831,1715,o),
(910,1794,o),
(1076,1794,cs),
(1242,1794,o),
(1321,1715,o),
(1321,1228,cs),
(1321,738,ls),
(1321,251,o),
(1242,172,o),
(1076,172,cs)
);
}
);
width = 1690;
}
);
unicode = 1070;
}
{
glyphname = uni042F;
layers = (
{
layerId = master01;
shapes = (
{
closed = 1;
nodes = (
(273,0,ls),
(318,0,o),
(344,8,o),
(366,56,cs),
(780,907,l),
(1335,907,l),
(1335,0,l),
(1397,0,l),
(1397,1966,l),
(763,1966,ls),
(442,1966,o),
(273,1757,o),
(273,1436,cs),
(273,1143,o),
(406,935,o),
(749,924,c),
(749,915,l),
(712,901,o),
(690,853,o),
(665,803,cs),
(298,56,l),
(115,56,l),
(115,0,l,{
name = hr00;
})
);
},
{
closed = 1;
nodes = (
(791,963,ls),
(473,963,o),
(341,1163,o),
(341,1377,cs),
(341,1495,ls),
(341,1709,o),
(473,1909,o),
(763,1909,cs),
(1335,1909,l),
(1335,963,l)
);
}
);
width = 1690;
},
{
layerId = "D7CFBB37-D300-46E8-A355-ECFF19545BAA";
shapes = (
{
closed = 1;
nodes = (
(315,0,ls),
(479,0,o),
(569,54,o),
(665,237,cs),
(932,752,l),
(1076,752,l),
(1076,0,l),
(1501,0,l),
(1501,1966,l),
(735,1966,ls),
(369,1966,o),
(138,1723,o),
(138,1357,cs),
(138,1025,o),
(298,825,o),
(608,808,c),
(608,791,l),
(518,780,o),
(462,735,o),
(406,628,cs),
(259,346,l),
(90,346,l),
(90,0,l,{
name = hr00;
})
);
},
{
closed = 1;
nodes = (
(814,1079,ls),
(659,1079,o),
(580,1146,o),
(580,1287,cs),
(580,1425,ls),
(580,1566,o),
(659,1633,o),
(814,1633,cs),
(1076,1633,l),
(1076,1079,l)
);
}
);
width = 1690;
},
{
layerId = "661A777E-9960-44AA-8623-3AD7C626B4F3";
shapes = (
{
closed = 1;
nodes = (
(287,0,ls),
(394,0,o),
(473,48,o),
(546,200,cs),
(856,845,l),
(1211,845,l),
(1211,0,l),
(1447,0,l),
(1447,1966,l),
(758,1966,ls),
(406,1966,o),
(208,1749,o),
(208,1408,cs),
(208,1098,o),
(377,898,o),
(721,881,c),
(721,867,l),
(631,850,o),
(577,805,o),
(521,687,cs),
(290,206,l),
(110,206,l),
(110,0,l,{
name = hr00;
})
);
},
{
closed = 1;
nodes = (
(763,1048,ls),
(577,1048,o),
(459,1146,o),
(459,1357,cs),
(459,1450,ls),
(459,1661,o),
(577,1760,o),
(763,1760,cs),
(1211,1760,l),
(1211,1048,l)
);
}
);
width = 1690;
}
);
unicode = 1071;
}
{
glyphname = uni0431;
layers = (
{
layerId = master01;
shapes = (
{
closed = 1;
nodes = (
(1225,-34,o),
(1436,231,o),
(1436,710,cs),
(1436,1188,o),
(1225,1453,o),
(845,1453,cs),
(631,1453,o),
(425,1369,o),
(329,1070,c),
(318,1073,l),
(369,1706,o),
(484,1994,o),
(983,2022,cs),
(1363,2044,l),
(1363,2098,l),
(983,2075,ls),
(442,2044,o),
(253,1746,o),
(253,710,cs),
(253,231,o),
(465,-34,o),
(845,-34,cs,{
name = hr00;
})
);
},
{
closed = 1;
nodes = (
(521,20,o),
(318,256,o),
(318,659,cs),
(318,760,ls),
(318,1163,o),
(521,1400,o),
(845,1400,cs),
(1169,1400,o),
(1371,1163,o),
(1371,760,cs),
(1371,659,ls),
(1371,256,o),
(1169,20,o),
(845,20,c)
);
}
);
width = 1690;
},
{
layerId = "D7CFBB37-D300-46E8-A355-ECFF19545BAA";
shapes = (
{
closed = 1;
nodes = (
(1287,-34,o),
(1557,256,o),
(1557,727,cs),
(1557,1174,o),
(1326,1414,o),
(988,1414,cs),
(786,1414,o),
(656,1309,o),
(594,1124,c),
(574,1124,l),
(591,1529,o),
(684,1695,o),
(1070,1709,cs),
(1464,1723,l),
(1464,2101,l),
(1028,2081,ls),
(372,2050,o),
(135,1673,o),
(135,786,cs),
(135,256,o),
(408,-34,o),
(848,-34,cs,{
name = hr00;
})
);
},
{
closed = 1;
nodes = (
(676,276,o),
(569,397,o),
(569,611,cs),
(569,769,ls),
(569,983,o),
(676,1104,o),
(848,1104,cs),
(1022,1104,o),
(1126,1005,o),
(1126,814,cs),
(1126,594,ls),
(1126,403,o),
(1017,276,o),
(848,276,cs)
);
}
);
width = 1690;
},
{
layerId = "661A777E-9960-44AA-8623-3AD7C626B4F3";
shapes = (
{
closed = 1;
nodes = (
(1236,-34,o),
(1504,268,o),
(1504,707,cs),
(1504,1180,o),
(1247,1453,o),
(879,1453,cs),
(665,1453,o),
(524,1343,o),
(445,1157,c),
(431,1157,l),
(476,1676,o),
(603,1830,o),
(924,1853,cs),
(1391,1884,l),
(1391,2106,l),
(946,2078,ls),
(422,2044,o),
(194,1715,o),
(194,859,cs),
(194,245,o),
(459,-34,o),
(848,-34,cs,{
name = hr00;
})
);
},
{
closed = 1;
nodes = (
(603,161,o),
(434,315,o),
(434,608,cs),
(434,893,ls),
(434,1107,o),
(569,1259,o),
(853,1259,cs),
(1095,1259,o),
(1264,1098,o),
(1264,786,cs),
(1264,608,ls),
(1264,318,o),
(1090,161,o),
(848,161,cs)
);
}
);
width = 1690;
}
);
unicode = 1073;
}
{
glyphname = uni0434;
layers = (
{
layerId = master01;
shapes = (
{
closed = 1;
nodes = (
(146,-394,l),
(146,0,l),
(1507,0,l),
(1507,-394,l),
(1566,-394,l),
(1566,54,l),
(1298,54,l),
(1298,1453,l),
(496,1453,l),
(496,1000,ls),
(496,453,o),
(377,177,o),
(253,54,c),
(87,54,l),
(87,-394,l,{
name = hr00;
})
);
},
{
closed = 1;
nodes = (
(436,177,o),
(555,453,o),
(555,1000,cs),
(555,1400,l),
(1239,1400,l),
(1239,54,l),
(329,54,l)
);
}
);
width = 1690;
},
{
layerId = "D7CFBB37-D300-46E8-A355-ECFF19545BAA";
shapes = (
{
closed = 1;
nodes = (
(406,-394,l),
(406,0,l),
(1264,0,l),
(1264,-394,l),
(1642,-394,l),
(1642,324,l),
(1416,324,l,{
name = hr01;
}),
(1416,1453,l),
(355,1453,l),
(355,1008,ls),
(355,698,o),
(293,470,o),
(197,324,c),
(28,324,l,{
name = hr02;
}),
(28,-394,l)
);
},
{
closed = 1;
nodes = (
(684,470,o),
(729,704,o),
(729,997,cs,{
name = hr03;
}),
(729,1129,l),
(1014,1129,l),
(1014,324,l),
(611,324,l)
);
}
);
width = 1690;
},
{
layerId = "661A777E-9960-44AA-8623-3AD7C626B4F3";
shapes = (
{
closed = 1;
nodes = (
(268,-394,l),
(268,0,l),
(1391,0,l),
(1391,-394,l),
(1597,-394,l),
(1597,191,l),
(1357,191,l),
(1357,1453,l),
(420,1453,l),
(420,991,ls),
(420,639,o),
(344,383,o),
(225,191,c),
(62,191,l),
(62,-394,l,{
name = hr00;
})
);
},
{
closed = 1;
nodes = (
(583,394,o),
(639,631,o),
(639,980,cs),
(639,1262,l),
(1132,1262,l),
(1132,191,l),
(470,191,l)
);
}
);
width = 1690;
}
);
unicode = 1076;
}
{
glyphname = uni0436;
layers = (
{
anchors = (
{
name = top;
pos = (845,1453);
}
);
layerId = master01;
shapes = (
{
closed = 1;
nodes = (
(873,0,l),
(873,735,l),
(1256,735,l),
(1504,0,l),
(1569,0,l),
(1346,650,ls),
(1326,704,o),
(1309,749,o),
(1267,758,c),
(1267,766,l),
(1307,774,o),
(1321,808,o),
(1343,873,cs),
(1546,1453,l),
(1484,1453,l),
(1256,788,l),
(873,788,l),
(873,1453,l),
(814,1453,l),
(814,788,l),
(431,788,l),
(203,1453,l),
(141,1453,l),
(344,873,ls),
(363,817,o),
(377,774,o),
(420,766,c),
(420,758,l),
(383,749,o),
(366,721,o),
(341,650,cs),
(118,0,l),
(183,0,l),
(431,735,l),
(814,735,l),
(814,0,l,{
name = hr00;
})
);
}
);
width = 1690;
},
{
anchors = (
{
name = top;
pos = (845,1453);
}
);
layerId = "D7CFBB37-D300-46E8-A355-ECFF19545BAA";
shapes = (
{
closed = 1;
nodes = (
(1011,0,l),
(1011,591,l),
(1149,591,l),
(1290,0,l),
(1650,0,l),
(1532,479,ls),
(1495,628,o),
(1439,704,o),
(1304,738,c),
(1304,758,l),
(1411,791,o),
(1473,859,o),
(1507,988,cs),
(1628,1453,l),
(1287,1453,l),
(1138,881,l),
(1011,881,l),
(1011,1453,l),
(679,1453,l),
(679,881,l),
(552,881,l),
(406,1453,l),
(62,1453,l),
(183,988,ls),
(217,859,o),
(279,791,o),
(386,758,c),
(386,738,l),
(251,704,o),
(194,628,o),
(158,479,cs),
(39,0,l),
(397,0,l),
(541,591,l),
(679,591,l),
(679,0,l,{
name = hr00;
})
);
}
);
width = 1690;
},
{
anchors = (
{
name = top;
pos = (845,1453);
}
);
layerId = "661A777E-9960-44AA-8623-3AD7C626B4F3";
shapes = (
{
closed = 1;
nodes = (
(949,0,l),
(949,656,l),
(1197,656,l),
(1377,0,l),
(1605,0,l),
(1447,572,ls),
(1419,679,o),
(1366,732,o),
(1287,743,c),
(1287,755,l),
(1360,772,o),
(1400,822,o),
(1431,921,cs),
(1588,1453,l),
(1377,1453,l),
(1197,842,l),
(949,842,l),
(949,1453,l),
(741,1453,l),
(741,842,l),
(493,842,l),
(315,1453,l),
(101,1453,l),
(256,921,ls),
(284,822,o),
(329,772,o),
(403,755,c),
(403,743,l),
(324,732,o),
(276,679,o),
(245,572,cs),
(84,0,l),
(310,0,l),
(493,656,l),
(741,656,l),
(741,0,l,{
name = hr00;
})
);
}
);
width = 1690;
}
);
unicode = 1078;
}
{
glyphname = uni0437;
layers = (
{
anchors = (
{
name = top;
pos = (845,1453);
}
);
layerId = master01;
shapes = (
{
closed = 1;
nodes = (
(1186,-34,o),
(1394,124,o),
(1394,380,cs),
(1394,594,o),
(1247,724,o),
(1005,752,c),
(1005,758,l),
(1214,797,o),
(1354,910,o),
(1354,1112,cs,{
name = hr01;
}),
(1354,1346,o),
(1166,1487,o),
(856,1487,cs),
(628,1487,o),
(434,1411,o),
(349,1270,c),
(394,1242,l),
(473,1360,o),
(634,1433,o),
(850,1433,cs),
(1121,1433,o),
(1290,1318,o),
(1290,1140,cs),
(1290,1090,ls),
(1290,907,o),
(1104,780,o),
(845,780,cs),
(518,780,l),
(518,727,l),
(850,727,ls),
(1140,727,o),
(1329,600,o),
(1329,406,cs,{
name = hr02;
}),
(1329,349,ls),
(1329,149,o),
(1135,20,o),
(845,20,cs),
(645,20,o),
(451,82,o),
(332,242,c),
(287,208,l),
(406,45,o),
(608,-34,o),
(848,-34,cs)
);
}
);
width = 1690;
},
{
anchors = (
{
name = top;
pos = (842,1453);
}
);
layerId = "D7CFBB37-D300-46E8-A355-ECFF19545BAA";
shapes = (
{
closed = 1;
nodes = (
(1264,-34,o),
(1509,144,o),
(1509,406,cs),
(1509,597,o),
(1371,724,o),
(1180,752,c),
(1180,766,l),
(1360,800,o),
(1481,912,o),
(1481,1093,cs,{
name = hr01;
}),
(1481,1318,o),
(1247,1487,o),
(842,1487,cs),
(529,1487,o),
(335,1388,o),
(183,1225,c),
(414,1011,l),
(521,1124,o),
(639,1177,o),
(805,1177,cs),
(977,1177,o),
(1062,1107,o),
(1062,1022,cs),
(1062,1005,ls),
(1062,918,o),
(1014,865,o),
(895,865,cs),
(591,865,l),
(591,589,l),
(932,589,ls),
(1042,589,o),
(1090,541,o),
(1090,459,cs,{
name = hr02;
}),
(1090,442,ls),
(1090,341,o),
(997,276,o),
(825,276,cs),
(620,276,o),
(496,335,o),
(383,459,c),
(144,237,l),
(268,73,o),
(510,-34,o),
(814,-34,cs)
);
}
);
width = 1690;
},
{
anchors = (
{
name = top;
pos = (803,1453);
}
);
layerId = "661A777E-9960-44AA-8623-3AD7C626B4F3";
shapes = (
{
closed = 1;
nodes = (
(1180,-34,o),
(1408,144,o),
(1408,422,cs),
(1408,605,o),
(1304,732,o),
(1110,760,c),
(1110,772,l),
(1278,814,o),
(1377,915,o),
(1377,1095,cs,{
name = hr01;
}),
(1377,1338,o),
(1188,1487,o),
(803,1487,cs),
(501,1487,o),
(324,1377,o),
(194,1186,c),
(352,1079,l),
(436,1214,o),
(566,1293,o),
(791,1293,cs),
(1045,1293,o),
(1138,1208,o),
(1138,1084,cs),
(1138,1050,ls),
(1138,918,o),
(1042,845,o),
(862,845,cs),
(498,845,l),
(498,656,l),
(890,656,ls),
(1070,656,o),
(1169,577,o),
(1169,431,cs,{
name = hr02;
}),
(1169,391,ls),
(1169,256,o),
(1053,161,o),
(786,161,cs),
(572,161,o),
(428,239,o),
(338,383,c),
(172,248,l),
(296,68,o),
(487,-34,o),
(786,-34,cs)
);
}
);
width = 1690;
}
);
unicode = 1079;
}
{
glyphname = uni043A;
layers = (
{
anchors = (
{
name = top;
pos = (845,1453);
}
);
layerId = master01;
shapes = (
{
closed = 1;
nodes = (
(448,0,l),
(448,735,l),
(853,735,l),
(1273,51,ls),
(1293,20,o),
(1312,0,o),
(1354,0,cs),
(1490,0,l),
(1490,54,l),
(1338,54,l),
(960,673,ls),
(929,727,o),
(910,749,o),
(870,758,c),
(870,766,l),
(907,772,o),
(926,797,o),
(963,848,cs),
(1405,1453,l),
(1338,1453,l),
(850,788,l),
(448,788,l),
(448,1453,l),
(389,1453,l),
(389,0,l,{
name = hr00;
})
);
}
);
width = 1690;
},
{
anchors = (
{
name = top;
pos = (845,1453);
}
);
layerId = "D7CFBB37-D300-46E8-A355-ECFF19545BAA";
shapes = (
{
closed = 1;
nodes = (
(617,0,l),
(617,577,l),
(831,577,l),
(1022,211,ls),
(1101,59,o),
(1208,0,o),
(1366,0,cs),
(1560,0,l),
(1560,324,l),
(1405,324,l),
(1295,541,ls),
(1225,679,o),
(1166,727,o),
(1056,749,c),
(1056,766,l),
(1149,783,o),
(1219,834,o),
(1284,952,cs),
(1566,1453,l),
(1124,1453,l),
(831,895,l),
(617,895,l),
(617,1453,l),
(200,1453,l),
(200,0,l,{
name = hr00;
})
);
}
);
width = 1690;
},
{
anchors = (
{
name = top;
pos = (834,1453);
}
);
layerId = "661A777E-9960-44AA-8623-3AD7C626B4F3";
shapes = (
{
closed = 1;
nodes = (
(527,0,l),
(527,653,l),
(836,653,l),
(1115,169,ls),
(1186,48,o),
(1253,0,o),
(1349,0,cs),
(1512,0,l),
(1512,191,l),
(1349,191,l),
(1112,603,ls),
(1056,698,o),
(1008,732,o),
(935,743,c),
(935,755,l),
(1002,772,o),
(1042,803,o),
(1107,901,cs),
(1462,1453,l),
(1228,1453,l),
(836,845,l),
(527,845,l),
(527,1453,l),
(301,1453,l),
(301,0,l,{
name = hr00;
})
);
}
);
width = 1690;
}
);
unicode = 1082;
}
{
glyphname = uni043B;
layers = (
{
layerId = master01;
shapes = (
{
closed = 1;
nodes = (
(186,0,ls),
(225,0,o),
(256,8,o),
(284,37,cs),
(408,161,o),
(527,453,o),
(527,1000,cs),
(527,1400,l),
(1239,1400,l),
(1239,0,l),
(1298,0,l),
(1298,1453,l),
(467,1453,l),
(467,1000,ls),
(467,453,o),
(349,177,o),
(225,54,c),
(65,54,l),
(65,0,l,{
name = hr00;
})
);
}
);
width = 1690;
},
{
layerId = "D7CFBB37-D300-46E8-A355-ECFF19545BAA";
shapes = (
{
closed = 1;
nodes = (
(177,-17,ls),
(358,-17,o),
(470,23,o),
(577,130,cs),
(684,237,o),
(763,459,o),
(763,932,cs),
(763,1129,l),
(1081,1129,l),
(1081,0,l,{
name = hr01;
}),
(1498,0,l),
(1498,1453,l),
(389,1453,l),
(389,943,ls),
(389,594,o),
(344,425,o),
(259,324,c,{
name = hr02;
}),
(62,324,l),
(62,-17,l)
);
}
);
width = 1690;
},
{
layerId = "661A777E-9960-44AA-8623-3AD7C626B4F3";
shapes = (
{
closed = 1;
nodes = (
(161,0,ls),
(279,0,o),
(363,25,o),
(434,96,cs),
(560,222,o),
(645,510,o),
(645,1033,cs),
(645,1262,l),
(1166,1262,l),
(1166,0,l),
(1391,0,l),
(1391,1453,l),
(425,1453,l),
(425,1039,ls),
(425,566,o),
(366,338,o),
(253,191,c),
(73,191,l),
(73,0,l,{
name = hr00;
})
);
}
);
width = 1690;
}
);
unicode = 1083;
}
{
glyphname = uni043F;
layers = (
{
layerId = master01;
shapes = (
{
closed = 1;
nodes = (
(403,0,l),
(403,1400,l),
(1287,1400,l),
(1287,0,l),
(1346,0,l),
(1346,1453,l),
(344,1453,l),
(344,0,l,{
name = hr00;
})
);
}
);
width = 1690;
},
{
layerId = "D7CFBB37-D300-46E8-A355-ECFF19545BAA";
shapes = (
{
closed = 1;
nodes = (
(608,0,l),
(608,1129,l),
(1081,1129,l),
(1081,0,l),
(1498,0,l),
(1498,1453,l),
(191,1453,l),
(191,0,l,{
name = hr00;
})
);
}
);
width = 1690;
},
{
layerId = "661A777E-9960-44AA-8623-3AD7C626B4F3";
shapes = (
{
closed = 1;
nodes = (
(498,0,l),
(498,1262,l),
(1191,1262,l),
(1191,0,l),
(1416,0,l),
(1416,1453,l),
(273,1453,l),
(273,0,l,{
name = hr00;
})
);
}
);
width = 1690;
}
);
unicode = 1087;
}
{
glyphname = uni0446;
layers = (
{
layerId = master01;
shapes = (
{
closed = 1;
nodes = (
(1577,-394,l),
(1577,54,l),
(1309,54,l),
(1309,1453,l),
(1250,1453,l),
(1250,54,l),
(366,54,l),
(366,1453,l),
(307,1453,l),
(307,0,l),
(1518,0,l),
(1518,-394,l,{
name = hr00;
})
);
}
);
width = 1690;
},
{
layerId = "D7CFBB37-D300-46E8-A355-ECFF19545BAA";
shapes = (
{
closed = 1;
nodes = (
(1642,-394,l),
(1642,324,l),
(1416,324,l,{
name = hr01;
}),
(1416,1453,l),
(1000,1453,l),
(1000,324,l),
(572,324,l),
(572,1453,l),
(155,1453,l),
(155,0,l),
(1264,0,l,{
name = hr02;
}),
(1264,-394,l)
);
}
);
width = 1690;
},
{
layerId = "661A777E-9960-44AA-8623-3AD7C626B4F3";
shapes = (
{
closed = 1;
nodes = (
(1605,-394,l),
(1605,191,l),
(1366,191,l),
(1366,1453,l),
(1140,1453,l),
(1140,191,l),
(462,191,l),
(462,1453,l),
(237,1453,l),
(237,0,l),
(1400,0,l),
(1400,-394,l,{
name = hr00;
})
);
}
);
width = 1690;
}
);
unicode = 1094;
}
{
glyphname = uni0447;
layers = (
{
anchors = (
{
name = top;
pos = (791,1453);
}
);
layerId = master01;
shapes = (
{
closed = 1;
nodes = (
(1293,0,l),
(1293,1453,l),
(1233,1453,l),
(1233,926,ls),
(1233,704,o),
(997,603,o),
(752,603,cs),
(493,603,o),
(349,715,o),
(349,963,cs),
(349,1453,l),
(290,1453,l),
(290,957,ls),
(290,693,o),
(453,549,o),
(752,549,cs),
(997,549,o),
(1171,642,o),
(1225,766,c),
(1233,766,l),
(1233,0,l,{
name = hr00;
})
);
}
);
width = 1690;
},
{
anchors = (
{
name = top;
pos = (814,1453);
}
);
layerId = "D7CFBB37-D300-46E8-A355-ECFF19545BAA";
shapes = (
{
closed = 1;
nodes = (
(1470,0,l),
(1470,1453,l),
(1053,1453,l),
(1053,910,ls),
(1053,808,o),
(972,749,o),
(803,749,cs),
(639,749,o),
(574,811,o),
(574,957,cs),
(574,1453,l),
(158,1453,l),
(158,938,ls),
(158,583,o),
(304,411,o),
(636,411,cs),
(822,411,o),
(949,487,o),
(1039,605,c),
(1053,605,l),
(1053,0,l,{
name = hr00;
})
);
}
);
width = 1690;
},
{
anchors = (
{
name = top;
pos = (803,1453);
}
);
layerId = "661A777E-9960-44AA-8623-3AD7C626B4F3";
shapes = (
{
closed = 1;
nodes = (
(1380,0,l),
(1380,1453,l),
(1155,1453,l),
(1155,873,ls),
(1155,755,o),
(997,696,o),
(774,696,cs),
(546,696,o),
(451,783,o),
(451,960,cs),
(451,1453,l),
(225,1453,l),
(225,941,ls),
(225,642,o),
(394,493,o),
(707,493,cs),
(912,493,o),
(1036,552,o),
(1140,667,c),
(1155,667,l),
(1155,0,l,{
name = hr00;
})
);
}
);
width = 1690;
}
);
unicode = 1095;
}
{
glyphname = uni044B;
layers = (
{
anchors = (
{
name = top;
pos = (845,1453);
}
);
layerId = master01;
shapes = (
{
closed = 1;
nodes = (
(684,0,l),
(935,0,o),
(1101,135,o),
(1101,417,cs),
(1101,698,o),
(935,834,o),
(684,834,cs),
(268,834,l),
(268,1453,l),
(208,1453,l),
(208,0,l,{
name = hr00;
})
);
},
{
closed = 1;
nodes = (
(268,780,l),
(684,780,ls),
(907,780,o),
(1036,656,o),
(1036,456,cs),
(1036,377,ls),
(1036,177,o),
(907,54,o),
(684,54,cs),
(268,54,l)
);
},
{
closed = 1;
nodes = (
(1484,0,l),
(1484,1453,l),
(1425,1453,l),
(1425,0,l)
);
}
);
width = 1690;
},
{
anchors = (
{
name = top;
pos = (845,1453);
}
);
layerId = "D7CFBB37-D300-46E8-A355-ECFF19545BAA";
shapes = (
{
closed = 1;
nodes = (
(586,0,ls),
(884,0,o),
(1107,183,o),
(1107,521,cs),
(1107,856,o),
(884,1039,o),
(597,1039,cs),
(434,1039,l),
(434,1453,l),
(84,1453,l),
(84,0,l,{
name = hr00;
})
);
},
{
closed = 1;
nodes = (
(434,755,l),
(583,755,ls),
(690,755,o),
(755,693,o),
(755,555,cs),
(755,484,ls),
(755,346,o),
(690,284,o),
(583,284,cs),
(434,284,l)
);
},
{
closed = 1;
nodes = (
(1602,0,l),
(1602,1453,l),
(1253,1453,l),
(1253,0,l)
);
}
);
width = 1690;
},
{
anchors = (
{
name = top;
pos = (845,1453);
}
);
layerId = "661A777E-9960-44AA-8623-3AD7C626B4F3";
shapes = (
{
closed = 1;
nodes = (
(625,0,ls),
(921,0,o),
(1101,172,o),
(1101,462,cs),
(1101,749,o),
(915,926,o),
(622,926,cs),
(377,926,l),
(377,1453,l),
(152,1453,l),
(152,0,l,{
name = hr00;
})
);
},
{
closed = 1;
nodes = (
(377,735,l),
(591,735,ls),
(760,735,o),
(862,673,o),
(862,524,cs),
(862,406,ls),
(862,256,o),
(760,191,o),
(591,191,cs),
(377,191,l)
);
},
{
closed = 1;
nodes = (
(1538,0,l),
(1538,1453,l),
(1312,1453,l),
(1312,0,l)
);
}
);
width = 1690;
}
);
unicode = 1099;
}
{
glyphname = uni044E;
layers = (
{
layerId = master01;
shapes = (
{
closed = 1;
nodes = (
(1385,-34,o),
(1521,194,o),
(1521,727,cs),
(1521,1259,o),
(1385,1487,o),
(1070,1487,cs),
(766,1487,o),
(628,1273,o),
(620,780,c),
(268,780,l),
(268,1453,l,{
name = hr01;
}),
(208,1453,l),
(208,0,l),
(268,0,l),
(268,727,l),
(620,727,l),
(620,194,o),
(755,-34,o),
(1070,-34,cs)
);
},
{
closed = 1;
nodes = (
(817,20,o),
(684,220,o),
(684,636,cs),
(684,817,ls),
(684,1233,o),
(817,1433,o),
(1070,1433,cs),
(1324,1433,o),
(1456,1233,o),
(1456,817,cs),
(1456,636,ls),
(1456,220,o),
(1324,20,o),
(1070,20,cs)
);
}
);
width = 1690;
},
{
layerId = "D7CFBB37-D300-46E8-A355-ECFF19545BAA";
shapes = (
{
closed = 1;
nodes = (
(1445,-34,o),
(1608,180,o),
(1608,727,cs),
(1608,1273,o),
(1456,1487,o),
(1107,1487,cs),
(805,1487,o),
(648,1307,o),
(614,881,c),
(434,881,l),
(434,1453,l,{
name = hr01;
}),
(84,1453,l),
(84,0,l),
(434,0,l),
(434,591,l),
(614,591,l),
(639,155,o),
(788,-34,o),
(1107,-34,cs)
);
},
{
closed = 1;
nodes = (
(1011,262,o),
(974,321,o),
(974,574,cs),
(974,879,ls),
(974,1132,o),
(1011,1191,o),
(1110,1191,cs),
(1208,1191,o),
(1245,1132,o),
(1245,879,cs),
(1245,574,ls),
(1245,321,o),
(1208,262,o),
(1110,262,cs)
);
}
);
width = 1690;
},
{
layerId = "661A777E-9960-44AA-8623-3AD7C626B4F3";
shapes = (
{
closed = 1;
nodes = (
(1394,-34,o),
(1560,113,o),
(1560,727,cs),
(1560,1340,o),
(1394,1487,o),
(1095,1487,cs),
(814,1487,o),
(653,1357,o),
(634,836,c),
(360,836,l),
(360,1453,l,{
name = hr01;
}),
(152,1453,l),
(152,0,l),
(360,0,l),
(360,659,l),
(631,659,l),
(645,101,o),
(808,-34,o),
(1095,-34,cs)
);
},
{
closed = 1;
nodes = (
(932,152,o),
(848,239,o),
(848,594,cs),
(848,859,ls),
(848,1214,o),
(932,1301,o),
(1095,1301,cs),
(1259,1301,o),
(1343,1214,o),
(1343,859,cs),
(1343,594,ls),
(1343,239,o),
(1259,152,o),
(1095,152,cs)
);
}
);
width = 1690;
}
);
unicode = 1102;
}
{
glyphname = uni044F;
layers = (
{
layerId = master01;
shapes = (
{
closed = 1;
nodes = (
(358,0,ls),
(400,0,o),
(422,17,o),
(439,51,cs),
(746,642,l),
(1239,642,l),
(1239,0,l),
(1298,0,l),
(1298,1453,l),
(729,1453,ls),
(479,1453,o),
(313,1324,o),
(313,1048,cs),
(313,780,o),
(470,656,o),
(712,656,c),
(712,648,l),
(687,639,o),
(673,625,o),
(648,580,cs),
(375,54,l),
(222,54,l),
(222,0,l,{
name = hr00;
})
);
},
{
closed = 1;
nodes = (
(729,696,ls),
(507,696,o),
(377,811,o),
(377,1000,cs),
(377,1095,ls),
(377,1284,o),
(507,1400,o),
(729,1400,cs),
(1239,1400,l),
(1239,696,l)
);
}
);
width = 1690;
},
{
layerId = "D7CFBB37-D300-46E8-A355-ECFF19545BAA";
shapes = (
{
closed = 1;
nodes = (
(349,0,ls),
(518,0,o),
(611,51,o),
(701,211,cs),
(876,521,l),
(1056,521,l),
(1056,0,l),
(1473,0,l),
(1473,1453,l),
(662,1453,ls),
(375,1453,o),
(169,1267,o),
(169,974,cs),
(169,732,o),
(341,605,o),
(583,583,c),
(583,566,l),
(487,566,o),
(414,529,o),
(366,448,cs),
(296,324,l),
(127,324,l),
(127,0,l,{
name = hr00;
})
);
},
{
closed = 1;
nodes = (
(746,797,ls),
(645,797,o),
(589,867,o),
(589,941,cs),
(589,1005,ls),
(589,1079,o),
(645,1157,o),
(746,1157,cs),
(1056,1157,l),
(1056,797,l)
);
}
);
width = 1690;
},
{
layerId = "661A777E-9960-44AA-8623-3AD7C626B4F3";
shapes = (
{
closed = 1;
nodes = (
(346,0,ls),
(465,0,o),
(535,62,o),
(603,186,cs),
(803,560,l),
(1155,560,l),
(1155,0,l),
(1380,0,l),
(1380,1453,l),
(727,1453,ls),
(431,1453,o),
(251,1281,o),
(251,1005,cs),
(251,735,o),
(417,594,o),
(650,583,c),
(650,572,l),
(577,560,o),
(527,515,o),
(482,431,cs),
(355,191,l),
(191,191,l),
(191,0,l,{
name = hr00;
})
);
},
{
closed = 1;
nodes = (
(760,746,ls),
(591,746,o),
(490,811,o),
(490,960,cs),
(490,1048,ls),
(490,1197,o),
(591,1262,o),
(760,1262,cs),
(1155,1262,l),
(1155,746,l)
);
}
);
width = 1690;
}
);
unicode = 1103;
}
{
glyphname = uni0454;
layers = (
{
layerId = master01;
shapes = (
{
closed = 1;
nodes = (
(1169,-34,o),
(1343,113,o),
(1416,287,c),
(1366,310,l),
(1287,135,o),
(1132,20,o),
(907,20,cs),
(566,20,o),
(375,265,o),
(375,659,cs),
(375,735,l),
(1177,735,l),
(1177,788,l),
(375,788,l),
(375,794,ls),
(375,1188,o),
(566,1433,o),
(907,1433,cs),
(1121,1433,o),
(1273,1335,o),
(1343,1155,c),
(1397,1171,l),
(1332,1354,o),
(1160,1487,o),
(907,1487,cs),
(532,1487,o),
(310,1231,o),
(310,727,cs),
(310,222,o),
(532,-34,o),
(907,-34,cs,{
name = hr00;
})
);
}
);
width = 1690;
},
{
layerId = "D7CFBB37-D300-46E8-A355-ECFF19545BAA";
shapes = (
{
closed = 1;
nodes = (
(1222,-34,o),
(1416,104,o),
(1523,310,c),
(1222,482,l),
(1166,360,o),
(1076,276,o),
(904,276,cs),
(701,276,o),
(580,389,o),
(580,577,cs),
(580,589,l),
(1036,589,l),
(1036,865,l),
(580,865,l),
(580,887,ls),
(580,1067,o),
(710,1177,o),
(901,1177,cs),
(1064,1177,o),
(1149,1093,o),
(1200,969,c),
(1507,1132,l),
(1405,1343,o),
(1219,1487,o),
(901,1487,cs),
(448,1487,o),
(169,1197,o),
(169,727,cs),
(169,256,o),
(445,-34,o),
(904,-34,cs,{
name = hr00;
})
);
}
);
width = 1690;
},
{
layerId = "661A777E-9960-44AA-8623-3AD7C626B4F3";
shapes = (
{
closed = 1;
nodes = (
(1186,-34,o),
(1369,110,o),
(1453,304,c),
(1293,414,l),
(1219,256,o),
(1093,161,o),
(898,161,cs),
(625,161,o),
(479,346,o),
(479,603,cs),
(479,639,l),
(1110,639,l),
(1110,828,l),
(479,828,l),
(479,850,ls),
(479,1107,o),
(628,1293,o),
(893,1293,cs),
(1073,1293,o),
(1197,1205,o),
(1250,1056,c),
(1431,1152,l),
(1349,1349,o),
(1174,1487,o),
(893,1487,cs),
(482,1487,o),
(237,1188,o),
(237,727,cs),
(237,268,o),
(479,-34,o),
(895,-34,cs,{
name = hr00;
})
);
}
);
width = 1690;
}
);
unicode = 1108;
}
{
glyphname = uni0459;
layers = (
{
layerId = master01;
shapes = (
{
closed = 1;
nodes = (
(121,0,ls),
(161,0,o),
(191,8,o),
(220,37,cs),
(344,161,o),
(448,453,o),
(448,1000,cs),
(448,1400,l),
(935,1400,l),
(935,0,l),
(1214,0,ls),
(1464,0,o),
(1630,135,o),
(1630,417,cs),
(1630,698,o),
(1464,834,o),
(1214,834,cs),
(994,834,l),
(994,1453,l),
(389,1453,l),
(389,1000,ls),
(389,453,o),
(284,177,o),
(161,54,c),
(0,54,l),
(0,0,l,{
name = hr00;
})
);
},
{
closed = 1;
nodes = (
(994,780,l),
(1214,780,ls),
(1436,780,o),
(1566,656,o),
(1566,456,cs),
(1566,377,ls),
(1566,177,o),
(1436,54,o),
(1214,54,cs),
(994,54,l)
);
}
);
width = 1690;
},
{
layerId = "D7CFBB37-D300-46E8-A355-ECFF19545BAA";
shapes = (
{
closed = 1;
nodes = (
(51,-17,ls),
(197,-17,o),
(301,23,o),
(369,90,cs),
(493,214,o),
(558,375,o),
(558,1017,cs),
(558,1149,l),
(743,1149,l),
(743,0,l),
(1157,0,ls),
(1456,0,o),
(1678,183,o),
(1678,521,cs),
(1678,856,o),
(1456,1039,o),
(1169,1039,cs),
(1079,1039,l),
(1079,1453,l),
(239,1453,l),
(239,1028,ls),
(239,555,o),
(208,411,o),
(135,304,c),
(0,304,l),
(0,-17,l,{
name = hr00;
})
);
},
{
closed = 1;
nodes = (
(1079,763,l),
(1177,763,ls),
(1278,763,o),
(1340,698,o),
(1340,555,cs),
(1340,484,ls),
(1340,341,o),
(1278,276,o),
(1177,276,cs),
(1079,276,l)
);
}
);
width = 1690;
},
{
layerId = "661A777E-9960-44AA-8623-3AD7C626B4F3";
shapes = (
{
closed = 1;
nodes = (
(48,0,ls),
(146,0,o),
(234,25,o),
(304,96,cs),
(425,217,o),
(515,504,o),
(515,1062,cs),
(515,1267,l),
(819,1267,l),
(819,0,l),
(1191,0,ls),
(1487,0,o),
(1650,172,o),
(1650,465,cs),
(1650,755,o),
(1487,926,o),
(1191,926,cs),
(1028,926,l),
(1028,1453,l),
(313,1453,l),
(313,1067,ls),
(313,560,o),
(251,332,o),
(144,186,c),
(6,186,l),
(6,0,l,{
name = hr00;
})
);
},
{
closed = 1;
nodes = (
(1028,741,l),
(1157,741,ls),
(1332,741,o),
(1428,670,o),
(1428,521,cs),
(1428,406,ls),
(1428,256,o),
(1332,186,o),
(1157,186,cs),
(1028,186,l)
);
}
);
width = 1690;
}
);
unicode = 1113;
}
{
glyphname = uni045A;
layers = (
{
layerId = master01;
shapes = (
{
closed = 1;
nodes = (
(268,0,l),
(268,758,l),
(935,758,l),
(935,0,l),
(1214,0,ls),
(1464,0,o),
(1630,132,o),
(1630,406,cs),
(1630,679,o),
(1464,811,o),
(1214,811,cs),
(994,811,l),
(994,1453,l),
(935,1453,l),
(935,811,l),
(268,811,l),
(268,1453,l),
(208,1453,l),
(208,0,l,{
name = hr00;
})
);
},
{
closed = 1;
nodes = (
(994,758,l),
(1214,758,ls),
(1436,758,o),
(1566,636,o),
(1566,442,cs),
(1566,369,ls),
(1566,175,o),
(1436,54,o),
(1214,54,cs),
(994,54,l)
);
}
);
width = 1690;
},
{
layerId = "D7CFBB37-D300-46E8-A355-ECFF19545BAA";
shapes = (
{
closed = 1;
nodes = (
(420,0,l),
(420,586,l),
(712,586,l),
(712,0,l),
(1157,0,ls),
(1456,0,o),
(1678,183,o),
(1678,521,cs),
(1678,856,o),
(1456,1039,o),
(1169,1039,cs,{
name = hr01;
}),
(1048,1039,l),
(1048,1453,l),
(712,1453,l),
(712,890,l,{
name = hr02;
}),
(420,890,l),
(420,1453,l),
(84,1453,l),
(84,0,l)
);
},
{
closed = 1;
nodes = (
(1048,763,l,{
name = hr03;
}),
(1177,763,ls),
(1278,763,o),
(1340,698,o),
(1340,555,cs),
(1340,484,ls),
(1340,341,o),
(1278,276,o),
(1177,276,cs),
(1048,276,l)
);
}
);
width = 1690;
},
{
layerId = "661A777E-9960-44AA-8623-3AD7C626B4F3";
shapes = (
{
closed = 1;
nodes = (
(360,0,l),
(360,656,l),
(819,656,l),
(819,0,l),
(1191,0,ls),
(1487,0,o),
(1650,172,o),
(1650,465,cs),
(1650,755,o),
(1487,926,o),
(1191,926,cs,{
name = hr01;
}),
(1028,926,l),
(1028,1453,l),
(819,1453,l),
(819,842,l,{
name = hr02;
}),
(360,842,l),
(360,1453,l),
(152,1453,l),
(152,0,l)
);
},
{
closed = 1;
nodes = (
(1028,741,l,{
name = hr03;
}),
(1157,741,ls),
(1332,741,o),
(1428,670,o),
(1428,521,cs),
(1428,406,ls),
(1428,256,o),
(1332,186,o),
(1157,186,cs),
(1028,186,l)
);
}
);
width = 1690;
}
);
unicode = 1114;
}
{
glyphname = uni045F;
layers = (
{
layerId = master01;
shapes = (
{
closed = 1;
nodes = (
(814,0,l),
(814,-394,l),
(873,-394,l),
(873,0,l),
(1346,0,l),
(1346,1453,l),
(1287,1453,l),
(1287,54,l),
(403,54,l),
(403,1453,l),
(344,1453,l),
(344,0,l,{
name = hr00;
})
);
}
);
width = 1690;
},
{
layerId = "D7CFBB37-D300-46E8-A355-ECFF19545BAA";
shapes = (
{
closed = 1;
nodes = (
(656,0,l),
(656,-394,l),
(1033,-394,l),
(1033,0,l),
(1498,0,l),
(1498,1453,l),
(1081,1453,l),
(1081,324,l),
(608,324,l),
(608,1453,l),
(191,1453,l),
(191,0,l,{
name = hr00;
})
);
}
);
width = 1690;
},
{
layerId = "661A777E-9960-44AA-8623-3AD7C626B4F3";
shapes = (
{
closed = 1;
nodes = (
(743,0,l),
(743,-394,l),
(949,-394,l),
(949,0,l),
(1416,0,l),
(1416,1453,l),
(1191,1453,l),
(1191,191,l),
(498,191,l),
(498,1453,l),
(273,1453,l),
(273,0,l,{
name = hr00;
})
);
}
);
width = 1690;
}
);
unicode = 1119;
}
{
glyphname = uni0472;
layers = (
{
layerId = master01;
shapes = (
{
closed = 1;
nodes = (
(1256,-34,o),
(1490,262,o),
(1490,983,cs),
(1490,1704,o),
(1256,1999,o),
(845,1999,cs),
(434,1999,o),
(200,1704,o),
(200,983,cs),
(200,262,o),
(434,-34,o),
(845,-34,cs,{
name = hr00;
})
);
},
{
closed = 1;
nodes = (
(470,23,o),
(268,315,o),
(268,893,cs),
(268,969,l),
(1422,969,l),
(1422,893,ls),
(1422,315,o),
(1219,23,o),
(845,23,cs)
);
},
{
closed = 1;
nodes = (
(268,1073,ls),
(268,1650,o),
(470,1943,o),
(845,1943,cs),
(1219,1943,o),
(1422,1650,o),
(1422,1073,cs),
(1422,1025,l),
(268,1025,l)
);
}
);
width = 1690;
},
{
layerId = "D7CFBB37-D300-46E8-A355-ECFF19545BAA";
shapes = (
{
closed = 1;
nodes = (
(1371,-34,o),
(1614,341,o),
(1614,983,cs),
(1614,1625,o),
(1371,1999,o),
(845,1999,cs),
(318,1999,o),
(76,1625,o),
(76,983,cs),
(76,341,o),
(318,-34,o),
(845,-34,cs,{
name = hr00;
})
);
},
{
closed = 1;
nodes = (
(589,273,o),
(493,445,o),
(493,803,cs),
(493,822,l),
(1197,822,l),
(1197,803,ls),
(1197,445,o),
(1101,273,o),
(845,273,cs)
);
},
{
closed = 1;
nodes = (
(493,1211,ls),
(501,1535,o),
(600,1692,o),
(845,1692,cs),
(1090,1692,o),
(1186,1532,o),
(1197,1205,cs),
(1197,1169,l),
(493,1169,l)
);
}
);
width = 1690;
},
{
layerId = "661A777E-9960-44AA-8623-3AD7C626B4F3";
shapes = (
{
closed = 1;
nodes = (
(1324,-34,o),
(1532,341,o),
(1532,983,cs),
(1532,1625,o),
(1324,1999,o),
(845,1999,cs),
(366,1999,o),
(158,1625,o),
(158,983,cs),
(158,341,o),
(366,-34,o),
(845,-34,cs,{
name = hr00;
})
);
},
{
closed = 1;
nodes = (
(532,172,o),
(408,428,o),
(408,822,cs),
(408,893,l),
(1281,893,l),
(1281,822,ls),
(1281,428,o),
(1157,172,o),
(845,172,cs)
);
},
{
closed = 1;
nodes = (
(408,1143,ls),
(408,1538,o),
(532,1794,o),
(845,1794,cs),
(1157,1794,o),
(1281,1538,o),
(1281,1143,cs),
(1281,1098,l),
(408,1098,l)
);
}
);
width = 1690;
}
);
unicode = 1138;
}
{
glyphname = uni0473;
layers = (
{
layerId = master01;
shapes = (
{
closed = 1;
nodes = (
(1217,-34,o),
(1436,222,o),
(1436,727,cs),
(1436,1231,o),
(1217,1487,o),
(845,1487,cs),
(473,1487,o),
(253,1231,o),
(253,727,cs),
(253,222,o),
(473,-34,o),
(845,-34,cs,{
name = hr00;
})
);
},
{
closed = 1;
nodes = (
(507,20,o),
(318,265,o),
(318,659,cs),
(318,710,l),
(1371,710,l),
(1371,659,ls),
(1371,265,o),
(1183,20,o),
(845,20,cs)
);
},
{
closed = 1;
nodes = (
(318,794,ls),
(318,1188,o),
(507,1433,o),
(845,1433,cs),
(1183,1433,o),
(1371,1188,o),
(1371,794,cs),
(1371,763,l),
(318,763,l)
);
}
);
width = 1690;
},
{
layerId = "D7CFBB37-D300-46E8-A355-ECFF19545BAA";
shapes = (
{
closed = 1;
nodes = (
(1298,-34,o),
(1574,256,o),
(1574,727,cs),
(1574,1197,o),
(1298,1487,o),
(845,1487,cs),
(391,1487,o),
(115,1197,o),
(115,727,cs),
(115,256,o),
(391,-34,o),
(845,-34,cs,{
name = hr00;
})
);
},
{
closed = 1;
nodes = (
(639,245,o),
(515,355,o),
(515,580,cs),
(515,597,l),
(1174,597,l),
(1174,586,ls),
(1174,358,o),
(1050,245,o),
(845,245,cs)
);
},
{
closed = 1;
nodes = (
(515,898,ls),
(515,1104,o),
(648,1208,o),
(845,1208,cs),
(1042,1208,o),
(1174,1101,o),
(1174,890,cs),
(1174,873,l),
(515,873,l)
);
}
);
width = 1690;
},
{
layerId = "661A777E-9960-44AA-8623-3AD7C626B4F3";
shapes = (
{
closed = 1;
nodes = (
(1253,-34,o),
(1504,265,o),
(1504,727,cs),
(1504,1188,o),
(1253,1487,o),
(845,1487,cs),
(436,1487,o),
(186,1188,o),
(186,727,cs),
(186,265,o),
(436,-34,o),
(845,-34,cs,{
name = hr00;
})
);
},
{
closed = 1;
nodes = (
(594,161,o),
(425,310,o),
(425,622,cs),
(425,639,l),
(1264,639,l),
(1264,622,ls),
(1264,310,o),
(1095,161,o),
(845,161,cs)
);
},
{
closed = 1;
nodes = (
(425,848,ls),
(431,1149,o),
(600,1293,o),
(845,1293,cs),
(1093,1293,o),
(1262,1146,o),
(1264,842,cs),
(1264,831,l),
(425,831,l)
);
}
);
width = 1690;
}
);
unicode = 1139;
}
{
glyphname = uni0492;
layers = (
{
layerId = master01;
shapes = (
{
closed = 1;
nodes = (
(177,1084,l),
(487,1084,l),
(487,0,l),
(549,0,l),
(549,1084,l),
(1174,1084,l),
(1174,1140,l),
(549,1140,l),
(549,1909,l),
(1521,1909,l),
(1521,1966,l),
(487,1966,l),
(487,1140,l),
(177,1140,l,{
name = hr00;
})
);
}
);
width = 1690;
},
{
layerId = "D7CFBB37-D300-46E8-A355-ECFF19545BAA";
shapes = (
{
closed = 1;
nodes = (
(107,794,l),
(346,794,l),
(346,0,l),
(772,0,l),
(772,794,l),
(1262,794,l),
(1262,1115,l),
(772,1115,l),
(772,1619,l),
(1532,1619,l),
(1532,1966,l),
(346,1966,l),
(346,1115,l),
(107,1115,l,{
name = hr00;
})
);
}
);
width = 1690;
},
{
layerId = "661A777E-9960-44AA-8623-3AD7C626B4F3";
shapes = (
{
closed = 1;
nodes = (
(144,946,l),
(422,946,l),
(422,0,l),
(659,0,l),
(659,946,l),
(1217,946,l),
(1217,1126,l),
(659,1126,l),
(659,1760,l),
(1523,1760,l),
(1523,1966,l),
(422,1966,l),
(422,1126,l),
(144,1126,l,{
name = hr00;
})
);
}
);
width = 1690;
}
);
unicode = 1170;
}
{
glyphname = uni0495;
layers = (
{
layerId = master01;
shapes = (
{
closed = 1;
nodes = (
(1045,-563,ls),
(1298,-563,o),
(1422,-386,o),
(1422,-31,cs),
(1422,253,ls),
(1422,642,o),
(1259,780,o),
(938,780,cs),
(704,780,o),
(541,687,o),
(487,563,c),
(479,563,l),
(479,1400,l),
(1180,1400,l),
(1180,1453,l),
(420,1453,l),
(420,0,l),
(479,0,l),
(479,403,ls),
(479,625,o),
(704,727,o),
(938,727,cs),
(1219,727,o),
(1363,620,o),
(1363,253,cs),
(1363,-20,ls),
(1363,-338,o),
(1273,-451,o),
(1129,-510,c),
(938,-510,l),
(938,-563,l,{
name = hr00;
})
);
}
);
width = 1690;
},
{
layerId = "D7CFBB37-D300-46E8-A355-ECFF19545BAA";
shapes = (
{
closed = 1;
nodes = (
(1042,-563,ls),
(1380,-563,o),
(1521,-391,o),
(1521,3,cs),
(1521,251,ls),
(1521,645,o),
(1380,817,o),
(1042,817,cs),
(856,817,o),
(729,741,o),
(639,622,c),
(625,622,l),
(625,1129,l),
(1307,1129,l),
(1307,1453,l),
(208,1453,l),
(208,0,l),
(625,0,l),
(625,318,ls),
(625,420,o),
(707,479,o),
(876,479,cs),
(1045,479,o),
(1104,417,o),
(1104,225,cs),
(1104,28,ls),
(1104,-141,o),
(1081,-200,o),
(1048,-239,c),
(766,-239,l),
(766,-563,l,{
name = hr00;
})
);
}
);
width = 1690;
},
{
layerId = "661A777E-9960-44AA-8623-3AD7C626B4F3";
shapes = (
{
closed = 1;
nodes = (
(1039,-563,ls),
(1293,-563,o),
(1464,-414,o),
(1464,-48,cs),
(1464,287,ls),
(1464,653,o),
(1295,803,o),
(983,803,cs),
(777,803,o),
(653,743,o),
(549,628,c),
(535,628,l),
(535,1262,l),
(1228,1262,l),
(1228,1453,l),
(310,1453,l),
(310,0,l),
(535,0,l),
(535,422,ls),
(535,541,o),
(693,600,o),
(915,600,cs),
(1143,600,o),
(1239,513,o),
(1239,259,cs),
(1239,-14,ls),
(1239,-183,o),
(1202,-304,o),
(1146,-372,c),
(910,-372,l),
(910,-563,l,{
name = hr00;
})
);
}
);
width = 1690;
}
);
unicode = 1173;
}
{
glyphname = uni0496;
layers = (
{
layerId = master01;
shapes = (
{
closed = 1;
nodes = (
(1712,-422,l),
(1712,56,l),
(1560,56,l),
(1211,879,ls),
(1188,935,o),
(1163,983,o),
(1126,991,c),
(1126,1000,l),
(1169,1011,o),
(1186,1053,o),
(1208,1112,cs),
(1526,1966,l),
(1462,1966,l),
(1115,1025,l),
(831,1025,l),
(831,1966,l),
(769,1966,l),
(769,1025,l),
(484,1025,l),
(138,1966,l),
(73,1966,l),
(391,1112,ls),
(414,1053,o),
(431,1011,o),
(473,1000,c),
(473,991,l),
(436,983,o),
(411,935,o),
(389,879,cs),
(17,0,l),
(84,0,l),
(490,969,l),
(769,969,l),
(769,0,l),
(831,0,l),
(831,969,l),
(1110,969,l),
(1515,0,l),
(1650,0,l),
(1650,-422,l,{
name = hr00;
})
);
}
);
width = 1690;
},
{
layerId = "D7CFBB37-D300-46E8-A355-ECFF19545BAA";
shapes = (
{
closed = 1;
nodes = (
(1757,-422,l),
(1757,318,l),
(1585,318,l),
(1512,701,ls),
(1478,887,o),
(1408,977,o),
(1267,1005,c),
(1267,1022,l),
(1385,1056,o),
(1459,1135,o),
(1492,1309,cs),
(1616,1966,l),
(1259,1966,l),
(1107,1155,l),
(994,1155,l),
(994,1966,l),
(628,1966,l),
(628,1155,l),
(515,1155,l),
(363,1966,l),
(6,1966,l),
(130,1309,ls),
(163,1135,o),
(237,1056,o),
(355,1022,c),
(355,1005,l),
(214,977,o),
(144,887,o),
(110,701,cs),
(-23,0,l),
(358,0,l),
(515,836,l),
(628,836,l),
(628,0,l),
(994,0,l),
(994,836,l),
(1107,836,l),
(1264,0,l),
(1447,0,l),
(1447,-422,l,{
name = hr00;
})
);
}
);
width = 1690;
},
{
layerId = "661A777E-9960-44AA-8623-3AD7C626B4F3";
shapes = (
{
closed = 1;
nodes = (
(1791,-422,l),
(1791,206,l),
(1580,206,l),
(1411,746,ls),
(1354,926,o),
(1293,974,o),
(1208,991,c),
(1208,1005,l),
(1287,1022,o),
(1340,1076,o),
(1388,1239,cs),
(1599,1966,l),
(1371,1966,l),
(1115,1098,l),
(926,1098,l),
(926,1966,l),
(696,1966,l),
(696,1098,l),
(507,1098,l),
(253,1966,l),
(23,1966,l),
(231,1236,ls),
(276,1076,o),
(335,1022,o),
(414,1005,c),
(414,991,l),
(329,974,o),
(273,929,o),
(214,746,cs),
(-23,0,l),
(220,0,l),
(507,895,l),
(696,895,l),
(696,0,l),
(926,0,l),
(926,895,l),
(1115,895,l),
(1400,0,l),
(1580,0,l),
(1580,-422,l,{
name = hr00;
})
);
}
);
width = 1690;
}
);
unicode = 1174;
}
{
glyphname = uni0499;
layers = (
{
layerId = master01;
shapes = (
{
closed = 1;
nodes = (
(879,-394,l),
(879,-34,l),
(1205,-23,o),
(1394,135,o),
(1394,380,cs),
(1394,594,o),
(1247,724,o),
(1005,752,c),
(1005,758,l),
(1214,797,o),
(1354,910,o),
(1354,1112,cs,{
name = hr01;
}),
(1354,1346,o),
(1166,1487,o),
(856,1487,cs),
(628,1487,o),
(434,1411,o),
(349,1270,c),
(394,1242,l),
(473,1360,o),
(634,1433,o),
(850,1433,cs),
(1121,1433,o),
(1290,1318,o),
(1290,1140,cs),
(1290,1090,ls),
(1290,907,o),
(1104,780,o),
(845,780,cs),
(518,780,l),
(518,727,l),
(850,727,ls),
(1140,727,o),
(1329,600,o),
(1329,406,cs,{
name = hr02;
}),
(1329,349,ls),
(1329,149,o),
(1135,20,o),
(845,20,cs),
(645,20,o),
(451,82,o),
(332,242,c),
(287,208,l),
(406,45,o),
(605,-28,o),
(819,-34,c),
(819,-394,l)
);
}
);
width = 1690;
},
{
layerId = "D7CFBB37-D300-46E8-A355-ECFF19545BAA";
shapes = (
{
closed = 1;
nodes = (
(1002,-394,l),
(1002,-23,l),
(1332,20,o),
(1509,183,o),
(1509,406,cs),
(1509,597,o),
(1371,724,o),
(1180,752,c),
(1180,766,l),
(1360,800,o),
(1481,912,o),
(1481,1093,cs,{
name = hr01;
}),
(1481,1318,o),
(1247,1487,o),
(842,1487,cs),
(529,1487,o),
(335,1388,o),
(183,1225,c),
(414,1011,l),
(521,1124,o),
(639,1177,o),
(805,1177,cs),
(977,1177,o),
(1062,1107,o),
(1062,1022,cs),
(1062,1005,ls),
(1062,918,o),
(1014,865,o),
(895,865,cs),
(591,865,l),
(591,589,l),
(932,589,ls),
(1042,589,o),
(1090,541,o),
(1090,459,cs,{
name = hr02;
}),
(1090,442,ls),
(1090,341,o),
(997,276,o),
(825,276,cs),
(620,276,o),
(496,335,o),
(383,459,c),
(144,237,l),
(239,107,o),
(408,14,o),
(625,-20,c),
(625,-394,l)
);
}
);
width = 1690;
},
{
layerId = "661A777E-9960-44AA-8623-3AD7C626B4F3";
shapes = (
{
closed = 1;
nodes = (
(890,-394,l),
(890,-28,l),
(1219,0,o),
(1408,169,o),
(1408,422,cs),
(1408,605,o),
(1304,732,o),
(1110,760,c),
(1110,772,l),
(1278,814,o),
(1377,915,o),
(1377,1095,cs,{
name = hr01;
}),
(1377,1338,o),
(1188,1487,o),
(803,1487,cs),
(501,1487,o),
(324,1377,o),
(194,1186,c),
(352,1079,l),
(436,1214,o),
(566,1293,o),
(791,1293,cs),
(1045,1293,o),
(1138,1208,o),
(1138,1084,cs),
(1138,1050,ls),
(1138,918,o),
(1042,845,o),
(862,845,cs),
(498,845,l),
(498,656,l),
(890,656,ls),
(1070,656,o),
(1169,577,o),
(1169,431,cs,{
name = hr02;
}),
(1169,391,ls),
(1169,256,o),
(1053,161,o),
(786,161,cs),
(572,161,o),
(428,239,o),
(338,383,c),
(172,248,l),
(282,87,o),
(442,-8,o),
(684,-28,c),
(684,-394,l)
);
}
);
width = 1690;
}
);
unicode = 1177;
}
{
glyphname = uni049A;
layers = (
{
layerId = master01;
shapes = (
{
closed = 1;
nodes = (
(1554,-422,l),
(1554,56,l),
(1349,56,l),
(938,879,ls),
(910,935,o),
(887,986,o),
(842,991,c),
(842,1000,l),
(893,1008,o),
(918,1067,o),
(943,1112,cs),
(1433,1966,l),
(1369,1966,l),
(825,1025,l),
(338,1025,l),
(338,1966,l),
(276,1966,l),
(276,0,l),
(338,0,l),
(338,969,l),
(825,969,l),
(1281,56,ls),
(1304,8,o),
(1329,0,o),
(1374,0,cs),
(1492,0,l),
(1492,-422,l,{
name = hr00;
})
);
}
);
width = 1690;
},
{
layerId = "D7CFBB37-D300-46E8-A355-ECFF19545BAA";
shapes = (
{
closed = 1;
nodes = (
(1681,-422,l),
(1681,346,l),
(1442,346,l),
(1273,783,ls),
(1214,935,o),
(1157,983,o),
(1056,1005,c),
(1056,1022,l),
(1157,1045,o),
(1219,1107,o),
(1281,1264,cs),
(1557,1966,l),
(1138,1966,l),
(822,1166,l),
(574,1166,l),
(574,1966,l),
(149,1966,l),
(149,0,l),
(574,0,l),
(574,825,l),
(822,825,l),
(1036,268,ls),
(1095,118,o),
(1166,45,o),
(1267,6,cs),
(1281,0,l),
(1281,-422,l,{
name = hr00;
})
);
}
);
width = 1690;
},
{
layerId = "661A777E-9960-44AA-8623-3AD7C626B4F3";
shapes = (
{
closed = 1;
nodes = (
(1574,-422,l),
(1574,206,l),
(1346,206,l),
(1093,774,ls),
(1025,929,o),
(980,974,o),
(895,991,c),
(895,1005,l),
(963,1017,o),
(1014,1056,o),
(1079,1188,cs),
(1453,1966,l),
(1202,1966,l),
(786,1098,l),
(439,1098,l),
(439,1966,l),
(203,1966,l),
(203,0,l),
(439,0,l),
(439,895,l),
(786,895,l),
(1090,208,ls),
(1152,70,o),
(1225,0,o),
(1340,0,cs),
(1357,0,l),
(1357,-422,l,{
name = hr00;
})
);
}
);
width = 1690;
}
);
unicode = 1178;
}
{
glyphname = uni04A0;
layers = (
{
layerId = master01;
shapes = (
{
closed = 1;
nodes = (
(600,0,l),
(600,969,l),
(960,969,l),
(1416,56,ls),
(1439,8,o),
(1464,0,o),
(1509,0,cs),
(1690,0,l),
(1690,56,l),
(1484,56,l),
(1073,879,ls),
(1045,935,o),
(1022,986,o),
(977,991,c),
(977,1000,l),
(1028,1008,o),
(1053,1067,o),
(1079,1112,cs),
(1569,1966,l),
(1504,1966,l),
(960,1025,l),
(600,1025,l),
(600,1966,l),
(0,1966,l),
(0,1909,l),
(538,1909,l),
(538,0,l,{
name = hr00;
})
);
}
);
width = 1690;
},
{
layerId = "D7CFBB37-D300-46E8-A355-ECFF19545BAA";
shapes = (
{
closed = 1;
nodes = (
(755,0,l),
(755,825,l),
(946,825,l),
(1126,284,ls),
(1194,84,o),
(1304,0,o),
(1487,0,cs),
(1687,0,l),
(1687,346,l),
(1535,346,l),
(1394,769,ls),
(1343,921,o),
(1278,983,o),
(1177,1005,c),
(1177,1022,l),
(1278,1050,o),
(1346,1124,o),
(1388,1242,cs),
(1645,1966,l),
(1228,1966,l),
(946,1166,l),
(755,1166,l),
(755,1966,l),
(3,1966,l),
(3,1619,l),
(329,1619,l),
(329,0,l,{
name = hr00;
})
);
}
);
width = 1690;
},
{
layerId = "661A777E-9960-44AA-8623-3AD7C626B4F3";
shapes = (
{
closed = 1;
nodes = (
(693,0,l),
(693,895,l),
(977,895,l),
(1245,231,ls),
(1312,65,o),
(1400,0,o),
(1509,0,cs),
(1687,0,l),
(1687,206,l),
(1504,206,l),
(1273,777,ls),
(1211,929,o),
(1166,974,o),
(1081,991,c),
(1081,1005,l),
(1160,1022,o),
(1208,1067,o),
(1270,1202,cs),
(1611,1966,l),
(1360,1966,l),
(977,1098,l),
(693,1098,l),
(693,1966,l),
(6,1966,l),
(6,1760,l),
(456,1760,l),
(456,0,l,{
name = hr00;
})
);
}
);
width = 1690;
}
);
unicode = 1184;
}
{
glyphname = uni04A1;
layers = (
{
layerId = master01;
shapes = (
{
closed = 1;
nodes = (
(614,0,l),
(614,735,l),
(938,735,l),
(1357,51,ls),
(1377,20,o),
(1397,0,o),
(1439,0,cs),
(1574,0,l),
(1574,54,l),
(1422,54,l),
(1045,673,ls),
(1014,727,o),
(994,749,o),
(955,758,c),
(955,766,l),
(991,772,o),
(1011,797,o),
(1048,848,cs),
(1490,1453,l),
(1422,1453,l),
(935,788,l),
(614,788,l),
(614,1453,l),
(39,1453,l),
(39,1400,l),
(555,1400,l),
(555,0,l,{
name = hr00;
})
);
}
);
width = 1690;
},
{
layerId = "D7CFBB37-D300-46E8-A355-ECFF19545BAA";
shapes = (
{
closed = 1;
nodes = (
(755,0,l),
(755,577,l),
(924,577,l),
(1087,228,ls),
(1169,56,o),
(1281,0,o),
(1436,0,cs),
(1630,0,l),
(1630,324,l),
(1476,324,l),
(1369,552,ls),
(1312,670,o),
(1250,727,o),
(1135,749,c),
(1135,766,l),
(1233,788,o),
(1301,831,o),
(1363,943,cs),
(1636,1453,l),
(1194,1453,l),
(924,895,l),
(755,895,l),
(755,1453,l),
(14,1453,l),
(14,1129,l),
(338,1129,l),
(338,0,l,{
name = hr00;
})
);
}
);
width = 1690;
},
{
layerId = "661A777E-9960-44AA-8623-3AD7C626B4F3";
shapes = (
{
closed = 1;
nodes = (
(679,0,l),
(679,653,l),
(949,653,l),
(1186,203,ls),
(1267,45,o),
(1338,0,o),
(1433,0,cs),
(1597,0,l),
(1597,191,l),
(1433,191,l),
(1222,594,ls),
(1171,690,o),
(1112,732,o),
(1039,743,c),
(1039,755,l),
(1107,772,o),
(1160,811,o),
(1217,907,cs),
(1546,1453,l),
(1312,1453,l),
(949,845,l),
(679,845,l),
(679,1453,l),
(31,1453,l),
(31,1262,l),
(453,1262,l),
(453,0,l,{
name = hr00;
})
);
}
);
width = 1690;
}
);
unicode = 1185;
}
{
glyphname = uni04AA;
layers = (
{
layerId = master01;
shapes = (
{
closed = 1;
nodes = (
(949,-422,l),
(949,-31,l),
(1197,-20,o),
(1377,130,o),
(1459,363,c),
(1405,383,l),
(1329,161,o),
(1155,23,o),
(915,23,cs),
(507,23,o),
(290,315,o),
(290,893,cs),
(290,1073,ls),
(290,1650,o),
(507,1943,o),
(915,1943,cs),
(1155,1943,o),
(1329,1805,o),
(1405,1583,c),
(1459,1602,l),
(1374,1844,o),
(1180,1999,o),
(915,1999,cs),
(470,1999,o),
(222,1704,o),
(222,983,cs),
(222,276,o),
(459,-17,o),
(887,-31,c),
(887,-422,l,{
name = hr00;
})
);
}
);
width = 1690;
},
{
layerId = "D7CFBB37-D300-46E8-A355-ECFF19545BAA";
shapes = (
{
closed = 1;
nodes = (
(1090,-422,l),
(1090,-11,l),
(1366,51,o),
(1521,251,o),
(1585,532,c),
(1191,628,l),
(1149,442,o),
(1079,307,o),
(881,307,cs),
(653,307,o),
(566,498,o),
(566,811,cs),
(566,1155,ls),
(566,1467,o),
(653,1659,o),
(881,1659,cs),
(1079,1659,o),
(1149,1523,o),
(1191,1338,c),
(1585,1433,l),
(1507,1777,o),
(1295,1999,o),
(890,1999,cs),
(363,1999,o),
(115,1628,o),
(115,983,cs),
(115,425,o),
(298,73,o),
(690,-11,c),
(690,-422,l,{
name = hr00;
})
);
}
);
width = 1690;
},
{
layerId = "661A777E-9960-44AA-8623-3AD7C626B4F3";
shapes = (
{
closed = 1;
nodes = (
(1017,-422,l),
(1017,-25,l),
(1301,11,o),
(1428,206,o),
(1515,397,c),
(1312,490,l),
(1242,315,o),
(1149,172,o),
(910,172,cs),
(597,172,o),
(448,428,o),
(448,822,cs),
(448,1143,ls),
(448,1538,o),
(597,1794,o),
(910,1794,cs),
(1149,1794,o),
(1242,1650,o),
(1312,1476,c),
(1515,1569,l),
(1419,1783,o),
(1270,1999,o),
(910,1999,cs),
(431,1999,o),
(197,1636,o),
(197,983,cs),
(197,380,o),
(394,25,o),
(800,-25,c),
(800,-422,l,{
name = hr00;
})
);
}
);
width = 1690;
}
);
unicode = 1194;
}
{
glyphname = uni04B2;
layers = (
{
layerId = master01;
shapes = (
{
closed = 1;
nodes = (
(1690,-422,l),
(1690,56,l),
(1490,56,l),
(862,1005,l),
(1504,1966,l),
(1431,1966,l),
(1045,1383,l),
(828,1056,l),
(819,1056,l),
(600,1388,l),
(217,1966,l),
(141,1966,l),
(786,997,l),
(115,0,l),
(189,0,l),
(681,738,l),
(819,946,l),
(828,946,l),
(977,721,l),
(1453,0,l),
(1628,0,l),
(1628,-422,l,{
name = hr00;
})
);
}
);
width = 1690;
},
{
layerId = "D7CFBB37-D300-46E8-A355-ECFF19545BAA";
shapes = (
{
closed = 1;
nodes = (
(1698,-422,l),
(1698,346,l),
(1459,346,l),
(1095,1011,l),
(1611,1966,l),
(1169,1966,l),
(1000,1653,l),
(853,1338,l),
(831,1338,l),
(687,1653,l),
(527,1966,l),
(45,1966,l),
(560,1017,l),
(8,0,l),
(451,0,l),
(659,391,l),
(800,701,l),
(825,701,l),
(963,391,l),
(1166,0,l),
(1298,0,l),
(1298,-422,l,{
name = hr00;
})
);
}
);
width = 1690;
},
{
layerId = "661A777E-9960-44AA-8623-3AD7C626B4F3";
shapes = (
{
closed = 1;
nodes = (
(1704,-422,l),
(1704,206,l),
(1476,206,l),
(974,1005,l),
(1583,1966,l),
(1324,1966,l),
(1087,1585,l),
(845,1188,l),
(834,1188,l),
(589,1585,l),
(360,1966,l),
(93,1966,l),
(698,1002,l),
(56,0,l),
(315,0,l),
(560,397,l),
(828,825,l),
(839,825,l),
(1098,397,l),
(1335,0,l),
(1487,0,l),
(1487,-422,l,{
name = hr00;
})
);
}
);
width = 1690;
}
);
unicode = 1202;
}
{
glyphname = uni04B6;
layers = (
{
layerId = master01;
shapes = (
{
closed = 1;
nodes = (
(1633,-422,l),
(1633,56,l),
(1371,56,l),
(1371,1966,l),
(1309,1966,l),
(1309,935,l),
(1211,876,o),
(1022,834,o),
(834,834,cs),
(453,834,o),
(265,1008,o),
(265,1394,cs),
(265,1966,l),
(203,1966,l),
(203,1394,ls),
(203,983,o),
(403,777,o),
(836,777,cs),
(1025,777,o),
(1200,817,o),
(1304,876,c),
(1309,876,l),
(1309,0,l),
(1571,0,l),
(1571,-422,l,{
name = hr00;
})
);
}
);
width = 1690;
},
{
layerId = "D7CFBB37-D300-46E8-A355-ECFF19545BAA";
shapes = (
{
closed = 1;
nodes = (
(1642,-422,l),
(1642,346,l),
(1425,346,l,{
name = hr01;
}),
(1425,1966,l),
(1000,1966,l),
(1000,1017,l),
(915,983,o),
(836,969,o),
(755,969,cs),
(572,969,o),
(496,1056,o),
(496,1326,cs),
(496,1966,l),
(70,1966,l),
(70,1349,ls),
(70,822,o),
(270,631,o),
(667,631,cs),
(786,631,o),
(901,653,o),
(986,693,c),
(1000,693,l),
(1000,0,l),
(1242,0,l,{
name = hr02;
}),
(1242,-422,l)
);
}
);
width = 1690;
},
{
layerId = "661A777E-9960-44AA-8623-3AD7C626B4F3";
shapes = (
{
closed = 1;
nodes = (
(1616,-422,l),
(1616,206,l),
(1405,206,l,{
name = hr01;
}),
(1405,1966,l),
(1169,1966,l),
(1169,983,l),
(1062,938,o),
(955,915,o),
(777,915,cs),
(484,915,o),
(386,1048,o),
(386,1408,cs),
(386,1966,l),
(149,1966,l),
(149,1408,ls),
(149,935,o),
(310,710,o),
(769,710,cs),
(935,710,o),
(1064,735,o),
(1155,774,c),
(1169,774,l),
(1169,0,l),
(1400,0,l,{
name = hr02;
}),
(1400,-422,l)
);
}
);
width = 1690;
}
);
unicode = 1206;
}
{
glyphname = uni04B9;
layers = (
{
layerId = master01;
shapes = (
{
closed = 1;
nodes = (
(1293,0,l),
(1293,1453,l),
(1233,1453,l),
(1233,926,ls),
(1233,724,o),
(1036,622,o),
(822,605,c),
(822,1059,l),
(763,1059,l),
(763,603,l),
(490,603,o),
(349,715,o),
(349,963,cs),
(349,1453,l),
(290,1453,l),
(290,957,ls),
(290,693,o),
(451,549,o),
(763,549,c),
(763,296,l),
(822,296,l),
(822,552,l),
(1025,566,o),
(1177,653,o),
(1225,766,c),
(1233,766,l),
(1233,0,l,{
name = hr00;
})
);
}
);
width = 1690;
},
{
layerId = "D7CFBB37-D300-46E8-A355-ECFF19545BAA";
shapes = (
{
closed = 1;
nodes = (
(1490,0,l),
(1490,1453,l),
(1073,1453,l),
(1073,910,ls),
(1073,831,o),
(1028,786,o),
(949,763,c),
(949,1152,l),
(679,1152,l),
(679,763,l),
(594,788,o),
(555,839,o),
(555,926,cs),
(555,1453,l),
(138,1453,l),
(138,938,ls),
(138,583,o),
(268,411,o),
(679,411,c),
(679,203,l),
(949,203,l),
(949,465,l),
(988,493,o),
(1031,538,o),
(1059,577,c),
(1073,577,l),
(1073,0,l,{
name = hr00;
})
);
}
);
width = 1690;
},
{
layerId = "661A777E-9960-44AA-8623-3AD7C626B4F3";
shapes = (
{
closed = 1;
nodes = (
(1380,0,l),
(1380,1453,l),
(1155,1453,l),
(1155,873,ls),
(1155,772,o),
(1045,715,o),
(890,698,c),
(890,1104,l),
(715,1104,l),
(715,698,l),
(543,707,o),
(451,791,o),
(451,960,cs),
(451,1453,l),
(225,1453,l),
(225,941,ls),
(225,642,o),
(391,493,o),
(715,493,c),
(715,251,l),
(890,251,l),
(890,510,l),
(983,532,o),
(1073,586,o),
(1140,665,c),
(1155,665,l),
(1155,0,l,{
name = hr00;
})
);
}
);
width = 1690;
}
);
unicode = 1209;
}
{
glyphname = baht;
layers = (
{
layerId = master01;
shapes = (
{
closed = 1;
nodes = (
(822,-318,l),
(822,0,l,{
name = hr00;
}),
(963,0,ls),
(1284,0,o),
(1453,203,o),
(1453,513,cs),
(1453,780,o),
(1332,960,o),
(1090,1005,c),
(1090,1011,l),
(1262,1067,o),
(1363,1211,o),
(1363,1467,cs),
(1363,1794,o),
(1191,1966,o),
(822,1966,c),
(822,2284,l),
(766,2284,l),
(766,1966,l),
(276,1966,l),
(276,0,l),
(766,0,l),
(766,-318,l)
);
},
{
closed = 1;
nodes = (
(338,969,l),
(766,969,l),
(766,56,l),
(338,56,l)
);
},
{
closed = 1;
nodes = (
(822,969,l),
(963,969,ls),
(1253,969,o),
(1385,777,o),
(1385,572,cs),
(1385,453,ls),
(1385,248,o),
(1253,56,o),
(963,56,cs),
(822,56,l)
);
},
{
closed = 1;
nodes = (
(338,1909,l),
(766,1909,l),
(766,1025,l),
(338,1025,l)
);
},
{
closed = 1;
nodes = (
(822,1909,l),
(1171,1909,o),
(1295,1729,o),
(1295,1526,cs),
(1295,1408,ls),
(1295,1205,o),
(1171,1025,o),
(901,1025,cs),
(822,1025,l)
);
}
);
width = 1690;
},
{
layerId = "D7CFBB37-D300-46E8-A355-ECFF19545BAA";
shapes = (
{
closed = 1;
nodes = (
(1008,-318,l),
(1008,0,l),
(1031,0,l),
(1388,8,o),
(1599,217,o),
(1599,541,cs),
(1599,803,o),
(1459,955,o),
(1219,1011,c),
(1219,1028,l),
(1431,1087,o),
(1543,1222,o),
(1543,1442,cs,{
name = hr01;
}),
(1543,1766,o),
(1321,1943,o),
(1008,1963,c),
(1008,2284,l),
(687,2284,l),
(687,1966,l),
(180,1966,l),
(180,0,l),
(687,0,l),
(687,-318,l)
);
},
{
closed = 1;
nodes = (
(558,850,l),
(715,850,l),
(715,293,l),
(558,293,l)
);
},
{
closed = 1;
nodes = (
(980,848,l),
(1000,845,l),
(1126,828,o),
(1194,766,o),
(1194,622,cs,{
name = hr02;
}),
(1194,521,ls),
(1194,380,o),
(1132,318,o),
(1008,298,c),
(980,296,l)
);
},
{
closed = 1;
nodes = (
(558,1673,l),
(715,1673,l),
(715,1129,l),
(558,1129,l)
);
},
{
closed = 1;
nodes = (
(980,1661,l),
(1081,1639,o),
(1138,1574,o),
(1138,1447,cs),
(1138,1354,ls),
(1138,1236,o),
(1090,1174,o),
(997,1146,c),
(980,1140,l)
);
}
);
width = 1690;
},
{
layerId = "661A777E-9960-44AA-8623-3AD7C626B4F3";
shapes = (
{
closed = 1;
nodes = (
(918,-318,l),
(918,0,l),
(949,0,l),
(1304,14,o),
(1515,256,o),
(1515,566,cs),
(1515,828,o),
(1360,955,o),
(1163,1017,c),
(1163,1025,l),
(1346,1084,o),
(1481,1208,o),
(1481,1459,cs,{
name = hr01;
}),
(1481,1766,o),
(1276,1966,o),
(918,1966,c),
(918,2284,l),
(743,2284,l),
(743,1966,l),
(248,1966,l),
(248,0,l),
(743,0,l),
(743,-318,l)
);
},
{
closed = 1;
nodes = (
(479,921,l),
(746,921,l),
(746,200,l),
(479,200,l)
);
},
{
closed = 1;
nodes = (
(915,921,l),
(932,921,l),
(1157,915,o),
(1276,814,o),
(1276,622,cs,{
name = hr02;
}),
(1276,498,ls),
(1276,310,o),
(1163,211,o),
(949,200,c),
(915,200,l)
);
},
{
closed = 1;
nodes = (
(479,1766,l),
(746,1766,l),
(746,1110,l),
(479,1110,l)
);
},
{
closed = 1;
nodes = (
(915,1766,l),
(1110,1766,o),
(1245,1695,o),
(1245,1492,cs),
(1245,1377,ls),
(1245,1205,o),
(1143,1118,o),
(941,1110,c),
(915,1110,l)
);
}
);
width = 1690;
}
);
unicode = 3647;
}
{
glyphname = endash;
layers = (
{
layerId = master01;
shapes = (
{
closed = 1;
nodes = (
(1521,887,l),
(169,887,l),
(169,834,l),
(1521,834,l,{
name = hr00;
})
);
}
);
width = 1690;
},
{
layerId = "D7CFBB37-D300-46E8-A355-ECFF19545BAA";
shapes = (
{
closed = 1;
nodes = (
(1521,1028,l),
(169,1028,l),
(169,687,l),
(1521,687,l,{
name = hr00;
})
);
}
);
width = 1690;
},
{
layerId = "661A777E-9960-44AA-8623-3AD7C626B4F3";
shapes = (
{
closed = 1;
nodes = (
(1521,960,l),
(169,960,l),
(169,752,l),
(1521,752,l,{
name = hr00;
})
);
}
);
width = 1690;
}
);
unicode = 8211;
}
{
glyphname = quoteright;
layers = (
{
layerId = master01;
shapes = (
{
closed = 1;
nodes = (
(786,1380,l),
(1008,2084,l),
(887,2084,l),
(738,1380,l,{
name = hr00;
})
);
}
);
width = 1690;
},
{
layerId = "D7CFBB37-D300-46E8-A355-ECFF19545BAA";
shapes = (
{
closed = 1;
nodes = (
(845,1166,l),
(1233,2084,l),
(698,2084,l),
(538,1166,l,{
name = hr00;
})
);
}
);
width = 1690;
},
{
layerId = "661A777E-9960-44AA-8623-3AD7C626B4F3";
shapes = (
{
closed = 1;
nodes = (
(817,1304,l),
(1140,2084,l),
(777,2084,l),
(628,1304,l,{
name = hr00;
})
);
}
);
width = 1690;
}
);
unicode = 8217;
}
{
glyphname = dagger;
layers = (
{
layerId = master01;
shapes = (
{
closed = 1;
nodes = (
(876,1400,l),
(1473,1400,l),
(1473,1453,l),
(876,1453,l),
(876,2084,l),
(817,2084,l),
(817,1453,l),
(220,1453,l),
(220,1400,l),
(817,1400,l),
(817,-563,l),
(876,-563,l,{
name = hr00;
})
);
}
);
width = 1690;
},
{
layerId = "D7CFBB37-D300-46E8-A355-ECFF19545BAA";
shapes = (
{
closed = 1;
nodes = (
(1022,1149,l),
(1518,1149,l),
(1518,1453,l),
(1022,1453,l),
(1022,2084,l),
(667,2084,l),
(667,1453,l),
(172,1453,l),
(172,1149,l),
(667,1149,l),
(667,-563,l),
(1022,-563,l,{
name = hr00;
})
);
}
);
width = 1690;
},
{
layerId = "661A777E-9960-44AA-8623-3AD7C626B4F3";
shapes = (
{
closed = 1;
nodes = (
(943,1273,l),
(1492,1273,l),
(1492,1453,l),
(943,1453,l),
(943,2084,l),
(746,2084,l),
(746,1453,l),
(197,1453,l),
(197,1273,l),
(746,1273,l),
(746,-563,l),
(943,-563,l,{
name = hr00;
})
);
}
);
width = 1690;
}
);
unicode = 8224;
}
{
glyphname = bullet;
layers = (
{
layerId = master01;
shapes = (
{
closed = 1;
nodes = (
(1019,614,o),
(1087,707,o),
(1087,825,cs),
(1087,887,ls),
(1087,1005,o),
(1019,1098,o),
(845,1098,cs),
(670,1098,o),
(603,1005,o),
(603,887,cs),
(603,825,ls),
(603,707,o),
(670,614,o),
(845,614,cs,{
name = hr00;
})
);
}
);
width = 1690;
},
{
layerId = "D7CFBB37-D300-46E8-A355-ECFF19545BAA";
shapes = (
{
closed = 1;
nodes = (
(1163,439,o),
(1278,597,o),
(1278,808,cs),
(1278,904,ls),
(1278,1115,o),
(1163,1273,o),
(845,1273,cs),
(527,1273,o),
(411,1115,o),
(411,904,cs),
(411,808,ls),
(411,597,o),
(527,439,o),
(845,439,cs,{
name = hr00;
})
);
}
);
width = 1690;
},
{
layerId = "661A777E-9960-44AA-8623-3AD7C626B4F3";
shapes = (
{
closed = 1;
nodes = (
(1095,524,o),
(1188,650,o),
(1188,817,cs),
(1188,895,ls),
(1188,1062,o),
(1095,1188,o),
(845,1188,cs),
(594,1188,o),
(501,1062,o),
(501,895,cs),
(501,817,ls),
(501,650,o),
(594,524,o),
(845,524,cs,{
name = hr00;
})
);
}
);
width = 1690;
}
);
unicode = 8226;
}
{
glyphname = prime;
layers = (
{
layerId = master01;
shapes = (
{
closed = 1;
nodes = (
(943,1966,l),
(887,1966,l),
(743,1171,l),
(800,1171,l)
);
}
);
width = 1690;
},
{
layerId = "D7CFBB37-D300-46E8-A355-ECFF19545BAA";
shapes = (
{
closed = 1;
nodes = (
(1121,1966,l),
(743,1966,l),
(569,974,l),
(946,974,l)
);
}
);
width = 1690;
},
{
layerId = "661A777E-9960-44AA-8623-3AD7C626B4F3";
shapes = (
{
closed = 1;
nodes = (
(1028,1966,l),
(819,1966,l),
(662,1070,l),
(870,1070,l)
);
}
);
width = 1690;
}
);
unicode = 8242;
}
{
glyphname = foursuperior;
layers = (
{
layerId = master01;
shapes = (
{
closed = 1;
nodes = (
(1081,1177,l),
(1267,1177,l),
(1267,1225,l),
(1081,1225,l),
(1081,1966,l),
(1002,1966,l),
(428,1231,l),
(428,1177,l),
(1028,1177,l),
(1028,926,l),
(1081,926,l,{
name = hr00;
})
);
},
{
closed = 1;
nodes = (
(484,1225,l),
(1019,1912,l),
(1028,1912,l),
(1028,1225,l)
);
}
);
width = 1690;
},
{
layerId = "D7CFBB37-D300-46E8-A355-ECFF19545BAA";
shapes = (
{
closed = 1;
nodes = (
(1140,1124,l),
(1270,1124,l),
(1270,1338,l),
(1140,1338,l),
(1140,1966,l),
(817,1966,l),
(397,1363,l),
(397,1124,l),
(865,1124,l),
(865,926,l),
(1140,926,l,{
name = hr00;
})
);
},
{
closed = 1;
nodes = (
(620,1338,l),
(845,1656,l),
(865,1656,l),
(865,1338,l)
);
}
);
width = 1690;
},
{
layerId = "661A777E-9960-44AA-8623-3AD7C626B4F3";
shapes = (
{
closed = 1;
nodes = (
(1115,1129,l),
(1273,1129,l),
(1273,1264,l),
(1115,1264,l),
(1115,1966,l),
(876,1966,l),
(414,1276,l),
(414,1129,l),
(946,1129,l),
(946,926,l),
(1115,926,l,{
name = hr00;
})
);
},
{
closed = 1;
nodes = (
(569,1264,l),
(935,1805,l),
(946,1805,l),
(946,1264,l)
);
}
);
width = 1690;
}
);
unicode = 8308;
}
{
glyphname = fivesuperior;
layers = (
{
layerId = master01;
shapes = (
{
closed = 1;
nodes = (
(597,1966,l),
(560,1402,l),
(611,1397,l),
(679,1462,o),
(755,1504,o),
(881,1504,cs),
(1081,1504,o),
(1160,1405,o),
(1160,1250,cs),
(1160,1214,ls),
(1160,1062,o),
(1062,957,o),
(862,957,cs),
(701,957,o),
(622,1014,o),
(555,1098,c),
(515,1067,l),
(580,980,o),
(684,910,o),
(865,910,cs),
(1090,910,o),
(1217,1036,o),
(1217,1236,cs),
(1217,1425,o),
(1110,1552,o),
(887,1552,cs),
(777,1552,o),
(684,1512,o),
(617,1447,c),
(611,1447,l),
(645,1918,l),
(1174,1918,l),
(1174,1966,l,{
name = hr00;
})
);
}
);
width = 1690;
},
{
layerId = "D7CFBB37-D300-46E8-A355-ECFF19545BAA";
shapes = (
{
closed = 1;
nodes = (
(490,1966,l),
(448,1369,l),
(681,1338,l),
(701,1360,o),
(763,1402,o),
(842,1402,cs),
(924,1402,o),
(977,1354,o),
(977,1284,cs),
(977,1273,ls),
(977,1191,o),
(929,1132,o),
(831,1132,cs),
(724,1132,o),
(662,1202,o),
(617,1284,c),
(408,1121,l),
(476,1005,o),
(600,910,o),
(831,910,cs),
(1124,910,o),
(1281,1073,o),
(1281,1293,cs),
(1281,1504,o),
(1124,1628,o),
(932,1628,cs),
(780,1628,o),
(729,1549,o),
(690,1433,c),
(676,1433,l),
(696,1721,l),
(1211,1721,l),
(1211,1966,l,{
name = hr00;
})
);
}
);
width = 1690;
},
{
layerId = "661A777E-9960-44AA-8623-3AD7C626B4F3";
shapes = (
{
closed = 1;
nodes = (
(527,1966,l),
(487,1385,l),
(634,1366,l),
(676,1408,o),
(727,1447,o),
(825,1447,cs),
(966,1447,o),
(1039,1374,o),
(1039,1256,cs),
(1039,1242,ls),
(1039,1124,o),
(966,1050,o),
(825,1050,cs),
(696,1050,o),
(634,1110,o),
(577,1191,c),
(451,1095,l),
(518,1000,o),
(622,910,o),
(822,910,cs),
(1076,910,o),
(1225,1056,o),
(1225,1264,cs),
(1225,1467,o),
(1076,1588,o),
(881,1588,cs),
(755,1588,o),
(696,1532,o),
(645,1450,c),
(634,1450,l),
(665,1825,l),
(1169,1825,l),
(1169,1966,l,{
name = hr00;
})
);
}
);
width = 1690;
}
);
unicode = 8309;
}
